{"glyphs":{"0":{"ha":886,"x_min":121,"x_max":926,"o":"m 490 1017 l 718 1017 q 826 997 781 1017 q 892 944 871 976 q 926 829 926 890 q 921 786 926 807 l 833 231 q 748 55 814 110 q 564 0 682 0 l 336 0 q 168 57 228 0 q 122 179 122 100 q 126 231 122 203 l 214 783 q 490 1017 251 1017 m 256 240 q 253 206 253 222 q 254 178 253 190 q 263 157 256 165 q 273 142 269 149 q 288 133 276 136 q 305 127 300 129 q 325 125 310 125 q 364 124 340 124 l 567 124 q 707 239 688 124 l 793 778 q 796 821 796 796 q 777 869 796 846 q 692 893 758 893 l 486 893 q 342 778 358 893 l 256 240 z "},"1":{"ha":504,"x_min":179,"x_max":561,"o":"m 181 811 l 193 900 q 306 928 246 900 q 436 1017 396 971 l 561 1017 l 403 0 l 275 0 l 413 867 q 321 828 383 844 q 181 811 258 811 z "},"2":{"ha":822,"x_min":61,"x_max":881,"o":"m 753 775 q 599 906 753 906 l 194 906 l 210 1000 q 636 1031 429 1031 q 757 1006 706 1031 q 872 840 849 960 q 879 778 879 807 q 876 713 879 750 q 844 619 872 676 q 779 513 817 563 q 688 410 742 464 q 588 316 635 356 q 486 233 542 276 q 331 124 408 175 l 775 124 l 756 0 l 61 0 l 81 115 q 683 599 522 385 q 753 775 753 692 z "},"3":{"ha":821,"x_min":51,"x_max":853,"o":"m 472 -10 l 390 -10 q 365 -10 372 -10 q 319 -9 357 -10 q 268 -8 282 -8 q 223 -5 254 -7 q 175 0 192 -3 q 133 7 158 3 q 51 29 93 14 l 65 115 l 463 115 q 573 144 525 115 q 631 235 621 174 l 643 307 q 644 376 650 357 q 634 405 639 394 q 619 422 629 415 q 600 432 608 428 q 576 438 592 436 q 524 443 554 442 l 204 453 l 221 554 l 543 568 q 707 694 686 574 l 719 778 q 722 808 722 794 q 596 896 722 896 l 181 896 l 193 981 q 499 1021 313 1021 q 657 1019 567 1021 q 806 950 747 1017 q 851 824 851 899 q 849 782 851 804 l 833 692 q 788 564 821 611 q 708 506 754 517 q 778 365 778 471 q 772 300 778 335 l 760 224 q 472 -10 722 -10 z "},"4":{"ha":843,"x_min":74,"x_max":878,"o":"m 75 311 l 608 1017 l 761 1017 l 281 378 l 626 378 l 671 651 l 740 756 l 818 756 l 758 378 l 876 378 l 861 278 l 738 250 l 700 3 l 568 3 l 607 250 l 111 250 l 75 311 z "},"5":{"ha":835,"x_min":103,"x_max":889,"o":"m 331 586 q 515 629 376 629 q 578 628 539 629 q 629 625 618 626 q 781 556 726 624 q 821 426 821 501 q 818 381 821 404 l 794 228 q 694 39 772 90 q 522 -7 625 -6 q 438 -7 501 -7 q 103 26 292 -7 l 118 124 l 532 124 q 600 139 578 124 q 633 166 622 154 q 650 192 643 178 q 668 244 664 218 l 689 376 q 693 414 693 396 q 594 504 693 504 l 407 504 q 328 480 363 504 q 285 407 293 456 l 164 407 l 292 1017 l 888 1017 l 868 893 l 394 893 l 331 586 z "},"6":{"ha":857,"x_min":146,"x_max":906,"o":"m 301 572 q 653 601 507 601 q 786 565 742 601 q 839 478 832 526 q 846 420 846 442 q 842 381 846 399 l 814 206 q 728 47 796 93 q 550 0 661 0 l 349 0 q 269 13 304 0 q 206 64 235 26 q 146 308 146 136 q 167 538 146 407 q 224 767 188 669 q 304 918 260 865 q 483 1024 389 1022 q 547 1025 515 1025 q 906 997 736 1025 l 889 901 l 503 901 q 424 867 460 901 q 364 778 388 833 q 301 572 319 678 m 271 308 q 379 119 271 119 l 560 119 q 692 228 675 119 l 715 379 q 718 421 718 397 q 700 462 718 444 q 618 479 682 479 l 286 479 q 271 308 271 381 z "},"7":{"ha":761,"x_min":179,"x_max":872,"o":"m 181 893 l 200 1017 l 842 1017 l 872 944 l 363 0 l 215 0 l 703 893 l 181 893 z "},"8":{"ha":874,"x_min":126,"x_max":908,"o":"m 303 503 q 204 657 204 539 q 206 697 204 678 l 221 788 q 312 972 242 921 q 507 1024 382 1024 l 713 1024 q 871 960 819 1024 q 908 836 908 913 q 904 779 908 810 l 889 693 q 844 589 883 640 q 754 533 810 544 q 825 460 807 518 q 838 394 838 422 q 835 347 838 367 l 814 217 q 679 18 789 56 q 549 0 628 0 l 344 0 q 231 19 278 0 q 164 62 185 38 q 135 119 143 86 q 126 173 126 153 q 132 224 126 193 l 151 350 q 204 458 163 419 q 303 503 246 496 m 260 222 q 257 184 257 208 q 280 141 257 160 q 374 122 303 122 l 556 122 q 641 146 604 122 q 686 222 678 169 l 707 354 q 710 378 710 367 q 685 436 710 413 q 614 460 661 460 l 415 460 q 307 417 344 460 q 281 354 286 392 l 260 222 m 331 661 q 359 600 331 622 q 433 578 388 578 l 631 578 q 760 686 742 578 l 774 772 q 778 829 778 800 q 764 875 778 858 q 681 903 743 903 l 497 903 q 389 874 421 903 q 346 772 357 844 l 332 686 q 331 661 331 672 z "},"9":{"ha":856,"x_min":114,"x_max":874,"o":"m 718 453 q 367 424 513 424 q 218 475 261 424 q 175 582 175 525 q 179 644 175 600 l 206 817 q 290 976 222 929 q 468 1024 358 1024 l 671 1024 q 874 714 874 1024 q 853 482 874 614 q 796 253 832 350 q 715 103 760 156 q 536 0 631 3 q 460 -1 497 -1 q 114 26 257 -1 l 129 122 l 517 122 q 595 156 558 122 q 656 246 632 190 q 718 453 700 346 m 304 644 q 301 610 301 626 q 308 578 301 594 q 400 544 319 544 l 733 544 q 749 715 749 643 q 640 904 749 904 l 460 904 q 328 796 344 904 l 304 644 z "},"\u0000":{"ha":1053,"x_min":139,"x_max":914,"o":"m 139 0 l 139 738 l 914 738 l 914 0 l 139 0 m 158 31 l 514 369 l 158 704 l 158 31 m 172 719 l 529 383 l 882 719 l 172 719 m 176 18 l 881 18 l 529 356 l 176 18 m 544 369 l 894 35 l 894 703 l 544 369 z "},"\r":{"ha":1389,"x_min":0,"x_max":0,"o":""}," ":{"ha":347,"x_min":0,"x_max":0,"o":""},"!":{"ha":369,"x_min":111,"x_max":413,"o":"m 165 158 l 254 158 q 281 124 286 158 l 267 32 q 231 0 263 0 l 142 0 q 118 9 126 0 q 113 32 110 18 l 126 124 q 165 158 132 158 m 164 276 l 268 1015 l 413 1015 l 282 276 l 164 276 z "},"\"":{"ha":553,"x_min":242,"x_max":604,"o":"m 243 738 l 256 924 l 271 1017 l 399 1017 l 383 924 l 340 738 l 243 738 m 447 738 l 461 924 l 476 1017 l 603 1017 l 588 924 l 544 738 l 447 738 z "},"#":{"ha":967,"x_min":74,"x_max":1054,"o":"m 75 314 l 103 403 l 321 403 l 388 615 l 169 615 l 199 704 l 418 704 l 518 1017 l 607 1017 l 507 704 l 721 704 l 819 1017 l 908 1017 l 810 704 l 1054 704 l 1024 615 l 781 615 l 713 401 l 957 401 l 929 313 l 683 313 l 582 0 l 493 0 l 594 313 l 379 314 l 278 0 l 189 0 l 290 314 l 75 314 m 410 403 l 624 401 l 692 615 l 476 615 l 410 403 z "},"$":{"ha":794,"x_min":106,"x_max":844,"o":"m 828 890 l 504 903 q 490 903 496 903 q 378 875 422 903 q 321 769 333 847 l 308 689 q 306 641 306 669 q 325 588 306 613 q 422 564 344 564 l 590 564 q 781 382 781 564 q 775 311 781 349 l 761 224 q 635 28 738 79 q 453 -11 554 -11 q 425 -11 439 -11 l 407 -125 l 317 -125 l 335 -6 q 107 25 196 8 l 124 119 q 253 115 131 119 q 426 110 375 110 q 503 115 476 110 q 558 132 529 121 q 607 168 586 143 q 633 228 628 193 l 646 311 q 639 414 660 396 q 557 436 614 436 l 390 436 q 224 494 274 436 q 175 618 175 553 q 179 689 175 646 l 193 779 q 335 993 219 942 q 499 1025 400 1024 l 517 1144 l 608 1144 l 589 1021 q 843 990 683 1014 l 828 890 z "},"%":{"ha":1336,"x_min":153,"x_max":1344,"o":"m 394 1017 l 535 1017 q 663 974 626 1017 q 689 888 689 944 q 685 839 689 865 l 657 658 q 597 522 640 560 q 449 485 554 485 l 308 485 q 189 526 225 485 q 153 624 153 567 q 157 664 153 643 l 185 844 q 243 977 200 938 q 394 1017 286 1017 m 260 667 q 257 639 257 651 q 261 614 257 626 q 329 588 269 588 l 460 588 q 529 603 511 588 q 554 667 547 619 l 582 835 q 586 866 586 854 q 583 890 586 878 q 514 914 578 914 l 383 914 q 313 898 331 914 q 288 835 294 882 l 260 667 m 306 0 l 1078 1017 l 1188 1017 l 417 0 l 306 0 m 1049 532 l 1189 532 q 1317 490 1281 532 q 1343 403 1343 460 q 1339 354 1343 381 l 1311 174 q 1252 38 1296 76 q 1101 0 1208 0 l 961 0 q 843 40 878 0 q 808 138 808 81 q 811 178 808 157 l 839 358 q 893 489 853 449 q 1049 532 938 532 m 915 182 q 911 155 911 167 q 915 129 911 143 q 982 103 924 103 l 1113 103 q 1183 119 1165 103 q 1210 182 1201 135 l 1236 350 q 1239 388 1239 371 q 1229 417 1239 406 q 1167 429 1219 429 l 1038 429 q 967 413 985 429 q 942 350 949 397 l 915 182 z "},"&":{"ha":886,"x_min":83,"x_max":886,"o":"m 535 900 q 392 825 392 900 q 421 739 392 790 l 660 324 l 846 489 l 886 447 l 788 282 l 721 218 l 850 0 l 715 0 l 629 147 l 525 57 q 349 -8 451 -8 q 247 11 299 -8 q 128 111 172 40 q 83 253 83 182 q 232 508 83 396 l 363 608 l 297 719 q 265 828 265 778 q 269 861 265 846 q 333 964 285 924 q 450 1010 382 1004 q 564 1017 518 1017 q 662 1013 610 1017 q 815 986 714 1010 l 801 900 l 535 900 m 357 111 q 461 153 413 111 l 569 249 l 418 501 l 307 417 q 204 258 204 340 q 232 178 204 218 q 357 111 278 111 z "},"'":{"ha":272,"x_min":203,"x_max":363,"o":"m 203 738 l 217 924 l 232 1017 l 361 1017 l 346 924 l 303 738 l 203 738 z "},"(":{"ha":481,"x_min":151,"x_max":646,"o":"m 276 219 q 346 -169 276 18 q 390 -269 371 -235 l 410 -304 l 278 -304 q 181 -36 219 -207 q 151 228 151 93 q 232 689 151 458 q 408 1047 294 867 q 479 1149 451 1115 l 506 1182 l 646 1182 q 552 1051 608 1138 q 453 882 496 964 q 365 678 410 800 q 298 440 319 557 q 276 219 276 322 z "},")":{"ha":483,"x_min":-21,"x_max":475,"o":"m 349 656 q 279 1046 349 857 q 236 1146 256 1111 l 217 1182 l 347 1182 q 444 911 406 1083 q 474 647 474 782 q 358 92 474 363 q 247 -129 293 -57 q 138 -287 168 -250 l 124 -304 l -19 -304 q 74 -174 18 -260 q 173 -6 131 -87 q 261 198 215 76 q 328 437 307 319 q 349 656 349 554 z "},"*":{"ha":606,"x_min":188,"x_max":675,"o":"m 189 786 l 197 847 l 397 886 l 388 779 l 189 786 m 246 576 l 308 764 l 410 739 l 300 557 l 246 576 m 386 657 l 460 747 l 592 621 l 551 572 l 386 657 m 397 997 l 461 1021 l 536 854 l 431 811 l 397 997 m 469 793 l 653 900 l 675 846 l 525 711 l 469 793 z "},"+":{"ha":704,"x_min":131,"x_max":729,"o":"m 132 435 l 150 554 l 378 554 l 414 783 l 533 783 l 497 554 l 728 554 l 710 435 l 479 435 l 442 206 l 322 206 l 360 435 l 132 435 z "},",":{"ha":368,"x_min":97,"x_max":282,"o":"m 144 0 q 121 9 129 0 q 115 35 113 18 l 129 122 q 171 160 135 160 l 254 160 q 281 132 281 160 q 281 122 281 128 l 258 -15 q 233 -79 253 -54 q 126 -125 199 -125 q 113 -125 119 -125 l 97 -122 l 106 -72 q 137 -64 125 -72 q 151 -49 149 -56 q 156 -31 153 -42 l 160 0 l 144 0 z "},"-":{"ha":492,"x_min":83,"x_max":539,"o":"m 83 343 l 103 463 l 539 463 l 519 343 l 83 343 z "},".":{"ha":372,"x_min":114,"x_max":285,"o":"m 168 158 l 254 158 q 285 133 285 158 q 283 124 285 129 l 268 32 q 229 0 264 0 l 143 0 q 121 9 129 0 q 114 32 113 18 l 129 124 q 168 158 133 158 z "},"/":{"ha":576,"x_min":8,"x_max":719,"o":"m 10 -100 l 585 1069 l 719 1069 l 144 -100 l 10 -100 z "},":":{"ha":374,"x_min":114,"x_max":378,"o":"m 168 158 l 254 158 q 285 133 285 158 q 283 124 285 129 l 268 32 q 229 0 264 0 l 143 0 q 121 9 129 0 q 114 32 113 18 l 129 124 q 168 158 133 158 m 221 704 q 260 739 226 739 l 346 739 q 376 714 376 739 q 375 704 376 710 l 361 613 q 321 581 356 581 l 235 581 q 213 589 221 581 q 207 613 204 597 l 221 704 z "},";":{"ha":374,"x_min":97,"x_max":379,"o":"m 144 0 q 122 10 131 0 q 115 35 114 21 l 129 122 q 144 149 132 138 q 171 160 156 160 l 254 160 q 281 132 281 160 q 281 122 281 128 l 258 -15 q 233 -79 253 -54 q 126 -125 199 -125 q 113 -125 119 -125 l 97 -122 l 106 -72 q 137 -64 125 -72 q 151 -49 149 -56 q 156 -31 153 -42 l 160 0 l 144 0 m 263 740 l 349 740 q 379 715 379 740 q 378 706 379 711 l 364 614 q 325 582 358 582 l 239 582 q 215 590 224 582 q 210 614 207 599 l 224 706 q 263 740 228 740 z "},"<":{"ha":649,"x_min":131,"x_max":708,"o":"m 132 426 l 153 556 l 707 775 l 688 644 l 282 486 l 636 317 l 615 192 l 132 426 z "},"=":{"ha":649,"x_min":71,"x_max":731,"o":"m 72 283 l 92 403 l 685 403 l 665 283 l 72 283 m 117 576 l 138 696 l 731 696 l 710 576 l 117 576 z "},">":{"ha":650,"x_min":94,"x_max":674,"o":"m 94 192 l 117 325 l 529 493 l 167 656 l 188 775 l 674 556 l 653 426 l 94 192 z "},"?":{"ha":750,"x_min":168,"x_max":826,"o":"m 433 407 l 413 271 l 293 271 l 331 508 q 439 507 392 507 q 531 509 486 507 q 620 542 575 511 q 675 636 665 574 l 694 758 q 697 797 697 781 q 667 877 697 849 q 536 906 636 906 l 168 906 l 183 996 q 228 1003 193 997 q 274 1010 264 1008 q 314 1015 283 1011 q 356 1019 344 1018 q 395 1024 368 1021 q 440 1026 422 1026 q 477 1027 457 1026 q 519 1028 497 1028 q 581 1026 540 1028 q 778 950 715 1026 q 826 811 826 890 q 822 763 826 788 l 801 629 q 676 431 778 478 q 522 399 611 399 q 433 407 479 399 m 293 158 l 379 158 q 410 133 410 158 q 408 124 410 129 l 393 32 q 354 0 388 0 l 268 0 q 246 9 254 0 q 239 32 238 18 l 254 124 q 293 158 258 158 z "},"@":{"ha":1215,"x_min":79,"x_max":1224,"o":"m 781 85 q 568 -6 700 -6 q 465 13 508 -6 q 390 75 422 31 q 351 243 351 131 q 363 389 351 304 q 401 542 375 474 q 457 649 426 610 q 525 714 488 689 q 665 756 589 756 q 981 668 890 756 l 901 122 q 988 145 958 122 q 1031 247 1018 168 l 1100 715 q 1103 794 1108 772 q 1094 826 1099 815 q 1081 842 1090 836 q 1065 853 1071 849 q 1044 858 1058 857 q 1000 861 1025 861 l 478 861 q 313 715 335 861 l 201 19 q 199 -24 199 -6 q 200 -57 199 -42 q 234 -113 204 -90 q 321 -136 264 -136 l 857 -136 l 843 -215 q 438 -253 656 -253 l 303 -253 q 124 -174 182 -253 q 79 -32 79 -115 q 83 22 79 -6 l 194 724 q 499 979 236 979 l 1015 979 q 1186 908 1136 979 q 1222 776 1222 858 q 1218 711 1222 746 l 1146 229 q 1071 60 1129 114 q 1003 21 1047 38 q 901 4 960 4 l 813 4 l 781 85 m 475 357 q 467 246 467 296 q 479 165 467 196 q 585 111 501 111 q 706 138 660 111 q 792 197 753 164 l 858 619 q 665 640 781 640 q 475 357 511 640 z "},"A":{"ha":926,"x_min":58,"x_max":908,"o":"m 58 0 l 585 1017 l 719 1017 l 908 0 l 778 0 l 728 268 l 338 268 l 199 0 l 58 0 m 399 389 l 708 389 l 629 843 l 399 389 z "},"B":{"ha":829,"x_min":103,"x_max":896,"o":"m 664 1017 q 838 957 782 1017 q 894 800 894 893 q 893 743 894 772 q 836 597 881 650 q 725 528 792 544 q 801 458 767 521 q 831 329 831 408 q 826 278 831 304 q 733 71 810 142 q 503 0 657 0 l 104 0 l 265 1017 l 664 1017 m 699 292 q 703 350 703 315 q 682 421 703 385 q 576 474 651 474 l 308 474 l 253 122 l 521 121 q 699 292 671 121 m 768 792 q 740 868 768 842 q 643 894 711 894 l 375 894 l 328 593 l 593 593 q 764 746 739 593 q 768 792 768 771 z "},"C":{"ha":800,"x_min":139,"x_max":913,"o":"m 322 943 q 430 1005 367 982 q 606 1028 493 1028 q 911 983 718 1028 l 896 883 q 600 904 738 904 q 578 904 586 904 q 559 904 569 904 q 539 903 549 904 q 510 901 529 903 q 479 892 492 899 q 448 877 467 886 q 415 853 429 868 q 385 817 401 838 q 355 767 368 797 q 328 700 342 738 q 284 526 301 629 q 267 356 267 422 q 439 115 267 126 q 533 114 464 114 q 779 126 601 114 l 765 25 q 432 -8 647 -8 q 199 104 265 -8 q 140 356 140 201 q 192 696 140 508 q 322 943 239 867 z "},"D":{"ha":922,"x_min":103,"x_max":946,"o":"m 653 1017 q 869 924 803 1017 q 943 717 936 833 q 946 653 946 681 q 932 497 946 574 q 787 128 892 256 q 496 0 682 0 l 104 0 l 265 1015 q 653 1017 265 1017 m 508 125 q 651 179 588 125 q 806 506 768 278 q 819 671 819 593 q 628 896 819 896 l 374 896 l 251 125 l 508 125 z "},"E":{"ha":785,"x_min":125,"x_max":885,"o":"m 435 1017 q 651 1007 442 1017 q 883 994 860 997 l 868 892 l 442 892 q 364 843 381 892 q 357 814 360 831 l 318 569 l 757 556 l 740 453 l 299 439 l 258 193 q 279 129 251 140 q 335 121 300 121 l 747 121 l 729 19 l 301 -4 q 276 -4 294 -4 q 228 4 258 -4 q 126 142 126 32 q 129 181 126 161 l 232 831 q 435 1017 263 1017 z "},"F":{"ha":786,"x_min":103,"x_max":886,"o":"m 438 1017 q 653 1007 444 1017 q 886 994 861 997 l 869 892 l 444 892 q 365 843 382 892 q 360 814 361 831 l 321 569 l 758 554 l 743 451 l 300 438 l 231 0 l 103 0 l 233 825 q 438 1017 264 1017 z "},"G":{"ha":847,"x_min":142,"x_max":913,"o":"m 586 1026 q 911 985 714 1026 l 897 883 q 574 906 774 903 q 442 874 486 906 q 354 760 388 832 q 294 541 311 661 q 276 374 276 421 q 278 304 276 326 q 325 167 283 218 q 440 115 367 115 q 443 115 442 115 q 551 134 489 115 q 650 171 613 153 l 688 190 l 731 432 l 521 432 l 535 517 q 783 550 650 550 q 876 547 826 550 l 789 0 l 693 0 l 672 78 q 519 4 621 31 q 285 22 379 -32 q 156 228 185 79 q 143 326 143 290 q 144 402 143 363 q 160 532 144 442 q 196 697 175 622 q 249 838 217 772 q 326 942 282 903 q 576 1026 419 1026 q 586 1026 582 1026 z "},"H":{"ha":886,"x_min":110,"x_max":975,"o":"m 110 0 l 271 1017 l 399 1017 l 324 553 l 772 553 l 847 1017 l 975 1017 l 814 0 l 686 0 l 756 431 l 307 431 l 238 0 l 110 0 z "},"I":{"ha":324,"x_min":115,"x_max":406,"o":"m 115 0 l 276 1017 l 404 1017 l 243 0 l 115 0 z "},"J":{"ha":499,"x_min":49,"x_max":582,"o":"m 69 126 q 174 110 149 110 q 213 112 200 110 q 250 122 226 114 q 288 147 274 131 q 332 253 322 186 l 453 1017 l 581 1017 l 456 229 q 399 65 439 117 q 206 -8 339 -8 q 50 31 103 -8 l 69 126 z "},"K":{"ha":813,"x_min":103,"x_max":951,"o":"m 104 0 l 265 1017 l 390 1017 l 319 569 l 429 569 l 794 1017 l 951 1017 l 539 500 l 790 0 l 639 0 l 419 447 l 301 447 l 231 0 l 104 0 z "},"L":{"ha":740,"x_min":126,"x_max":742,"o":"m 338 124 l 742 124 l 722 0 l 297 0 q 172 39 215 0 q 128 140 128 78 q 131 181 128 160 l 265 1017 l 393 1017 l 261 196 q 281 132 253 143 q 338 124 301 124 z "},"M":{"ha":1124,"x_min":90,"x_max":1157,"o":"m 90 0 l 325 1017 l 494 1017 l 614 213 l 981 1017 l 1157 1017 l 1078 0 l 951 0 l 1017 790 l 654 0 l 517 0 l 400 789 l 218 0 l 90 0 z "},"N":{"ha":919,"x_min":103,"x_max":1003,"o":"m 104 0 l 265 1017 l 390 1017 l 751 236 l 875 1017 l 1003 1017 l 842 0 l 718 0 l 356 778 l 233 0 l 104 0 z "},"O":{"ha":925,"x_min":138,"x_max":967,"o":"m 460 1010 q 481 1014 460 1010 q 538 1021 501 1018 q 627 1024 574 1024 q 722 1019 681 1024 q 806 1000 764 1014 q 876 961 849 986 q 958 803 942 906 q 967 719 967 756 q 966 638 967 682 q 950 497 965 593 q 915 327 935 401 q 870 200 894 253 q 813 110 846 147 q 747 51 781 74 q 669 15 714 28 q 389 -1 551 -18 q 235 50 289 8 q 147 203 167 104 q 139 288 139 251 q 140 367 139 325 q 155 502 140 410 q 187 665 169 594 q 226 788 204 736 q 272 879 249 840 q 328 944 296 918 q 389 985 360 969 q 460 1010 418 1001 m 303 607 q 265 310 265 428 q 339 143 265 179 q 478 118 389 118 q 615 132 567 118 q 707 188 664 146 q 822 501 785 263 q 840 682 840 617 q 833 777 840 747 q 817 827 825 807 q 790 861 808 847 q 757 883 772 875 q 715 894 742 890 q 631 900 676 900 q 566 899 585 900 q 521 896 547 899 q 478 888 494 893 q 441 872 463 882 q 406 847 419 863 q 376 810 393 832 q 349 760 360 789 q 303 607 318 681 z "},"P":{"ha":826,"x_min":97,"x_max":896,"o":"m 683 1017 q 783 997 744 1017 q 843 953 822 976 q 896 789 896 890 q 889 703 896 753 q 869 607 882 653 q 840 530 856 561 q 803 475 824 499 q 763 439 783 451 q 719 417 742 426 q 674 407 696 408 q 629 403 651 406 q 577 403 607 401 q 424 415 547 404 q 294 428 300 425 l 225 0 l 97 0 l 258 1017 l 683 1017 m 761 717 q 767 795 767 772 q 758 837 767 818 q 740 867 749 856 q 715 885 731 879 q 660 894 690 894 l 367 894 l 308 525 l 600 525 q 736 617 699 525 q 761 717 751 656 z "},"Q":{"ha":931,"x_min":143,"x_max":972,"o":"m 628 1024 q 715 1019 678 1024 q 791 1006 753 1015 q 856 978 829 996 q 908 933 883 960 q 967 772 951 883 q 972 704 972 738 q 956 505 972 610 q 919 326 940 400 q 875 200 899 253 q 818 110 851 147 q 752 50 785 72 q 674 15 719 28 q 414 -3 568 -14 q 297 19 335 3 q 233 56 258 36 q 192 103 208 76 q 143 314 143 182 q 192 667 143 471 q 278 881 222 789 q 393 986 317 944 q 628 1024 464 1024 m 307 607 q 269 310 269 428 q 343 143 269 179 q 483 118 394 118 q 620 132 571 118 q 711 188 669 146 q 826 501 789 263 q 844 682 844 617 q 837 777 844 747 q 821 827 829 807 q 794 861 813 847 q 762 883 776 875 q 719 894 747 890 q 635 900 682 900 q 570 899 589 900 q 525 896 551 899 q 483 888 499 893 q 446 872 467 882 q 411 847 425 863 q 381 810 397 832 q 353 760 365 789 q 307 607 322 681 m 506 -46 q 631 -97 556 -97 q 732 -76 671 -97 l 713 -200 q 653 -212 678 -212 q 597 -210 628 -212 q 523 -192 567 -208 q 450 -137 479 -176 q 424 -46 421 -99 l 506 -46 z "},"R":{"ha":844,"x_min":97,"x_max":893,"o":"m 692 1017 q 851 943 796 1017 q 893 779 893 886 q 840 532 893 629 q 696 418 790 436 q 671 414 685 417 l 817 0 l 675 0 l 543 403 l 292 421 l 225 0 l 97 0 l 258 1017 l 692 1017 m 740 622 q 758 699 754 658 q 763 773 763 740 q 754 838 763 806 q 726 883 746 871 q 667 894 706 894 l 368 894 l 310 526 l 603 526 q 740 622 703 526 z "},"S":{"ha":796,"x_min":106,"x_max":860,"o":"m 843 889 l 503 901 q 481 901 490 901 q 373 878 413 901 q 321 769 333 854 l 308 689 q 305 621 300 639 q 314 594 310 603 q 327 579 318 585 q 343 570 336 574 q 364 565 350 567 q 402 564 385 564 q 422 564 419 564 l 603 564 q 708 541 665 564 q 768 482 751 518 q 794 385 794 428 q 789 317 794 342 l 776 222 q 507 -10 746 4 q 426 -11 483 -11 q 263 1 369 -11 q 107 25 156 13 l 122 126 q 465 113 228 113 q 647 228 631 113 l 661 311 q 667 358 667 335 q 658 400 667 382 q 571 436 642 436 l 393 436 q 174 622 174 436 q 179 683 174 651 l 193 779 q 307 985 217 935 q 488 1025 381 1025 q 681 1013 563 1025 q 858 990 799 1001 l 843 889 z "},"T":{"ha":807,"x_min":186,"x_max":925,"o":"m 186 893 l 207 1017 l 925 1017 l 904 893 l 606 893 l 464 0 l 336 0 l 478 893 l 186 893 z "},"U":{"ha":910,"x_min":157,"x_max":994,"o":"m 299 424 q 288 310 288 342 q 288 272 288 279 q 379 131 290 161 q 481 117 418 117 q 678 185 611 117 q 771 424 744 254 l 864 1017 l 993 1017 l 901 417 q 744 74 861 167 q 468 -7 644 -7 q 189 133 249 -7 q 157 283 157 206 q 169 429 157 360 l 263 1017 l 392 1017 l 299 424 z "},"V":{"ha":936,"x_min":204,"x_max":1050,"o":"m 204 1017 l 339 1017 l 483 190 l 906 1017 l 1050 1017 l 525 0 l 389 0 l 204 1017 z "},"W":{"ha":1394,"x_min":204,"x_max":1510,"o":"m 204 1017 l 335 1017 l 482 194 l 899 1017 l 1040 1017 l 874 686 l 953 188 l 1371 1017 l 1508 1017 l 993 0 l 858 0 l 779 492 l 528 0 l 389 0 l 204 1017 z "},"X":{"ha":850,"x_min":50,"x_max":967,"o":"m 50 0 l 432 510 l 208 1017 l 344 1017 l 518 617 l 817 1017 l 967 1017 l 574 490 l 790 0 l 653 0 l 488 383 l 200 0 l 50 0 z "},"Y":{"ha":885,"x_min":204,"x_max":999,"o":"m 204 1017 l 340 1017 l 501 500 l 849 1017 l 999 1017 l 546 349 l 490 0 l 363 0 l 418 349 l 204 1017 z "},"Z":{"ha":781,"x_min":44,"x_max":896,"o":"m 46 0 l 65 124 l 713 893 l 186 893 l 207 1017 l 896 1017 l 875 893 l 232 124 l 754 124 l 735 0 l 46 0 z "},"[":{"ha":450,"x_min":96,"x_max":611,"o":"m 499 1157 l 610 1157 l 590 1038 l 490 1038 q 422 1014 447 1038 q 386 926 397 990 l 231 -53 q 224 -120 225 -94 q 232 -161 222 -146 q 296 -185 247 -185 l 397 -185 l 378 -304 l 264 -304 q 177 -285 213 -304 q 126 -240 142 -267 q 96 -118 96 -193 q 103 -49 96 -87 l 260 939 q 321 1096 276 1042 q 499 1157 372 1157 z "},"\\":{"ha":564,"x_min":193,"x_max":525,"o":"m 194 1069 l 318 1069 l 524 -100 l 400 -100 l 194 1069 z "},"]":{"ha":450,"x_min":-21,"x_max":493,"o":"m 324 1157 q 492 968 492 1157 q 488 906 492 939 l 333 -86 q 274 -240 317 -185 q 96 -304 224 -304 l -19 -304 l -1 -185 l 100 -185 q 168 -161 143 -185 q 204 -74 193 -137 l 360 906 q 365 973 365 946 q 358 1013 365 1000 q 293 1038 344 1038 l 193 1038 l 213 1157 l 324 1157 z "},"^":{"ha":540,"x_min":181,"x_max":594,"o":"m 182 738 l 369 921 l 481 921 l 593 738 l 489 738 l 421 843 l 308 738 l 182 738 z "},"_":{"ha":935,"x_min":28,"x_max":929,"o":"m 28 -1 l 47 118 l 928 118 l 908 -1 l 28 -1 z "},"`":{"ha":350,"x_min":171,"x_max":442,"o":"m 172 925 l 306 925 l 442 738 l 338 738 l 172 925 z "},"a":{"ha":750,"x_min":103,"x_max":786,"o":"m 286 707 q 306 719 286 707 q 358 739 326 731 q 422 751 390 747 q 499 754 454 754 q 640 733 544 754 q 786 665 736 713 l 689 0 l 594 0 l 575 82 q 465 20 536 50 q 335 -10 394 -10 q 240 1 276 -10 q 170 38 203 11 q 122 111 138 65 q 103 243 103 172 q 118 397 103 314 q 160 545 133 481 q 217 647 188 610 q 286 707 246 683 m 303 556 q 294 542 303 556 q 269 477 286 528 q 242 360 253 426 q 232 245 232 293 q 244 167 232 197 q 341 110 268 110 q 464 126 414 110 q 585 178 514 142 l 651 615 q 513 640 563 640 q 435 635 464 640 q 388 624 406 629 q 345 601 371 618 q 303 556 319 583 z "},"b":{"ha":769,"x_min":78,"x_max":778,"o":"m 575 749 q 778 500 778 749 q 742 246 778 389 q 653 61 711 122 q 479 -8 588 -8 q 328 23 408 -8 q 217 81 247 54 l 175 0 l 78 0 l 250 1090 l 375 1090 l 314 694 q 450 734 376 719 q 575 749 524 749 m 650 515 q 549 632 650 632 q 300 599 426 632 l 232 171 q 468 111 354 111 q 577 174 538 111 q 633 347 617 236 q 650 515 650 458 z "},"c":{"ha":686,"x_min":106,"x_max":739,"o":"m 276 715 q 295 725 276 715 q 345 742 314 736 q 426 747 376 747 q 572 735 476 747 q 738 707 667 724 l 725 619 q 473 631 550 631 q 379 628 396 631 q 341 611 363 625 q 306 568 319 597 q 246 364 271 503 q 233 235 233 282 q 247 160 233 188 q 336 108 274 108 q 606 119 457 108 l 656 122 l 642 33 q 332 -8 501 -8 q 314 -8 322 -8 q 142 85 199 -7 q 107 222 107 143 q 122 388 107 301 q 161 545 136 475 q 213 654 186 615 q 276 715 239 693 z "},"d":{"ha":765,"x_min":108,"x_max":864,"o":"m 292 718 q 305 726 292 718 q 351 741 318 733 q 429 749 385 749 q 547 734 474 749 q 674 694 619 719 l 738 1090 l 863 1090 l 689 0 l 592 0 l 575 81 q 456 22 533 51 q 314 -8 379 -8 q 201 26 249 -8 q 135 115 154 60 q 110 258 110 190 q 118 369 110 325 q 133 447 126 414 q 151 516 140 481 q 175 580 161 551 q 206 635 189 608 q 244 683 222 663 q 292 718 265 703 m 238 263 q 338 111 238 111 q 590 171 451 111 l 658 599 q 418 632 543 632 q 347 613 376 632 q 247 367 281 567 q 238 263 238 308 z "},"e":{"ha":729,"x_min":101,"x_max":763,"o":"m 490 751 q 747 647 706 751 q 763 583 763 611 q 719 419 763 478 q 621 335 675 360 q 406 289 515 289 q 301 295 350 289 q 236 308 251 301 q 228 213 228 253 q 239 149 228 172 q 335 104 261 106 q 441 103 367 103 q 669 125 515 103 l 654 31 q 329 -10 510 -10 q 297 -10 314 -10 q 124 90 165 -8 q 101 220 101 143 q 117 377 101 297 q 144 500 132 457 q 174 587 156 543 q 219 658 193 631 q 282 708 244 686 q 489 751 353 751 l 490 751 m 249 397 q 314 393 288 393 q 353 393 340 393 q 398 396 365 393 q 460 403 431 399 q 519 419 489 408 q 571 443 549 429 q 633 560 633 485 q 608 614 633 601 q 483 633 568 633 q 321 583 367 633 q 278 514 288 547 q 258 444 264 474 q 251 411 251 414 q 249 397 250 403 z "},"f":{"ha":560,"x_min":124,"x_max":701,"o":"m 531 1090 q 597 1083 561 1090 q 701 1057 661 1072 l 689 976 l 542 976 l 542 976 q 486 969 507 976 q 451 936 465 961 q 413 788 429 900 l 404 738 l 619 738 l 601 622 l 385 622 l 282 0 l 154 0 l 256 622 l 124 622 l 139 711 l 276 738 l 288 800 q 347 1003 310 944 q 531 1090 403 1090 z "},"g":{"ha":769,"x_min":44,"x_max":806,"o":"m 404 -260 q 515 -201 476 -260 q 543 -128 536 -171 l 569 43 q 350 -10 446 -10 q 203 21 254 -10 q 132 106 153 51 q 108 243 108 168 q 122 390 108 318 q 231 656 150 565 q 438 747 313 747 q 804 713 563 747 l 671 -133 q 578 -321 650 -262 q 421 -379 507 -379 q 392 -378 407 -379 l 44 -344 l 58 -260 l 404 -260 m 247 351 q 241 317 247 351 q 236 254 236 283 q 238 211 236 225 q 246 174 239 197 q 265 138 253 150 q 356 106 296 106 q 462 112 417 106 q 585 139 507 118 l 664 632 l 439 632 q 331 579 372 632 q 276 485 290 528 q 247 351 257 418 z "},"h":{"ha":757,"x_min":78,"x_max":779,"o":"m 743 681 q 778 558 778 628 q 774 508 778 535 l 693 0 l 565 0 l 646 508 q 649 552 649 525 q 626 606 649 579 q 543 633 604 633 q 432 617 482 633 q 294 558 382 600 l 206 0 l 78 0 l 250 1089 l 378 1089 l 308 653 q 348 675 315 657 q 410 707 381 693 q 597 750 497 750 q 743 681 696 750 z "},"i":{"ha":282,"x_min":76,"x_max":368,"o":"m 76 0 l 193 738 l 321 738 l 204 0 l 76 0 m 250 976 l 340 976 q 368 950 368 976 q 367 942 368 946 l 354 853 q 317 821 349 821 l 226 821 q 203 830 211 821 q 199 853 196 839 l 211 942 q 250 976 217 976 z "},"j":{"ha":311,"x_min":31,"x_max":383,"o":"m 32 -375 l 208 738 l 336 738 l 218 -6 q 119 -375 185 -229 l 32 -375 m 356 976 q 383 949 383 976 q 382 942 383 944 l 368 853 q 331 821 364 821 l 240 821 q 218 830 226 821 q 213 853 210 839 l 226 942 q 265 976 232 976 l 356 976 z "},"k":{"ha":696,"x_min":78,"x_max":751,"o":"m 78 0 l 250 1086 l 378 1086 l 276 447 q 481 568 371 476 q 610 738 592 660 l 750 738 q 622 535 719 631 q 442 400 525 439 l 706 0 l 556 0 l 317 363 l 264 361 l 206 0 l 78 0 z "},"l":{"ha":408,"x_min":110,"x_max":399,"o":"m 281 0 q 111 182 111 0 q 118 263 111 219 l 249 1088 l 376 1088 l 247 271 q 254 138 229 163 q 332 107 268 124 q 397 90 396 90 l 383 0 l 281 0 z "},"m":{"ha":1238,"x_min":78,"x_max":1258,"o":"m 583 746 q 612 746 583 746 q 690 714 640 746 q 754 632 739 682 q 1067 746 915 746 q 1218 678 1164 746 q 1258 553 1258 626 q 1254 503 1258 529 l 1174 0 l 1046 0 l 1126 504 q 1128 544 1128 518 q 1104 599 1128 569 q 1032 629 1081 629 q 897 613 953 629 q 774 557 840 597 q 769 528 774 556 q 765 500 765 501 l 686 0 l 558 0 l 638 504 q 640 529 640 518 q 616 599 640 569 q 543 629 592 629 q 452 619 494 629 q 384 598 410 610 q 293 556 358 586 l 206 0 l 78 0 l 194 738 l 290 738 l 308 651 q 345 671 321 657 q 381 691 369 685 q 415 708 393 697 q 452 724 436 719 q 489 736 468 729 q 583 746 526 746 z "},"n":{"ha":757,"x_min":78,"x_max":779,"o":"m 588 750 q 743 681 696 750 q 778 558 778 628 q 774 508 778 535 l 693 0 l 565 0 l 646 508 q 649 552 649 525 q 626 606 649 579 q 543 633 604 633 q 432 617 482 633 q 294 558 382 600 l 206 0 l 78 0 l 194 738 l 290 738 l 308 653 q 334 668 314 657 q 360 682 354 679 q 385 695 367 685 q 413 708 404 706 q 438 719 421 711 q 466 730 456 726 q 493 738 476 733 q 524 744 510 743 q 588 750 561 750 z "},"o":{"ha":781,"x_min":108,"x_max":788,"o":"m 506 744 q 744 650 681 744 q 786 478 786 586 q 775 353 786 422 q 663 69 742 146 q 403 -7 585 -7 q 154 79 221 -7 q 110 249 110 138 q 124 389 110 300 q 165 551 138 478 q 239 667 192 624 q 348 728 286 711 q 506 744 410 744 m 275 479 q 236 236 236 358 q 264 150 236 188 q 408 111 293 110 q 531 128 493 111 q 586 172 568 144 q 620 244 604 199 q 647 358 636 290 q 660 477 660 432 q 652 552 660 522 q 622 599 644 582 q 568 622 599 615 q 490 628 538 628 q 413 623 443 628 q 355 603 383 618 q 308 558 326 588 q 275 479 290 528 z "},"p":{"ha":775,"x_min":18,"x_max":782,"o":"m 561 742 q 670 718 625 742 q 739 656 715 694 q 781 468 781 586 q 707 135 781 269 q 465 -11 626 -11 q 337 2 410 -11 q 213 40 264 15 l 144 -375 l 18 -375 l 201 719 q 561 742 357 742 m 399 103 q 438 103 399 103 q 509 117 476 103 q 567 157 542 132 q 644 368 618 208 q 654 471 654 426 q 542 626 654 626 l 311 626 l 229 138 q 399 103 322 103 z "},"q":{"ha":768,"x_min":108,"x_max":804,"o":"m 442 747 q 804 713 563 747 l 632 -375 l 504 -375 l 569 40 q 349 -14 443 -14 q 204 15 254 -14 q 133 97 154 44 q 110 234 110 160 q 122 378 110 308 q 442 747 181 747 m 247 358 q 241 315 247 358 q 235 247 235 272 q 237 198 235 222 q 244 163 239 174 q 258 138 250 151 q 279 118 267 124 q 353 103 310 103 q 429 106 397 103 q 586 136 489 110 l 664 632 l 433 632 q 365 613 396 632 q 316 566 335 593 q 282 501 297 539 q 247 358 260 443 z "},"r":{"ha":589,"x_min":78,"x_max":678,"o":"m 405 699 q 420 707 405 699 q 485 731 435 715 q 596 746 535 746 q 678 735 657 746 l 657 610 q 551 617 622 617 q 426 599 481 617 q 290 536 371 582 l 206 0 l 78 0 l 194 738 l 292 738 l 307 644 q 344 665 313 647 q 405 699 375 683 z "},"s":{"ha":706,"x_min":85,"x_max":731,"o":"m 472 106 q 551 174 540 106 l 563 238 q 565 263 565 249 q 554 292 565 278 q 504 307 543 307 l 310 307 q 160 351 207 307 q 126 449 126 385 q 131 497 126 471 l 142 567 q 208 705 157 660 q 348 750 258 750 q 560 742 438 750 q 731 724 683 733 l 715 633 l 361 633 q 274 583 292 633 q 268 560 271 574 l 258 499 q 271 435 250 446 q 305 427 286 426 q 328 428 324 428 l 526 428 q 661 375 618 428 q 694 278 694 335 q 692 242 694 260 l 679 154 q 632 43 668 81 q 563 -1 596 7 q 456 -12 514 -12 q 260 -2 399 -12 q 86 17 121 8 l 100 106 l 472 106 z "},"t":{"ha":524,"x_min":121,"x_max":603,"o":"m 360 0 q 192 182 192 0 q 199 263 192 219 l 254 624 l 122 624 l 136 710 l 274 739 l 332 944 l 433 944 l 401 739 l 603 739 l 583 624 l 382 624 l 326 271 q 335 138 311 163 q 411 106 347 124 q 478 89 475 89 l 465 0 l 360 0 z "},"u":{"ha":756,"x_min":97,"x_max":797,"o":"m 229 229 q 226 180 226 208 q 248 128 226 151 q 331 106 269 106 q 443 122 393 106 q 582 181 493 138 l 669 738 l 797 738 l 681 0 l 585 0 l 565 83 q 529 63 561 81 q 468 31 497 46 q 279 -12 381 -12 q 132 56 178 -12 q 97 175 97 104 q 101 231 97 201 l 182 738 l 310 738 l 229 229 z "},"v":{"ha":722,"x_min":126,"x_max":779,"o":"m 769 738 q 778 672 778 710 q 754 586 778 635 l 450 0 l 292 0 l 126 738 l 261 738 l 388 151 l 624 615 q 661 738 653 676 l 769 738 z "},"w":{"ha":1119,"x_min":126,"x_max":1179,"o":"m 758 735 q 767 671 767 706 q 749 596 767 636 l 713 515 l 782 164 l 1028 615 q 1065 738 1057 676 l 1169 738 q 1178 669 1178 707 q 1154 586 1178 631 l 828 0 l 696 0 l 622 360 l 436 0 l 292 0 l 126 738 l 257 738 l 381 157 l 617 611 q 656 735 647 672 l 758 735 z "},"x":{"ha":746,"x_min":31,"x_max":832,"o":"m 31 0 l 354 375 l 147 738 l 297 738 l 443 471 l 671 738 l 832 738 l 508 357 l 710 0 l 563 0 l 418 260 l 197 0 l 31 0 z "},"y":{"ha":767,"x_min":126,"x_max":825,"o":"m 817 740 q 824 675 824 714 q 799 583 824 636 l 510 1 q 331 -270 421 -181 q 133 -381 242 -360 l 133 -290 q 264 -170 211 -242 q 368 0 317 -99 q 275 29 319 0 q 206 163 219 65 l 126 738 l 260 738 l 336 178 q 422 124 346 119 q 425 124 425 124 l 671 617 q 706 740 694 667 l 817 740 z "},"z":{"ha":639,"x_min":60,"x_max":719,"o":"m 60 1 l 75 121 l 531 618 l 139 618 l 156 738 l 718 738 l 701 618 l 256 121 l 619 121 l 601 1 l 60 1 z "},"{":{"ha":444,"x_min":89,"x_max":604,"o":"m 265 -68 q 379 -187 265 -187 q 390 -186 385 -187 l 372 -304 q 245 -279 297 -304 q 171 -212 193 -254 q 135 -74 135 -149 q 142 -11 135 -42 l 196 324 q 197 336 197 329 q 168 389 197 368 q 100 410 139 410 q 90 408 96 410 l 107 517 q 126 517 113 517 q 147 517 139 517 q 167 519 154 518 q 187 522 179 519 q 204 529 194 525 q 219 540 214 533 q 238 578 233 556 l 289 906 q 603 1157 329 1157 l 585 1038 q 581 1038 582 1038 q 469 1003 511 1038 q 413 882 426 968 l 365 575 q 317 493 356 524 q 222 454 279 463 q 318 388 294 442 q 326 356 326 369 q 325 332 326 342 l 271 -3 q 265 -68 265 -39 z "},"|":{"ha":340,"x_min":94,"x_max":400,"o":"m 94 -100 l 279 1069 l 399 1069 l 214 -100 l 94 -100 z "},"}":{"ha":439,"x_min":-21,"x_max":496,"o":"m 318 918 q 204 1038 318 1038 q 193 1038 199 1038 l 213 1157 q 386 1094 331 1157 q 444 940 444 1031 q 440 861 444 901 l 389 538 q 418 471 382 494 q 494 451 451 449 l 478 344 q 461 343 475 343 q 442 343 447 343 q 425 342 438 343 q 407 340 413 342 q 391 335 401 338 q 375 328 381 332 q 363 317 369 324 q 347 282 351 306 l 293 -51 q 197 -241 272 -178 q -19 -304 121 -304 l -1 -186 q 3 -187 1 -187 q 113 -153 71 -187 q 169 -35 156 -118 l 221 286 q 267 365 229 335 q 361 407 304 396 q 283 444 308 414 q 258 508 258 474 q 260 529 258 518 l 311 850 q 318 918 318 889 z "},"~":{"ha":600,"x_min":190,"x_max":669,"o":"m 291 874 q 301 880 291 874 q 330 891 311 886 q 375 896 349 896 q 442 872 401 896 q 502 847 482 847 q 536 850 522 847 q 560 856 550 853 q 585 866 569 858 q 606 877 600 874 q 628 890 611 881 q 647 903 644 900 l 668 838 q 642 815 667 836 q 608 785 618 793 q 576 764 599 778 q 499 738 538 738 q 417 762 461 738 q 349 786 374 786 q 303 780 324 786 q 255 759 283 774 q 211 738 226 744 l 190 800 q 224 827 200 807 q 260 855 249 847 q 291 874 271 863 z "},"¡":{"ha":378,"x_min":53,"x_max":358,"o":"m 54 -374 l 188 364 l 307 364 l 207 -374 l 54 -374 m 196 522 l 210 610 q 249 642 214 639 l 331 642 q 351 630 343 640 q 358 606 360 619 l 344 522 q 311 486 338 493 l 221 486 q 196 522 193 489 z "},"¢":{"ha":678,"x_min":96,"x_max":728,"o":"m 233 694 q 246 707 233 694 q 292 731 258 719 q 351 745 326 743 q 394 747 375 747 q 428 747 413 747 l 450 881 l 543 881 l 521 740 q 728 706 638 726 l 713 619 q 461 629 538 629 q 367 626 385 629 q 328 610 350 624 q 293 568 307 596 q 235 364 260 503 q 221 235 221 282 q 235 160 221 188 q 325 108 261 108 q 594 119 444 108 l 644 122 l 629 33 q 401 -7 524 -1 l 383 -133 l 289 -133 l 308 -8 q 135 78 192 -7 q 96 238 96 133 q 109 379 96 297 q 141 524 122 461 q 184 628 160 588 q 233 694 208 669 z "},"£":{"ha":822,"x_min":64,"x_max":915,"o":"m 867 1000 l 915 994 l 899 894 l 640 894 q 535 888 574 894 q 469 858 497 881 q 426 799 440 836 q 401 697 411 763 l 378 550 l 731 528 l 719 453 l 363 453 l 311 124 l 776 124 l 757 0 l 65 0 l 81 100 l 183 124 l 235 451 l 136 451 l 147 525 l 250 550 l 274 699 q 386 954 304 889 q 442 989 417 976 q 506 1007 467 1001 q 642 1017 563 1017 q 867 1000 721 1017 z "},"¤":{"ha":639,"x_min":106,"x_max":669,"o":"m 611 461 q 553 296 611 365 l 613 224 l 543 167 l 486 236 q 358 201 433 201 q 232 242 282 201 l 158 179 l 106 247 l 179 310 q 154 407 154 358 q 157 436 154 422 q 206 558 168 513 l 153 621 l 221 675 l 271 617 q 413 657 335 657 q 540 614 490 657 l 618 679 l 668 614 l 592 547 q 611 461 611 506 m 246 410 q 275 331 246 368 q 363 293 306 293 q 500 376 458 293 q 522 457 522 418 q 494 532 522 496 q 406 568 465 568 q 299 529 340 568 q 246 410 246 481 z "},"¥":{"ha":847,"x_min":151,"x_max":982,"o":"m 153 207 l 167 297 l 385 297 l 394 361 l 176 361 l 192 453 l 390 453 l 186 1017 l 322 1017 l 483 556 l 828 1017 l 981 1017 l 551 453 l 785 453 l 769 361 l 522 361 l 513 297 l 760 297 l 746 207 l 501 207 l 474 0 l 346 0 l 374 207 l 153 207 z "},"¦":{"ha":342,"x_min":94,"x_max":400,"o":"m 94 -100 l 167 356 l 286 356 l 214 -100 l 94 -100 m 204 596 l 279 1069 l 399 1069 l 324 596 l 204 596 z "},"§":{"ha":761,"x_min":124,"x_max":806,"o":"m 328 808 q 390 761 328 761 l 618 761 q 747 717 708 761 q 785 617 785 674 q 782 583 785 600 l 769 507 q 686 378 753 390 q 733 293 733 363 q 729 254 733 276 l 715 158 q 651 22 699 56 q 496 -11 603 -11 q 303 -1 438 -11 q 124 15 168 8 l 139 108 l 497 108 q 560 119 538 108 q 588 165 582 131 l 601 253 q 603 279 603 264 q 591 304 603 294 q 538 314 579 314 l 317 314 q 187 353 229 314 q 144 451 144 392 q 149 489 144 468 l 160 564 q 188 652 169 619 q 250 697 207 685 q 199 793 199 731 q 201 824 199 808 l 214 913 q 426 1089 242 1089 q 622 1079 483 1089 q 806 1063 761 1069 l 792 969 l 424 969 q 368 956 388 969 q 342 906 349 942 l 329 822 q 328 808 328 814 m 276 496 q 275 466 275 482 q 287 440 275 450 q 339 431 299 431 l 553 431 q 608 440 589 431 q 631 461 626 450 q 640 497 636 472 l 653 574 q 656 605 656 594 q 650 625 656 615 q 588 644 640 644 l 374 644 q 313 631 329 644 q 289 571 296 617 l 276 496 z "},"¨":{"ha":629,"x_min":192,"x_max":694,"o":"m 208 844 q 215 853 208 844 q 240 871 221 861 q 283 881 258 881 q 324 862 308 881 q 340 829 340 843 q 313 758 340 782 q 255 735 285 735 q 208 754 225 735 q 192 788 192 774 q 194 815 192 803 q 208 844 196 828 m 574 858 q 588 869 574 858 q 632 881 601 881 q 678 862 663 881 q 694 829 694 843 q 667 758 694 782 q 609 735 639 735 q 563 754 579 735 q 546 788 546 774 q 574 858 546 835 z "},"©":{"ha":1114,"x_min":138,"x_max":1144,"o":"m 554 1017 l 903 1017 q 1088 926 1033 1017 q 1143 694 1143 832 q 1079 307 1143 490 q 754 0 974 0 l 406 0 q 274 38 329 0 q 192 132 219 75 q 139 389 139 240 q 197 724 139 553 q 554 1017 297 1017 m 247 511 q 236 415 236 451 q 239 333 236 378 q 258 228 242 288 q 314 133 274 169 q 411 97 354 97 l 764 97 q 925 203 853 97 q 1040 586 1007 322 q 1047 689 1047 651 q 1046 751 1047 726 q 1035 810 1044 775 q 1010 868 1026 846 q 900 919 972 919 l 539 919 q 297 714 374 919 q 247 511 267 631 m 485 407 q 571 301 485 301 q 824 324 674 301 l 811 243 q 549 204 681 204 q 414 279 458 204 q 386 391 386 328 q 398 526 386 454 q 434 659 410 599 q 490 751 458 719 q 642 810 551 810 q 886 776 733 810 l 874 696 q 635 713 758 713 q 544 662 579 713 q 497 530 510 611 q 485 407 485 449 z "},"ª":{"ha":511,"x_min":96,"x_max":613,"o":"m 97 369 l 110 456 l 539 456 l 525 369 l 97 369 m 271 989 q 285 997 271 989 q 321 1009 300 1004 q 360 1016 342 1014 q 408 1018 379 1018 q 509 1002 438 1018 q 613 956 581 986 l 549 526 l 488 526 l 472 601 q 397 547 447 572 q 306 521 346 521 q 237 533 265 521 q 182 576 208 546 q 144 706 144 618 q 152 790 144 740 q 179 883 160 840 q 220 950 199 926 q 271 989 242 974 m 243 713 q 319 619 243 619 q 396 636 360 619 q 479 688 432 653 l 510 910 q 414 926 447 926 q 364 922 381 926 q 336 914 347 918 q 310 899 325 910 q 283 871 294 888 q 251 783 258 832 q 243 713 243 735 z "},"«":{"ha":781,"x_min":142,"x_max":818,"o":"m 143 492 l 474 774 l 544 690 l 300 482 l 476 275 l 390 203 l 143 492 m 417 492 l 747 774 l 818 690 l 574 482 l 750 275 l 664 203 l 417 492 z "},"¬":{"ha":718,"x_min":117,"x_max":731,"o":"m 729 467 l 690 221 l 574 221 l 593 350 l 118 350 l 136 467 l 729 467 z "},"­":{"ha":492,"x_min":81,"x_max":538,"o":"m 82 343 l 101 463 l 538 463 l 518 343 l 82 343 z "},"®":{"ha":1114,"x_min":138,"x_max":1144,"o":"m 554 1017 l 903 1017 q 1088 926 1033 1017 q 1143 694 1143 832 q 1079 307 1143 490 q 754 0 974 0 l 406 0 q 274 38 329 0 q 192 132 219 75 q 139 389 139 240 q 197 724 139 553 q 554 1017 297 1017 m 247 511 q 236 415 236 451 q 239 333 236 378 q 258 228 242 288 q 314 133 274 169 q 411 97 354 97 l 764 97 q 925 203 853 97 q 1040 586 1007 322 q 1047 689 1047 651 q 1046 751 1047 726 q 1035 810 1044 775 q 1010 868 1026 846 q 900 919 972 919 l 539 919 q 297 714 374 919 q 247 511 267 631 m 729 806 q 843 769 794 806 q 889 656 889 736 q 861 524 889 586 q 833 483 851 500 q 798 460 814 467 q 775 453 782 454 q 751 448 768 451 q 732 444 735 444 l 819 213 l 708 213 l 622 444 l 526 461 l 486 213 l 388 213 l 482 806 l 729 806 m 686 531 q 758 549 739 531 q 786 625 778 567 q 789 651 789 639 q 786 676 789 663 q 769 697 783 689 q 714 708 749 708 l 565 708 l 538 531 l 686 531 z "},"¯":{"ha":535,"x_min":181,"x_max":603,"o":"m 182 738 l 196 831 l 601 831 l 588 738 l 182 738 z "},"°":{"ha":407,"x_min":200,"x_max":483,"o":"m 244 978 q 265 999 244 978 q 344 1019 286 1019 q 443 978 403 1019 q 483 881 483 938 q 442 778 483 819 q 341 738 400 738 q 242 778 282 738 q 201 877 201 818 q 244 978 201 936 m 394 929 q 384 940 394 929 q 344 950 374 950 q 292 928 314 950 q 271 878 271 907 q 292 828 271 849 q 342 807 313 807 q 393 828 372 807 q 414 878 414 849 q 394 929 414 908 z "},"±":{"ha":721,"x_min":89,"x_max":754,"o":"m 90 114 l 110 233 l 688 233 l 668 114 l 90 114 m 157 536 l 175 656 l 403 656 l 439 883 l 558 883 l 522 656 l 753 656 l 735 536 l 504 536 l 467 306 l 347 306 l 385 536 l 157 536 z "},"²":{"ha":539,"x_min":100,"x_max":622,"o":"m 440 841 q 455 857 440 841 q 488 906 471 874 q 510 960 506 938 q 514 1004 514 982 q 497 1046 514 1026 q 422 1065 481 1065 l 188 1065 q 199 1136 183 1065 l 200 1144 q 461 1167 368 1167 q 563 1131 522 1167 q 622 999 622 1078 q 569 844 622 921 q 471 726 517 767 q 369 644 425 686 q 308 594 314 601 l 558 594 l 543 494 l 101 494 l 117 589 q 168 624 126 596 q 236 670 210 651 q 306 722 263 689 q 379 781 350 754 q 440 841 408 808 z "},"³":{"ha":563,"x_min":103,"x_max":625,"o":"m 364 489 l 322 489 q 166 497 204 489 q 103 514 128 504 l 117 588 l 356 589 q 465 667 453 589 l 471 694 q 472 714 472 704 q 390 781 472 778 l 201 788 l 215 869 l 407 876 q 514 957 503 881 l 518 985 q 519 1013 519 996 q 503 1045 519 1031 q 436 1060 488 1060 l 185 1060 l 196 1133 q 400 1160 274 1160 q 476 1160 436 1160 q 589 1115 554 1158 q 624 1021 624 1071 q 622 993 624 1007 l 614 946 q 582 863 606 897 q 526 818 558 828 q 575 718 575 789 q 574 689 575 704 l 568 653 q 509 530 556 571 q 368 489 463 489 q 364 489 367 489 z "},"´":{"ha":336,"x_min":142,"x_max":457,"o":"m 143 738 l 314 925 l 457 925 l 247 738 l 143 738 z "},"µ":{"ha":822,"x_min":57,"x_max":850,"o":"m 281 229 q 278 185 278 213 q 300 132 278 158 q 383 106 322 106 q 494 122 444 106 q 632 181 544 138 l 721 738 l 849 738 l 732 0 l 638 0 l 618 83 q 590 69 610 79 q 562 54 571 58 q 535 41 553 50 q 507 27 518 32 q 479 16 496 22 q 449 6 463 10 q 421 -1 436 3 q 247 18 317 -26 l 185 -375 l 57 -375 l 233 738 l 361 738 l 281 229 z "},"¶":{"ha":804,"x_min":157,"x_max":942,"o":"m 429 1017 l 940 1017 l 922 900 l 832 900 l 690 0 l 576 0 l 719 903 l 600 903 l 397 -375 l 283 -375 l 425 517 q 414 512 424 517 q 394 504 404 507 q 327 493 367 493 q 247 513 288 493 q 161 628 178 546 q 158 665 158 647 q 160 697 158 682 l 179 826 q 429 1017 210 1017 m 275 700 q 274 672 274 686 q 279 642 274 658 q 301 618 285 626 q 361 606 328 606 l 439 606 l 486 907 l 414 907 q 310 863 335 907 q 293 813 297 843 l 275 700 z "},"·":{"ha":372,"x_min":185,"x_max":357,"o":"m 239 613 l 325 613 q 356 588 356 613 q 354 578 356 583 l 340 486 q 301 454 335 454 l 215 454 q 192 463 200 454 q 186 486 183 472 l 200 578 q 239 613 206 613 z "},"¸":{"ha":346,"x_min":25,"x_max":275,"o":"m 99 -242 l 26 -242 l 36 -182 l 108 -161 q 151 -124 138 -150 q 171 -51 164 -97 l 274 -51 q 221 -200 257 -158 q 99 -242 183 -242 z "},"¹":{"ha":385,"x_min":157,"x_max":463,"o":"m 158 999 l 169 1069 q 258 1092 211 1069 q 361 1160 332 1126 l 461 1160 l 356 494 l 253 494 l 340 1042 q 269 1012 318 1025 q 158 999 221 999 z "},"º":{"ha":538,"x_min":113,"x_max":629,"o":"m 113 374 l 126 458 l 558 458 l 546 374 l 113 374 m 594 965 q 628 843 628 925 q 619 748 628 806 q 594 647 610 690 q 547 574 578 604 q 363 517 492 517 q 186 576 233 517 q 154 694 154 618 q 160 767 154 728 q 238 968 183 914 q 419 1024 293 1024 q 594 965 546 1024 m 315 906 q 305 898 315 906 q 283 856 294 890 q 263 772 271 822 q 256 698 256 722 q 262 658 256 674 q 274 633 268 643 q 299 619 281 624 q 363 613 326 613 q 410 613 399 613 q 444 622 422 614 q 476 644 465 629 q 528 850 528 710 q 482 924 528 914 q 415 928 456 928 q 355 924 374 928 q 315 906 336 921 z "},"»":{"ha":776,"x_min":108,"x_max":790,"o":"m 110 288 l 354 497 l 181 700 l 265 774 l 511 486 l 182 203 l 110 288 m 388 288 l 633 497 l 458 700 l 543 774 l 790 486 l 460 203 l 388 288 z "},"¼":{"ha":1278,"x_min":157,"x_max":1293,"o":"m 158 860 l 169 931 q 258 953 211 931 q 361 1021 332 988 l 461 1021 l 356 356 l 253 356 l 340 903 q 269 873 318 886 q 158 860 221 860 m 246 0 l 1042 1069 l 1143 1069 l 347 0 l 246 0 m 736 200 l 1085 663 l 1204 663 l 908 263 l 1113 263 l 1138 424 l 1186 492 l 1251 492 l 1215 263 l 1293 263 l 1279 178 l 1199 158 l 1174 0 l 1071 0 l 1096 158 l 763 158 l 736 200 z "},"½":{"ha":1378,"x_min":157,"x_max":1406,"o":"m 158 860 l 169 931 q 258 953 211 931 q 361 1021 332 988 l 461 1021 l 356 356 l 253 356 l 340 903 q 269 873 318 886 q 158 860 221 860 m 233 0 l 1029 1069 l 1131 1069 l 335 0 l 233 0 m 1222 347 q 1238 363 1222 347 q 1271 411 1253 379 q 1292 465 1289 443 q 1296 510 1296 488 q 1280 551 1296 532 q 1206 571 1264 571 l 971 571 q 979 631 968 571 l 983 650 q 1244 672 1150 672 q 1344 636 1306 672 q 1406 504 1406 583 q 1353 349 1406 426 q 1254 232 1300 272 q 1153 149 1208 192 q 1090 100 1097 107 l 1342 100 l 1325 0 l 885 0 l 899 94 q 951 129 908 101 q 1019 176 993 157 q 1090 227 1046 194 q 1163 287 1133 260 q 1222 347 1192 314 z "},"¾":{"ha":1436,"x_min":103,"x_max":1411,"o":"m 526 679 q 575 579 575 650 q 574 550 575 565 l 568 514 q 509 391 556 432 q 368 350 463 350 q 363 350 367 350 q 331 350 358 350 q 297 350 304 350 q 267 350 290 350 q 236 351 244 350 q 209 353 228 351 q 181 356 190 354 q 156 361 171 358 q 103 375 131 365 l 117 449 l 356 450 q 465 528 453 450 l 471 556 q 472 575 472 565 q 390 642 472 639 l 201 649 l 215 731 l 407 738 q 514 818 503 742 l 518 846 q 519 874 519 857 q 503 906 519 892 q 436 921 488 921 l 185 921 l 196 994 q 400 1021 274 1021 q 476 1021 436 1021 q 589 976 554 1019 q 624 882 624 932 q 622 854 624 868 l 614 807 q 582 724 606 758 q 526 679 558 689 m 383 0 l 1179 1069 l 1281 1069 l 485 0 l 383 0 m 856 200 l 1204 663 l 1322 663 l 1026 263 l 1232 263 l 1257 424 l 1306 492 l 1371 492 l 1335 263 l 1411 263 l 1399 178 l 1318 158 l 1293 0 l 1190 0 l 1215 158 l 882 158 l 856 200 z "},"¿":{"ha":747,"x_min":28,"x_max":686,"o":"m 459 -371 q 445 -372 459 -371 q 415 -374 431 -374 q 377 -376 399 -375 q 335 -376 356 -376 q 274 -375 314 -376 q 76 -296 139 -375 q 29 -157 29 -236 q 33 -108 29 -133 l 54 21 q 178 221 78 172 q 333 253 244 253 q 421 244 376 253 l 443 381 l 561 381 l 524 143 q 415 144 461 144 q 324 143 368 144 q 235 110 279 142 q 181 15 190 79 l 161 -107 q 157 -146 157 -128 q 188 -226 157 -197 q 317 -254 218 -254 l 685 -254 l 671 -344 q 626 -351 665 -346 q 581 -358 588 -357 q 541 -362 574 -358 q 498 -367 508 -367 q 459 -371 488 -368 m 504 651 l 593 651 q 616 643 608 651 q 622 619 624 635 l 608 528 q 569 493 603 493 l 481 493 q 453 519 453 493 q 454 528 453 524 l 468 619 q 504 651 472 651 z "},"À":{"ha":926,"x_min":58,"x_max":908,"o":"m 450 1294 l 582 1294 l 719 1107 l 615 1107 l 450 1294 m 58 0 l 585 1017 l 719 1017 l 908 0 l 778 0 l 728 268 l 338 268 l 199 0 l 58 0 m 399 389 l 708 389 l 629 843 l 399 389 z "},"Á":{"ha":926,"x_min":58,"x_max":929,"o":"m 615 1107 l 786 1294 l 929 1294 l 719 1107 l 615 1107 m 58 0 l 585 1017 l 719 1017 l 908 0 l 778 0 l 728 268 l 338 268 l 199 0 l 58 0 m 399 389 l 708 389 l 629 843 l 399 389 z "},"Â":{"ha":926,"x_min":58,"x_max":908,"o":"m 461 1107 l 649 1289 l 760 1289 l 872 1107 l 772 1107 l 699 1215 l 581 1107 l 461 1107 m 58 0 l 585 1017 l 719 1017 l 908 0 l 778 0 l 728 268 l 338 268 l 199 0 l 58 0 m 399 389 l 708 389 l 629 843 l 399 389 z "},"Ã":{"ha":926,"x_min":58,"x_max":918,"o":"m 624 1259 q 641 1259 624 1259 q 699 1236 657 1258 q 750 1213 740 1214 q 772 1213 760 1213 q 834 1232 785 1213 q 897 1261 883 1251 l 918 1196 q 885 1172 908 1189 q 849 1147 863 1156 q 817 1128 836 1139 q 686 1121 749 1090 q 641 1144 661 1133 q 600 1156 621 1156 q 558 1150 579 1156 q 526 1140 538 1144 q 492 1123 514 1135 q 461 1107 469 1111 l 440 1169 q 552 1243 513 1226 q 624 1259 592 1260 m 58 0 l 585 1017 l 719 1017 l 908 0 l 778 0 l 728 268 l 338 268 l 199 0 l 58 0 m 399 389 l 708 389 l 629 843 l 399 389 z "},"Ä":{"ha":926,"x_min":58,"x_max":931,"o":"m 456 1230 q 469 1241 456 1230 q 514 1253 483 1253 q 560 1234 544 1253 q 576 1201 576 1215 q 549 1131 576 1156 q 490 1107 521 1107 q 444 1126 460 1107 q 428 1161 428 1146 q 456 1230 428 1207 m 810 1230 q 824 1241 810 1230 q 868 1253 838 1253 q 915 1234 899 1253 q 931 1201 931 1215 q 903 1131 931 1156 q 844 1107 875 1107 q 798 1126 814 1107 q 782 1161 782 1146 q 810 1230 782 1207 m 58 0 l 585 1017 l 719 1017 l 908 0 l 778 0 l 728 268 l 338 268 l 199 0 l 58 0 m 399 389 l 708 389 l 629 843 l 399 389 z "},"Å":{"ha":926,"x_min":58,"x_max":908,"o":"m 781 1258 q 764 1278 781 1258 q 688 1297 746 1297 q 581 1253 629 1297 q 533 1142 533 1210 q 569 1053 533 1092 q 663 1014 604 1014 q 769 1058 722 1014 q 817 1169 817 1101 q 781 1258 817 1219 m 627 1205 q 639 1216 627 1205 q 681 1228 651 1228 q 728 1208 711 1228 q 746 1163 746 1188 q 706 1094 746 1117 q 664 1085 689 1085 q 621 1104 639 1085 q 603 1153 603 1124 q 627 1205 603 1182 m 58 0 l 585 1017 l 719 1017 l 908 0 l 778 0 l 728 268 l 338 268 l 199 0 l 58 0 m 399 389 l 708 389 l 629 843 l 399 389 z "},"Æ":{"ha":1314,"x_min":39,"x_max":1392,"o":"m 868 1018 l 924 1017 q 1152 1007 938 1017 q 1390 994 1367 997 l 1375 890 l 946 890 q 882 867 897 890 q 864 817 871 849 l 824 563 l 1263 549 l 1246 446 l 803 432 l 764 190 q 783 126 756 138 q 840 118 804 118 l 1253 118 l 1235 17 l 807 -7 q 782 -7 800 -7 q 735 1 764 -7 q 631 135 631 28 q 633 168 631 151 l 653 307 l 385 307 l 185 0 l 39 0 l 579 828 q 732 983 656 944 q 868 1018 800 1018 m 463 428 l 674 428 l 744 856 l 463 428 z "},"Ç":{"ha":800,"x_min":139,"x_max":913,"o":"m 322 943 q 430 1005 367 982 q 606 1028 493 1028 q 911 983 718 1028 l 896 883 q 600 904 738 904 q 578 904 586 904 q 558 904 569 904 q 535 903 546 904 q 504 899 525 903 q 469 889 483 896 q 435 868 456 882 q 399 835 414 854 q 367 785 385 815 q 335 717 349 756 q 287 524 303 626 q 271 374 271 421 q 272 308 271 328 q 319 172 278 224 q 439 115 361 121 q 533 114 464 114 q 779 126 601 114 l 765 25 q 432 -8 647 -8 q 199 104 265 -8 q 140 356 140 201 q 192 696 140 508 q 322 943 239 867 m 331 -242 l 257 -242 l 267 -182 l 340 -161 q 382 -126 369 -153 q 403 -51 394 -99 l 506 -51 q 475 -164 494 -124 q 422 -223 456 -204 q 331 -242 388 -242 z "},"È":{"ha":785,"x_min":125,"x_max":885,"o":"m 386 1286 l 519 1286 l 656 1100 l 551 1100 l 386 1286 m 435 1017 q 651 1007 442 1017 q 883 994 860 997 l 868 892 l 442 892 q 364 843 381 892 q 357 814 360 831 l 318 569 l 757 556 l 740 453 l 299 439 l 258 193 q 279 129 251 140 q 335 121 300 121 l 747 121 l 729 19 l 301 -4 q 276 -4 294 -4 q 228 4 258 -4 q 126 142 126 32 q 129 181 126 161 l 232 831 q 435 1017 263 1017 z "},"É":{"ha":785,"x_min":125,"x_max":885,"o":"m 547 1100 l 718 1286 l 861 1286 l 650 1100 l 547 1100 m 435 1017 q 651 1007 442 1017 q 883 994 860 997 l 868 892 l 442 892 q 364 843 381 892 q 357 814 360 831 l 318 569 l 757 556 l 740 453 l 299 439 l 258 193 q 279 129 251 140 q 335 121 300 121 l 747 121 l 729 19 l 301 -4 q 276 -4 294 -4 q 228 4 258 -4 q 126 142 126 32 q 129 181 126 161 l 232 831 q 435 1017 263 1017 z "},"Ê":{"ha":785,"x_min":125,"x_max":885,"o":"m 392 1100 l 581 1283 l 692 1283 l 804 1100 l 700 1100 l 632 1206 l 519 1100 l 392 1100 m 435 1017 q 651 1007 442 1017 q 883 994 860 997 l 868 892 l 442 892 q 364 843 381 892 q 357 814 360 831 l 318 569 l 757 556 l 740 453 l 299 439 l 258 193 q 279 129 251 140 q 335 121 300 121 l 747 121 l 729 19 l 301 -4 q 276 -4 294 -4 q 228 4 258 -4 q 126 142 126 32 q 129 181 126 161 l 232 831 q 435 1017 263 1017 z "},"Ë":{"ha":785,"x_min":125,"x_max":885,"o":"m 375 1220 q 389 1232 375 1220 q 433 1243 403 1243 q 480 1224 464 1243 q 496 1192 496 1206 q 468 1121 496 1144 q 410 1097 440 1097 q 364 1117 381 1097 q 347 1150 347 1136 q 375 1220 347 1197 m 729 1220 q 743 1232 729 1220 q 788 1243 757 1243 q 834 1224 818 1243 q 850 1192 850 1206 q 822 1121 850 1144 q 765 1097 794 1097 q 718 1117 735 1097 q 701 1150 701 1136 q 729 1220 701 1197 m 435 1017 q 651 1007 442 1017 q 883 994 860 997 l 868 892 l 442 892 q 364 843 381 892 q 357 814 360 831 l 318 569 l 757 556 l 740 453 l 299 439 l 258 193 q 279 129 251 140 q 335 121 300 121 l 747 121 l 729 19 l 301 -4 q 276 -4 294 -4 q 228 4 258 -4 q 126 142 126 32 q 129 181 126 161 l 232 831 q 435 1017 263 1017 z "},"Ì":{"ha":324,"x_min":115,"x_max":408,"o":"m 138 1294 l 271 1294 l 407 1107 l 303 1107 l 138 1294 m 115 0 l 276 1017 l 404 1017 l 243 0 l 115 0 z "},"Í":{"ha":324,"x_min":115,"x_max":618,"o":"m 303 1107 l 475 1294 l 618 1294 l 407 1107 l 303 1107 m 115 0 l 276 1017 l 404 1017 l 243 0 l 115 0 z "},"Î":{"ha":324,"x_min":115,"x_max":561,"o":"m 149 1107 l 338 1289 l 449 1289 l 561 1107 l 461 1107 l 388 1215 l 269 1107 l 149 1107 m 115 0 l 276 1017 l 404 1017 l 243 0 l 115 0 z "},"Ï":{"ha":324,"x_min":115,"x_max":619,"o":"m 143 1230 q 157 1241 143 1230 q 201 1253 171 1253 q 248 1234 232 1253 q 264 1201 264 1215 q 237 1131 264 1156 q 179 1107 210 1107 q 132 1126 149 1107 q 115 1161 115 1146 q 143 1230 115 1207 m 497 1230 q 511 1241 497 1230 q 556 1253 525 1253 q 602 1234 586 1253 q 618 1201 618 1215 q 591 1131 618 1156 q 533 1107 564 1107 q 486 1126 503 1107 q 469 1161 469 1146 q 497 1230 469 1207 m 115 0 l 276 1017 l 404 1017 l 243 0 l 115 0 z "},"Ð":{"ha":921,"x_min":88,"x_max":946,"o":"m 653 1017 q 869 924 803 1017 q 943 715 936 832 q 946 651 946 679 q 932 497 946 572 q 787 128 892 257 q 496 0 682 0 l 103 0 l 179 478 l 89 478 l 101 558 l 192 558 l 264 1015 q 653 1017 264 1017 m 508 125 q 650 179 588 125 q 804 506 767 278 q 818 672 818 593 q 629 894 818 894 l 372 894 l 319 558 l 503 558 l 489 478 l 307 478 l 250 125 l 508 125 z "},"Ñ":{"ha":919,"x_min":103,"x_max":1003,"o":"m 597 1253 q 613 1253 597 1253 q 671 1230 629 1253 q 722 1207 713 1207 q 744 1207 732 1207 q 807 1226 757 1207 q 869 1256 857 1246 l 890 1190 q 858 1167 881 1183 q 822 1142 835 1150 q 789 1122 808 1133 q 635 1126 714 1081 q 574 1150 596 1150 q 511 1140 535 1150 q 465 1117 488 1129 q 433 1101 442 1106 l 413 1164 q 524 1237 485 1219 q 597 1253 564 1254 m 104 0 l 265 1017 l 390 1017 l 751 236 l 875 1017 l 1003 1017 l 842 0 l 718 0 l 356 778 l 233 0 l 104 0 z "},"Ò":{"ha":925,"x_min":138,"x_max":968,"o":"m 419 1294 l 553 1294 l 689 1107 l 585 1107 l 419 1294 m 460 1010 q 481 1014 460 1010 q 538 1021 501 1018 q 623 1024 574 1024 q 710 1020 672 1024 q 787 1006 749 1017 q 852 978 825 996 q 904 933 879 961 q 963 774 947 885 q 967 706 967 738 q 951 506 967 610 q 915 327 935 401 q 870 200 894 253 q 813 110 846 147 q 747 51 781 74 q 669 15 714 28 q 389 -1 551 -18 q 235 50 289 8 q 147 203 167 104 q 139 288 139 251 q 140 367 139 325 q 155 502 140 410 q 187 665 169 594 q 226 788 204 736 q 272 879 249 840 q 328 944 296 918 q 389 985 360 969 q 460 1010 418 1001 m 325 693 q 319 674 325 693 q 302 608 313 656 q 279 480 292 560 q 266 363 267 400 q 265 294 265 326 q 276 220 265 261 q 318 156 288 179 q 388 126 349 133 q 490 118 428 118 q 593 126 551 118 q 673 159 635 135 q 738 225 711 183 q 822 501 793 315 q 840 682 840 617 q 833 777 840 747 q 817 827 825 807 q 790 861 808 847 q 757 883 772 875 q 715 894 742 890 q 631 900 676 900 q 566 899 585 900 q 521 896 547 899 q 478 888 494 893 q 441 872 463 882 q 406 847 419 863 q 376 810 393 832 q 349 760 360 789 q 325 693 338 731 z "},"Ó":{"ha":925,"x_min":138,"x_max":968,"o":"m 585 1107 l 757 1294 l 900 1294 l 689 1107 l 585 1107 m 460 1010 q 481 1014 460 1010 q 538 1021 501 1018 q 623 1024 574 1024 q 710 1020 672 1024 q 787 1006 749 1017 q 852 978 825 996 q 904 933 879 961 q 963 774 947 885 q 967 706 967 738 q 951 506 967 610 q 915 327 935 401 q 870 200 894 253 q 813 110 846 147 q 747 51 781 74 q 669 15 714 28 q 389 -1 551 -18 q 235 50 289 8 q 147 203 167 104 q 139 288 139 251 q 140 367 139 325 q 155 502 140 410 q 187 665 169 594 q 226 788 204 736 q 272 879 249 840 q 328 944 296 918 q 389 985 360 969 q 460 1010 418 1001 m 325 693 q 319 674 325 693 q 302 608 313 656 q 279 480 292 560 q 266 363 267 400 q 265 294 265 326 q 276 220 265 261 q 318 156 288 179 q 388 126 349 133 q 490 118 428 118 q 593 126 551 118 q 673 159 635 135 q 738 225 711 183 q 822 501 793 315 q 840 682 840 617 q 833 777 840 747 q 817 827 825 807 q 790 861 808 847 q 757 883 772 875 q 715 894 742 890 q 631 900 676 900 q 566 899 585 900 q 521 896 547 899 q 478 888 494 893 q 441 872 463 882 q 406 847 419 863 q 376 810 393 832 q 349 760 360 789 q 325 693 338 731 z "},"Ô":{"ha":925,"x_min":138,"x_max":968,"o":"m 432 1107 l 619 1289 l 731 1289 l 843 1107 l 743 1107 l 669 1215 l 551 1107 l 432 1107 m 460 1010 q 481 1014 460 1010 q 538 1021 501 1018 q 623 1024 574 1024 q 710 1020 672 1024 q 787 1006 749 1017 q 852 978 825 996 q 904 933 879 961 q 963 774 947 885 q 967 706 967 738 q 951 506 967 610 q 915 327 935 401 q 870 200 894 253 q 813 110 846 147 q 747 51 781 74 q 669 15 714 28 q 389 -1 551 -18 q 235 50 289 8 q 147 203 167 104 q 139 288 139 251 q 140 367 139 325 q 155 502 140 410 q 187 665 169 594 q 226 788 204 736 q 272 879 249 840 q 328 944 296 918 q 389 985 360 969 q 460 1010 418 1001 m 325 693 q 319 674 325 693 q 302 608 313 656 q 279 480 292 560 q 266 363 267 400 q 265 294 265 326 q 276 220 265 261 q 318 156 288 179 q 388 126 349 133 q 490 118 428 118 q 593 126 551 118 q 673 159 635 135 q 738 225 711 183 q 822 501 793 315 q 840 682 840 617 q 833 777 840 747 q 817 827 825 807 q 790 861 808 847 q 757 883 772 875 q 715 894 742 890 q 631 900 676 900 q 566 899 585 900 q 521 896 547 899 q 478 888 494 893 q 441 872 463 882 q 406 847 419 863 q 376 810 393 832 q 349 760 360 789 q 325 693 338 731 z "},"Õ":{"ha":925,"x_min":138,"x_max":968,"o":"m 594 1259 q 610 1259 594 1259 q 669 1236 626 1258 q 720 1213 711 1214 q 742 1213 729 1213 q 805 1232 756 1213 q 868 1261 854 1251 l 888 1196 q 855 1172 878 1189 q 819 1147 832 1156 q 786 1128 807 1139 q 633 1132 711 1086 q 571 1156 594 1156 q 509 1145 533 1156 q 463 1123 485 1135 q 432 1107 440 1111 l 411 1169 q 522 1243 483 1226 q 594 1259 561 1260 m 460 1010 q 481 1014 460 1010 q 538 1021 501 1018 q 623 1024 574 1024 q 710 1020 672 1024 q 787 1006 749 1017 q 852 978 825 996 q 904 933 879 961 q 963 774 947 885 q 967 706 967 738 q 951 506 967 610 q 915 327 935 401 q 870 200 894 253 q 813 110 846 147 q 747 51 781 74 q 669 15 714 28 q 389 -1 551 -18 q 235 50 289 8 q 147 203 167 104 q 139 288 139 251 q 140 367 139 325 q 155 502 140 410 q 187 665 169 594 q 226 788 204 736 q 272 879 249 840 q 328 944 296 918 q 389 985 360 969 q 460 1010 418 1001 m 325 693 q 319 674 325 693 q 302 608 313 656 q 279 480 292 560 q 266 363 267 400 q 265 294 265 326 q 276 220 265 261 q 318 156 288 179 q 388 126 349 133 q 490 118 428 118 q 593 126 551 118 q 673 159 635 135 q 738 225 711 183 q 822 501 793 315 q 840 682 840 617 q 833 777 840 747 q 817 827 825 807 q 790 861 808 847 q 757 883 772 875 q 715 894 742 890 q 631 900 676 900 q 566 899 585 900 q 521 896 547 899 q 478 888 494 893 q 441 872 463 882 q 406 847 419 863 q 376 810 393 832 q 349 760 360 789 q 325 693 338 731 z "},"Ö":{"ha":925,"x_min":138,"x_max":968,"o":"m 426 1230 q 440 1241 426 1230 q 485 1253 454 1253 q 531 1234 515 1253 q 546 1201 546 1215 q 519 1131 546 1156 q 461 1107 492 1107 q 415 1126 431 1107 q 399 1161 399 1146 q 426 1230 399 1207 m 781 1230 q 794 1241 781 1230 q 839 1253 808 1253 q 885 1234 869 1253 q 900 1201 900 1215 q 873 1131 900 1156 q 815 1107 846 1107 q 769 1126 785 1107 q 753 1161 753 1146 q 781 1230 753 1207 m 460 1010 q 481 1014 460 1010 q 538 1021 501 1018 q 623 1024 574 1024 q 710 1020 672 1024 q 787 1006 749 1017 q 852 978 825 996 q 904 933 879 961 q 963 774 947 885 q 967 706 967 738 q 951 506 967 610 q 915 327 935 401 q 870 200 894 253 q 813 110 846 147 q 747 51 781 74 q 669 15 714 28 q 389 -1 551 -18 q 235 50 289 8 q 147 203 167 104 q 139 288 139 251 q 140 367 139 325 q 155 502 140 410 q 187 665 169 594 q 226 788 204 736 q 272 879 249 840 q 328 944 296 918 q 389 985 360 969 q 460 1010 418 1001 m 325 693 q 319 674 325 693 q 302 608 313 656 q 279 480 292 560 q 266 363 267 400 q 265 294 265 326 q 276 220 265 261 q 318 156 288 179 q 388 126 349 133 q 490 118 428 118 q 593 126 551 118 q 673 159 635 135 q 738 225 711 183 q 822 501 793 315 q 840 682 840 617 q 833 777 840 747 q 817 827 825 807 q 790 861 808 847 q 757 883 772 875 q 715 894 742 890 q 631 900 676 900 q 566 899 585 900 q 521 896 547 899 q 478 888 494 893 q 441 872 463 882 q 406 847 419 863 q 376 810 393 832 q 349 760 360 789 q 325 693 338 731 z "},"×":{"ha":638,"x_min":125,"x_max":671,"o":"m 125 335 l 311 496 l 176 656 l 268 733 l 403 574 l 599 743 l 671 657 l 475 488 l 611 325 l 519 249 l 385 410 l 197 247 l 125 335 z "},"Ø":{"ha":925,"x_min":85,"x_max":1001,"o":"m 183 667 q 269 881 214 789 q 385 986 308 944 q 626 1024 456 1024 q 869 965 796 1024 l 911 1017 l 1001 1017 l 917 913 q 964 696 964 838 q 948 504 964 608 q 911 326 932 400 q 867 200 890 253 q 810 110 843 147 q 744 50 776 72 q 665 15 711 28 q 492 -6 592 -6 q 328 8 392 -6 q 222 57 265 21 l 176 0 l 86 0 l 176 111 q 133 327 133 185 q 183 667 133 469 m 321 693 q 315 674 321 693 q 299 608 308 656 q 276 480 289 560 q 263 334 263 400 q 275 231 263 268 l 785 863 q 718 893 758 886 q 629 900 678 900 q 562 899 581 900 q 517 896 543 899 q 474 888 490 893 q 438 872 458 882 q 403 847 417 863 q 373 810 389 832 q 345 760 357 789 q 321 693 333 731 m 489 118 q 612 132 563 118 q 703 188 661 146 q 818 501 781 263 q 835 685 835 613 q 822 797 835 757 l 308 163 q 489 118 354 118 z "},"Ù":{"ha":910,"x_min":157,"x_max":994,"o":"m 425 1294 l 558 1294 l 694 1107 l 590 1107 l 425 1294 m 299 424 q 288 310 288 342 q 288 272 288 279 q 379 131 290 161 q 481 117 418 117 q 678 185 611 117 q 771 424 744 254 l 864 1017 l 993 1017 l 901 417 q 744 74 861 167 q 468 -7 644 -7 q 189 133 249 -7 q 157 283 157 206 q 169 429 157 360 l 263 1017 l 392 1017 l 299 424 z "},"Ú":{"ha":910,"x_min":157,"x_max":994,"o":"m 590 1107 l 763 1294 l 906 1294 l 694 1107 l 590 1107 m 299 424 q 288 310 288 342 q 288 272 288 279 q 379 131 290 161 q 481 117 418 117 q 678 185 611 117 q 771 424 744 254 l 864 1017 l 993 1017 l 901 417 q 744 74 861 167 q 468 -7 644 -7 q 189 133 249 -7 q 157 283 157 206 q 169 429 157 360 l 263 1017 l 392 1017 l 299 424 z "},"Û":{"ha":910,"x_min":157,"x_max":994,"o":"m 438 1107 l 625 1289 l 736 1289 l 849 1107 l 749 1107 l 675 1215 l 557 1107 l 438 1107 m 299 424 q 288 310 288 342 q 288 272 288 279 q 379 131 290 161 q 481 117 418 117 q 678 185 611 117 q 771 424 744 254 l 864 1017 l 993 1017 l 901 417 q 744 74 861 167 q 468 -7 644 -7 q 189 133 249 -7 q 157 283 157 206 q 169 429 157 360 l 263 1017 l 392 1017 l 299 424 z "},"Ü":{"ha":910,"x_min":157,"x_max":994,"o":"m 432 1230 q 446 1241 432 1230 q 490 1253 460 1253 q 536 1234 521 1253 q 551 1201 551 1215 q 524 1131 551 1156 q 467 1107 497 1107 q 420 1126 436 1107 q 404 1161 404 1146 q 432 1230 404 1207 m 786 1230 q 800 1241 786 1230 q 844 1253 814 1253 q 890 1234 875 1253 q 906 1201 906 1215 q 904 1174 906 1188 q 890 1144 903 1161 q 826 1107 863 1107 q 774 1126 790 1107 q 758 1161 758 1146 q 786 1230 758 1207 m 299 424 q 288 310 288 342 q 288 272 288 279 q 379 131 290 161 q 481 117 418 117 q 678 185 611 117 q 771 424 744 254 l 864 1017 l 993 1017 l 901 417 q 744 74 861 167 q 468 -7 644 -7 q 189 133 249 -7 q 157 283 157 206 q 169 429 157 360 l 263 1017 l 392 1017 l 299 424 z "},"Ý":{"ha":885,"x_min":204,"x_max":999,"o":"m 564 1107 l 736 1294 l 878 1294 l 668 1107 l 564 1107 m 204 1017 l 340 1017 l 501 500 l 849 1017 l 999 1017 l 546 349 l 490 0 l 363 0 l 418 349 l 204 1017 z "},"Þ":{"ha":767,"x_min":78,"x_max":792,"o":"m 78 0 q 238 1013 78 0 l 365 1013 l 335 817 l 590 817 q 677 799 640 817 q 733 761 714 782 q 790 592 790 699 q 785 508 790 558 q 765 410 779 457 q 735 331 751 363 q 694 276 718 299 q 651 242 671 254 q 601 224 631 229 q 485 213 557 213 q 244 240 322 213 l 206 0 l 78 0 m 497 335 q 553 340 531 335 q 597 365 575 346 q 657 522 638 400 q 663 562 663 547 q 660 594 663 576 q 654 629 657 611 q 640 660 651 647 q 620 679 629 672 q 597 689 611 686 q 553 694 576 694 l 315 694 l 258 335 l 497 335 z "},"ß":{"ha":792,"x_min":78,"x_max":856,"o":"m 329 114 l 550 107 q 624 131 593 107 q 664 194 656 154 l 672 239 q 674 256 674 244 q 658 283 674 268 q 615 306 643 299 q 554 326 586 314 q 496 354 522 339 q 444 454 444 383 q 446 483 444 468 q 490 601 457 563 q 633 701 524 640 q 725 863 725 756 q 688 936 725 914 q 556 958 650 958 q 403 917 461 958 q 328 767 344 876 l 206 0 l 78 0 l 203 786 q 311 999 224 918 q 565 1081 399 1081 q 835 963 771 1081 q 854 906 853 929 q 856 865 856 883 q 848 810 856 846 q 821 738 840 774 q 724 622 782 663 q 679 598 711 615 q 631 569 647 581 q 599 538 615 558 q 575 481 575 507 q 590 438 575 454 q 633 412 604 421 q 694 390 661 403 q 754 363 726 378 q 806 267 806 336 q 803 238 806 253 l 794 178 q 759 83 786 122 q 694 25 732 44 q 542 -11 624 -11 q 395 1 468 -11 q 315 15 322 14 l 329 114 z "},"à":{"ha":750,"x_min":103,"x_max":786,"o":"m 281 1024 l 413 1024 l 550 838 l 446 838 l 281 1024 m 286 707 q 306 719 286 707 q 358 739 326 731 q 422 751 390 747 q 499 754 454 754 q 640 733 544 754 q 786 665 736 713 l 689 0 l 594 0 l 575 82 q 465 20 536 50 q 335 -10 394 -10 q 240 1 276 -10 q 170 38 203 11 q 122 111 138 65 q 103 243 103 172 q 118 397 103 314 q 160 545 133 481 q 217 647 188 610 q 286 707 246 683 m 283 515 q 278 501 283 515 q 261 447 272 488 q 241 350 250 407 q 232 245 232 293 q 244 167 232 197 q 341 110 268 110 q 464 126 414 110 q 585 178 514 142 l 651 615 q 513 640 563 640 q 440 635 464 640 q 402 627 415 631 q 369 615 389 624 q 338 595 350 607 q 310 563 325 583 q 283 515 294 543 z "},"á":{"ha":750,"x_min":103,"x_max":786,"o":"m 457 838 l 629 1024 l 771 1024 l 561 838 l 457 838 m 286 707 q 306 719 286 707 q 358 739 326 731 q 422 751 390 747 q 499 754 454 754 q 640 733 544 754 q 786 665 736 713 l 689 0 l 594 0 l 575 82 q 465 20 536 50 q 335 -10 394 -10 q 240 1 276 -10 q 170 38 203 11 q 122 111 138 65 q 103 243 103 172 q 118 397 103 314 q 160 545 133 481 q 217 647 188 610 q 286 707 246 683 m 283 515 q 278 501 283 515 q 261 447 272 488 q 241 350 250 407 q 232 245 232 293 q 244 167 232 197 q 341 110 268 110 q 464 126 414 110 q 585 178 514 142 l 651 615 q 513 640 563 640 q 440 635 464 640 q 402 627 415 631 q 369 615 389 624 q 338 595 350 607 q 310 563 325 583 q 283 515 294 543 z "},"â":{"ha":750,"x_min":103,"x_max":786,"o":"m 292 838 l 481 1019 l 592 1019 l 703 838 l 604 838 l 529 946 l 411 838 l 292 838 m 286 707 q 306 719 286 707 q 358 739 326 731 q 422 751 390 747 q 499 754 454 754 q 640 733 544 754 q 786 665 736 713 l 689 0 l 594 0 l 575 82 q 465 20 536 50 q 335 -10 394 -10 q 240 1 276 -10 q 170 38 203 11 q 122 111 138 65 q 103 243 103 172 q 118 397 103 314 q 160 545 133 481 q 217 647 188 610 q 286 707 246 683 m 283 515 q 278 501 283 515 q 261 447 272 488 q 241 350 250 407 q 232 245 232 293 q 244 167 232 197 q 341 110 268 110 q 464 126 414 110 q 585 178 514 142 l 651 615 q 513 640 563 640 q 440 635 464 640 q 402 627 415 631 q 369 615 389 624 q 338 595 350 607 q 310 563 325 583 q 283 515 294 543 z "},"ã":{"ha":750,"x_min":103,"x_max":786,"o":"m 467 990 q 481 989 467 990 q 538 966 496 989 q 590 943 581 943 q 613 943 600 943 q 674 963 625 943 q 738 992 724 982 l 758 926 q 724 903 747 919 q 689 878 701 886 q 657 858 676 869 q 503 863 582 817 q 440 886 464 886 q 378 875 403 886 q 332 853 354 864 q 301 838 310 842 l 281 900 q 403 980 369 969 q 467 990 438 990 m 286 707 q 306 719 286 707 q 358 739 326 731 q 422 751 390 747 q 499 754 454 754 q 640 733 544 754 q 786 665 736 713 l 689 0 l 594 0 l 575 82 q 465 20 536 50 q 335 -10 394 -10 q 240 1 276 -10 q 170 38 203 11 q 122 111 138 65 q 103 243 103 172 q 118 397 103 314 q 160 545 133 481 q 217 647 188 610 q 286 707 246 683 m 283 515 q 278 501 283 515 q 261 447 272 488 q 241 350 250 407 q 232 245 232 293 q 244 167 232 197 q 341 110 268 110 q 464 126 414 110 q 585 178 514 142 l 651 615 q 513 640 563 640 q 440 635 464 640 q 402 627 415 631 q 369 615 389 624 q 338 595 350 607 q 310 563 325 583 q 283 515 294 543 z "},"ä":{"ha":750,"x_min":103,"x_max":786,"o":"m 274 947 q 281 956 274 947 q 306 974 288 964 q 349 983 324 983 q 391 965 375 983 q 407 932 407 946 q 379 861 407 885 q 321 838 351 838 q 274 857 290 838 q 258 891 258 876 q 260 918 258 906 q 274 947 261 931 m 628 947 q 635 956 628 947 q 660 974 642 964 q 703 983 678 983 q 745 965 729 983 q 761 932 761 946 q 733 861 761 885 q 675 838 706 838 q 628 857 644 838 q 613 891 613 876 q 614 918 613 906 q 628 947 615 931 m 286 707 q 306 719 286 707 q 358 739 326 731 q 422 751 390 747 q 499 754 454 754 q 640 733 544 754 q 786 665 736 713 l 689 0 l 594 0 l 575 82 q 465 20 536 50 q 335 -10 394 -10 q 240 1 276 -10 q 170 38 203 11 q 122 111 138 65 q 103 243 103 172 q 118 397 103 314 q 160 545 133 481 q 217 647 188 610 q 286 707 246 683 m 283 515 q 278 501 283 515 q 261 447 272 488 q 241 350 250 407 q 232 245 232 293 q 244 167 232 197 q 341 110 268 110 q 464 126 414 110 q 585 178 514 142 l 651 615 q 513 640 563 640 q 440 635 464 640 q 402 627 415 631 q 369 615 389 624 q 338 595 350 607 q 310 563 325 583 q 283 515 294 543 z "},"å":{"ha":750,"x_min":103,"x_max":786,"o":"m 414 1047 q 426 1065 414 1047 q 472 1102 438 1083 q 555 1121 507 1121 q 638 1082 603 1121 q 674 993 674 1043 q 650 910 674 946 q 521 838 603 838 q 426 876 463 838 q 390 964 390 914 q 414 1047 390 1011 m 491 917 q 499 913 491 917 q 526 908 507 908 q 563 917 546 908 q 604 986 604 939 q 586 1031 604 1011 q 547 1050 568 1050 q 511 1044 525 1050 q 486 1029 497 1039 q 461 983 464 1008 q 467 942 458 958 q 491 917 475 926 m 286 707 q 306 719 286 707 q 358 739 326 731 q 422 751 390 747 q 499 754 454 754 q 640 733 544 754 q 786 665 736 713 l 689 0 l 594 0 l 575 82 q 465 20 536 50 q 335 -10 394 -10 q 240 1 276 -10 q 170 38 203 11 q 122 111 138 65 q 103 243 103 172 q 118 397 103 314 q 160 545 133 481 q 217 647 188 610 q 286 707 246 683 m 283 515 q 278 501 283 515 q 261 447 272 488 q 241 350 250 407 q 232 245 232 293 q 244 167 232 197 q 341 110 268 110 q 464 126 414 110 q 585 178 514 142 l 651 615 q 513 640 563 640 q 440 635 464 640 q 402 627 415 631 q 369 615 389 624 q 338 595 350 607 q 310 563 325 583 q 283 515 294 543 z "},"æ":{"ha":1232,"x_min":56,"x_max":1194,"o":"m 240 710 q 259 721 240 710 q 309 740 279 732 q 371 751 339 747 q 440 754 403 754 q 556 740 478 754 q 692 693 633 726 q 918 751 769 751 l 919 751 q 1194 571 1194 751 q 1151 419 1194 478 q 1053 335 1107 360 q 839 289 947 289 q 734 295 783 289 q 668 308 685 301 q 658 228 658 256 q 688 126 658 147 q 758 104 717 106 q 872 103 799 103 q 1100 125 946 103 l 1085 31 q 763 -10 940 -10 q 731 -10 746 -10 q 558 88 601 -8 q 433 20 518 50 q 279 -10 347 -10 q 57 242 57 -10 q 73 394 57 307 q 116 548 89 482 q 172 651 143 614 q 240 710 200 688 m 618 608 q 429 639 510 639 q 297 600 353 639 q 256 556 272 582 q 194 356 215 486 q 183 241 183 288 q 193 167 183 194 q 304 110 215 110 q 438 128 368 110 q 536 174 507 146 q 533 244 533 196 q 557 418 533 293 q 618 608 581 543 m 681 397 q 747 393 719 393 q 785 393 774 393 q 831 396 797 393 q 892 403 864 399 q 951 419 921 408 q 1004 443 982 429 q 1067 560 1067 485 q 1035 617 1067 600 q 914 633 1004 633 q 753 583 799 633 q 710 514 719 547 q 690 444 696 474 q 683 411 685 414 q 681 397 682 403 z "},"ç":{"ha":689,"x_min":108,"x_max":742,"o":"m 317 733 q 332 737 317 733 q 369 744 346 742 q 437 747 393 747 q 574 735 481 747 q 740 707 668 724 l 728 619 q 475 629 551 629 q 382 626 399 629 q 343 610 365 624 q 307 568 321 596 q 249 364 274 503 q 236 235 236 282 q 250 160 236 188 q 339 108 275 108 q 608 119 460 108 l 658 122 l 644 33 q 493 -1 563 7 q 375 -8 424 -8 q 315 -8 326 -8 q 144 85 200 -7 q 110 222 110 143 q 122 374 110 301 q 151 503 135 447 q 184 599 167 560 q 224 665 201 638 q 268 708 247 693 q 317 733 289 724 m 269 -243 l 196 -243 l 206 -182 l 279 -161 q 331 -100 317 -147 q 340 -51 336 -82 l 444 -51 q 414 -165 433 -125 q 360 -224 394 -206 q 269 -243 326 -243 z "},"è":{"ha":729,"x_min":101,"x_max":763,"o":"m 285 1022 l 418 1022 l 554 835 l 450 835 l 285 1022 m 393 289 q 236 308 282 289 q 228 213 228 253 q 239 149 228 172 q 335 104 261 106 q 441 103 367 103 q 669 125 515 103 l 654 31 q 329 -10 510 -10 q 297 -10 314 -10 q 124 90 165 -8 q 101 220 101 143 q 117 377 101 297 q 144 500 132 457 q 174 587 156 543 q 219 658 193 631 q 282 708 244 686 q 489 751 353 751 l 490 751 q 763 572 763 751 q 728 434 763 489 q 650 353 693 379 q 393 289 549 289 m 249 397 q 326 393 286 393 q 396 395 367 393 q 468 406 425 397 q 543 428 511 414 q 600 469 575 442 q 633 553 633 506 q 603 617 633 600 q 482 635 572 635 q 321 583 367 635 q 278 514 288 547 q 257 439 264 474 q 249 397 250 404 z "},"é":{"ha":729,"x_min":101,"x_max":765,"o":"m 450 835 l 622 1022 l 765 1022 l 554 835 l 450 835 m 393 289 q 236 308 282 289 q 228 213 228 253 q 239 149 228 172 q 335 104 261 106 q 441 103 367 103 q 669 125 515 103 l 654 31 q 329 -10 510 -10 q 297 -10 314 -10 q 124 90 165 -8 q 101 220 101 143 q 117 377 101 297 q 144 500 132 457 q 174 587 156 543 q 219 658 193 631 q 282 708 244 686 q 489 751 353 751 l 490 751 q 763 572 763 751 q 728 434 763 489 q 650 353 693 379 q 393 289 549 289 m 249 397 q 326 393 286 393 q 396 395 367 393 q 468 406 425 397 q 543 428 511 414 q 600 469 575 442 q 633 553 633 506 q 603 617 633 600 q 482 635 572 635 q 321 583 367 635 q 278 514 288 547 q 257 439 264 474 q 249 397 250 404 z "},"ê":{"ha":729,"x_min":101,"x_max":763,"o":"m 297 835 l 485 1017 l 596 1017 l 708 835 l 608 835 l 535 943 l 417 835 l 297 835 m 393 289 q 236 308 282 289 q 228 213 228 253 q 239 149 228 172 q 335 104 261 106 q 441 103 367 103 q 669 125 515 103 l 654 31 q 329 -10 510 -10 q 297 -10 314 -10 q 124 90 165 -8 q 101 220 101 143 q 117 377 101 297 q 144 500 132 457 q 174 587 156 543 q 219 658 193 631 q 282 708 244 686 q 489 751 353 751 l 490 751 q 763 572 763 751 q 728 434 763 489 q 650 353 693 379 q 393 289 549 289 m 249 397 q 326 393 286 393 q 396 395 367 393 q 468 406 425 397 q 543 428 511 414 q 600 469 575 442 q 633 553 633 506 q 603 617 633 600 q 482 635 572 635 q 321 583 367 635 q 278 514 288 547 q 257 439 264 474 q 249 397 250 404 z "},"ë":{"ha":729,"x_min":101,"x_max":767,"o":"m 291 958 q 305 969 291 958 q 349 981 319 981 q 395 962 379 981 q 411 929 411 943 q 384 859 411 883 q 326 835 357 835 q 279 854 296 835 q 263 889 263 874 q 291 958 263 935 m 645 958 q 659 969 645 958 q 703 981 674 981 q 749 962 733 981 q 765 929 765 943 q 738 859 765 883 q 681 835 711 835 q 633 854 650 835 q 617 889 617 874 q 645 958 617 935 m 393 289 q 236 308 282 289 q 228 213 228 253 q 239 149 228 172 q 335 104 261 106 q 441 103 367 103 q 669 125 515 103 l 654 31 q 329 -10 510 -10 q 297 -10 314 -10 q 124 90 165 -8 q 101 220 101 143 q 117 377 101 297 q 144 500 132 457 q 174 587 156 543 q 219 658 193 631 q 282 708 244 686 q 489 751 353 751 l 490 751 q 763 572 763 751 q 728 434 763 489 q 650 353 693 379 q 393 289 549 289 m 249 397 q 326 393 286 393 q 396 395 367 393 q 468 406 425 397 q 543 428 511 414 q 600 469 575 442 q 633 553 633 506 q 603 617 633 600 q 482 635 572 635 q 321 583 367 635 q 278 514 288 547 q 257 439 264 474 q 249 397 250 404 z "},"ì":{"ha":282,"x_min":51,"x_max":322,"o":"m 53 1015 l 185 1015 l 322 828 l 218 828 l 53 1015 m 75 0 l 192 738 l 319 738 l 203 0 l 75 0 z "},"í":{"ha":282,"x_min":75,"x_max":531,"o":"m 215 828 l 388 1015 l 529 1015 l 319 828 l 215 828 m 75 0 l 192 738 l 319 738 l 203 0 l 75 0 z "},"î":{"ha":282,"x_min":58,"x_max":472,"o":"m 60 828 l 247 1011 l 358 1011 l 471 828 l 371 828 l 297 938 l 179 828 l 60 828 m 75 0 l 192 738 l 319 738 l 203 0 l 75 0 z "},"ï":{"ha":282,"x_min":21,"x_max":524,"o":"m 49 951 q 63 963 49 951 q 107 975 76 975 q 153 956 138 975 q 169 922 169 938 q 142 852 169 876 q 84 828 114 828 q 38 848 54 828 q 21 882 21 868 q 49 951 21 928 m 403 951 q 417 963 403 951 q 461 975 431 975 q 508 956 492 975 q 524 922 524 938 q 496 852 524 876 q 438 828 468 828 q 392 848 408 828 q 375 882 375 868 q 403 951 375 928 m 75 0 l 192 738 l 319 738 l 203 0 l 75 0 z "},"ð":{"ha":746,"x_min":94,"x_max":815,"o":"m 413 738 l 539 738 q 636 718 617 738 q 567 889 619 826 l 364 810 l 342 892 l 488 949 q 342 979 432 979 q 314 978 329 979 l 331 1088 q 626 1006 528 1088 l 790 1069 l 814 986 l 689 939 q 772 596 772 815 q 751 353 772 486 q 652 82 721 164 q 447 0 583 0 l 296 0 q 182 30 228 0 q 118 110 136 60 q 94 240 94 172 q 107 364 94 307 q 208 651 140 564 q 413 738 276 738 m 235 360 q 224 231 224 274 q 239 163 224 188 q 272 131 254 139 q 305 124 290 124 q 322 124 319 124 l 456 124 q 472 124 457 124 q 509 131 488 124 q 553 163 531 139 q 624 360 599 210 q 638 490 638 443 q 629 560 638 536 q 531 614 610 614 l 407 614 q 331 596 361 614 q 235 360 267 554 z "},"ñ":{"ha":757,"x_min":78,"x_max":779,"o":"m 474 985 q 491 985 474 985 q 549 963 507 985 q 601 940 592 940 q 623 939 610 939 q 685 958 636 939 q 747 988 735 978 l 768 922 q 735 899 758 915 q 699 874 713 882 q 667 854 686 865 q 514 858 592 813 q 451 882 474 882 q 389 872 413 882 q 343 849 365 861 q 311 833 321 838 l 290 896 q 402 969 363 953 q 474 985 442 986 m 588 750 q 743 681 696 750 q 778 558 778 628 q 774 508 778 535 l 693 0 l 565 0 l 646 508 q 649 552 649 525 q 626 606 649 579 q 543 633 604 633 q 432 617 482 633 q 294 558 382 600 l 206 0 l 78 0 l 194 738 l 290 738 l 308 653 q 334 668 314 657 q 360 682 354 679 q 385 695 367 685 q 413 708 404 706 q 438 719 421 711 q 466 730 456 726 q 493 738 476 733 q 524 744 510 743 q 588 750 561 750 z "},"ò":{"ha":781,"x_min":108,"x_max":788,"o":"m 299 1015 l 432 1015 l 568 828 l 464 828 l 299 1015 m 239 667 q 263 689 239 667 q 348 728 286 711 q 517 744 410 744 q 778 572 738 744 q 788 476 788 531 q 775 353 788 422 q 663 69 742 146 q 403 -7 585 -7 q 154 79 221 -7 q 110 249 110 138 q 124 389 110 300 q 165 551 138 478 q 239 667 192 624 m 331 583 q 315 569 331 583 q 281 502 300 556 q 249 373 263 449 q 236 263 236 297 q 239 206 236 228 q 253 167 242 185 q 277 138 264 149 q 313 121 290 126 q 401 110 347 110 q 482 115 454 111 q 539 131 510 118 q 586 172 568 144 q 620 244 604 199 q 647 358 636 290 q 660 477 660 432 q 652 552 660 522 q 621 599 644 582 q 506 628 582 628 q 396 619 431 628 q 331 583 361 611 z "},"ó":{"ha":781,"x_min":108,"x_max":788,"o":"m 465 828 l 638 1015 l 779 1015 l 569 828 l 465 828 m 239 667 q 263 689 239 667 q 348 728 286 711 q 517 744 410 744 q 778 572 738 744 q 788 476 788 531 q 775 353 788 422 q 663 69 742 146 q 403 -7 585 -7 q 154 79 221 -7 q 110 249 110 138 q 124 389 110 300 q 165 551 138 478 q 239 667 192 624 m 331 583 q 315 569 331 583 q 281 502 300 556 q 249 373 263 449 q 236 263 236 297 q 239 206 236 228 q 253 167 242 185 q 277 138 264 149 q 313 121 290 126 q 401 110 347 110 q 482 115 454 111 q 539 131 510 118 q 586 172 568 144 q 620 244 604 199 q 647 358 636 290 q 660 477 660 432 q 652 552 660 522 q 621 599 644 582 q 506 628 582 628 q 396 619 431 628 q 331 583 361 611 z "},"ô":{"ha":781,"x_min":108,"x_max":788,"o":"m 310 828 l 497 1011 l 608 1011 l 721 828 l 621 828 l 547 938 l 429 828 l 310 828 m 239 667 q 263 689 239 667 q 348 728 286 711 q 517 744 410 744 q 778 572 738 744 q 788 476 788 531 q 775 353 788 422 q 663 69 742 146 q 403 -7 585 -7 q 154 79 221 -7 q 110 249 110 138 q 124 389 110 300 q 165 551 138 478 q 239 667 192 624 m 331 583 q 315 569 331 583 q 281 502 300 556 q 249 373 263 449 q 236 263 236 297 q 239 206 236 228 q 253 167 242 185 q 277 138 264 149 q 313 121 290 126 q 401 110 347 110 q 482 115 454 111 q 539 131 510 118 q 586 172 568 144 q 620 244 604 199 q 647 358 636 290 q 660 477 660 432 q 652 552 660 522 q 621 599 644 582 q 506 628 582 628 q 396 619 431 628 q 331 583 361 611 z "},"õ":{"ha":781,"x_min":108,"x_max":788,"o":"m 473 981 q 489 980 473 981 q 548 957 506 979 q 599 935 590 935 q 622 935 608 935 q 684 953 635 935 q 746 983 733 972 l 767 918 q 739 898 757 911 q 710 877 721 885 q 682 859 699 869 q 653 843 665 849 q 513 854 583 813 q 450 876 472 876 q 388 866 411 876 q 342 844 364 856 q 311 828 319 832 l 289 890 q 401 965 363 947 q 473 981 440 982 m 239 667 q 263 689 239 667 q 348 728 286 711 q 517 744 410 744 q 778 572 738 744 q 788 476 788 531 q 775 353 788 422 q 663 69 742 146 q 403 -7 585 -7 q 154 79 221 -7 q 110 249 110 138 q 124 389 110 300 q 165 551 138 478 q 239 667 192 624 m 331 583 q 315 569 331 583 q 281 502 300 556 q 249 373 263 449 q 236 263 236 297 q 239 206 236 228 q 253 167 242 185 q 277 138 264 149 q 313 121 290 126 q 401 110 347 110 q 482 115 454 111 q 539 131 510 118 q 586 172 568 144 q 620 244 604 199 q 647 358 636 290 q 660 477 660 432 q 652 552 660 522 q 621 599 644 582 q 506 628 582 628 q 396 619 431 628 q 331 583 361 611 z "},"ö":{"ha":781,"x_min":108,"x_max":788,"o":"m 306 951 q 319 963 306 951 q 358 975 333 975 q 399 965 383 975 q 426 908 431 944 q 396 850 421 872 q 340 828 371 828 q 294 848 310 828 q 278 882 278 868 q 306 951 278 928 m 713 975 q 775 939 760 975 q 779 918 779 928 q 752 852 779 876 q 694 828 725 828 q 648 848 664 828 q 632 882 632 868 q 660 951 632 928 q 713 975 688 975 m 239 667 q 263 689 239 667 q 348 728 286 711 q 517 744 410 744 q 778 572 738 744 q 788 476 788 531 q 775 353 788 422 q 663 69 742 146 q 403 -7 585 -7 q 154 79 221 -7 q 110 249 110 138 q 124 389 110 300 q 165 551 138 478 q 239 667 192 624 m 331 583 q 315 569 331 583 q 281 502 300 556 q 249 373 263 449 q 236 263 236 297 q 239 206 236 228 q 253 167 242 185 q 277 138 264 149 q 313 121 290 126 q 401 110 347 110 q 482 115 454 111 q 539 131 510 118 q 586 172 568 144 q 620 244 604 199 q 647 358 636 290 q 660 477 660 432 q 652 552 660 522 q 621 599 644 582 q 506 628 582 628 q 396 619 431 628 q 331 583 361 611 z "},"÷":{"ha":710,"x_min":132,"x_max":733,"o":"m 133 431 l 151 550 l 732 550 l 713 431 l 133 431 m 374 347 l 451 347 q 479 322 479 347 q 478 314 479 318 l 465 233 q 428 201 461 201 l 350 201 q 327 210 335 201 q 321 233 319 219 l 335 314 q 374 347 339 347 m 401 738 q 440 772 406 772 l 518 772 q 546 747 546 772 q 544 738 546 743 l 533 658 q 496 626 529 626 l 417 626 q 395 635 403 626 q 389 658 388 643 l 401 738 z "},"ø":{"ha":785,"x_min":61,"x_max":828,"o":"m 240 667 q 507 744 321 744 q 697 700 631 744 l 732 738 l 828 738 l 747 651 q 790 481 790 589 q 778 353 790 424 q 665 69 743 146 q 403 -7 586 -7 q 192 43 261 -7 l 151 0 l 63 0 l 146 92 q 111 253 111 146 q 147 485 111 360 q 240 667 182 610 m 610 606 q 503 628 574 628 q 398 619 432 628 q 333 583 364 611 q 283 502 301 556 q 253 376 265 449 q 240 265 240 303 q 249 203 240 226 l 610 606 m 405 111 q 450 111 405 111 q 533 128 496 111 q 589 172 571 144 q 650 358 629 232 q 661 469 661 422 q 649 544 661 517 l 279 139 q 405 111 314 111 z "},"ù":{"ha":756,"x_min":97,"x_max":797,"o":"m 286 1015 l 419 1015 l 556 828 l 451 828 l 286 1015 m 229 229 q 226 180 226 208 q 248 128 226 151 q 331 106 269 106 q 443 122 393 106 q 582 181 493 138 l 669 738 l 797 738 l 681 0 l 585 0 l 565 83 q 529 63 561 81 q 468 31 497 46 q 279 -12 381 -12 q 132 56 178 -12 q 97 175 97 104 q 101 231 97 201 l 182 738 l 310 738 l 229 229 z "},"ú":{"ha":756,"x_min":97,"x_max":797,"o":"m 451 828 l 624 1015 l 765 1015 l 556 828 l 451 828 m 229 229 q 226 180 226 208 q 248 128 226 151 q 331 106 269 106 q 443 122 393 106 q 582 181 493 138 l 669 738 l 797 738 l 681 0 l 585 0 l 565 83 q 529 63 561 81 q 468 31 497 46 q 279 -12 381 -12 q 132 56 178 -12 q 97 175 97 104 q 101 231 97 201 l 182 738 l 310 738 l 229 229 z "},"û":{"ha":756,"x_min":97,"x_max":797,"o":"m 297 828 l 486 1011 l 597 1011 l 710 828 l 610 828 l 536 938 l 418 828 l 297 828 m 229 229 q 226 180 226 208 q 248 128 226 151 q 331 106 269 106 q 443 122 393 106 q 582 181 493 138 l 669 738 l 797 738 l 681 0 l 585 0 l 565 83 q 529 63 561 81 q 468 31 497 46 q 279 -12 381 -12 q 132 56 178 -12 q 97 175 97 104 q 101 231 97 201 l 182 738 l 310 738 l 229 229 z "},"ü":{"ha":756,"x_min":97,"x_max":797,"o":"m 292 951 q 306 963 292 951 q 350 975 319 975 q 397 956 381 975 q 413 922 413 938 q 385 852 413 876 q 328 828 358 828 q 281 848 297 828 q 264 882 264 868 q 292 951 264 928 m 646 951 q 660 963 646 951 q 704 975 674 975 q 751 956 735 975 q 767 922 767 938 q 740 852 767 876 q 682 828 713 828 q 635 848 651 828 q 618 882 618 868 q 646 951 618 928 m 229 229 q 226 180 226 208 q 248 128 226 151 q 331 106 269 106 q 443 122 393 106 q 582 181 493 138 l 669 738 l 797 738 l 681 0 l 585 0 l 565 83 q 529 63 561 81 q 468 31 497 46 q 279 -12 381 -12 q 132 56 178 -12 q 97 175 97 104 q 101 231 97 201 l 182 738 l 310 738 l 229 229 z "},"ý":{"ha":767,"x_min":126,"x_max":825,"o":"m 436 822 l 608 1008 l 750 1008 l 540 822 l 436 822 m 817 740 q 824 675 824 714 q 799 583 824 636 l 510 1 q 331 -270 421 -181 q 133 -381 242 -360 l 133 -290 q 264 -170 211 -242 q 368 0 317 -99 q 275 29 319 0 q 206 163 219 65 l 126 738 l 260 738 l 336 178 q 390 125 343 135 q 415 123 404 122 q 425 124 425 124 l 671 617 q 706 740 694 667 l 817 740 z "},"þ":{"ha":765,"x_min":31,"x_max":786,"o":"m 469 723 q 510 735 469 723 q 602 747 551 747 q 696 713 653 747 q 757 625 739 679 q 785 477 785 544 q 778 366 785 410 q 765 294 771 322 q 748 223 760 267 q 723 150 736 179 q 686 87 710 121 q 635 33 663 53 q 474 -15 567 -15 q 349 -1 421 -15 q 224 39 278 14 l 158 -375 l 31 -375 l 263 1086 l 390 1086 l 322 656 q 469 723 386 699 m 647 369 q 654 457 654 422 q 649 532 654 492 q 622 601 644 572 q 565 629 599 629 q 308 564 472 629 l 240 135 q 356 108 311 111 q 412 105 401 106 q 443 103 422 104 q 471 101 464 101 q 581 160 535 101 q 647 369 628 218 z "},"ÿ":{"ha":767,"x_min":126,"x_max":825,"o":"m 278 941 q 292 952 278 941 q 336 964 306 964 q 383 945 367 964 q 399 913 399 926 q 371 842 399 865 q 313 818 343 818 q 266 838 282 818 q 250 871 250 857 q 278 941 250 918 m 632 941 q 646 952 632 941 q 690 964 660 964 q 737 945 721 964 q 753 913 753 926 q 725 842 753 865 q 667 818 697 818 q 620 838 636 818 q 604 871 604 857 q 632 941 604 918 m 817 740 q 824 675 824 714 q 799 583 824 636 l 510 1 q 331 -270 421 -181 q 133 -381 242 -360 l 133 -290 q 264 -170 211 -242 q 368 0 317 -99 q 275 29 319 0 q 206 163 219 65 l 126 738 l 260 738 l 336 178 q 390 125 343 135 q 415 123 404 122 q 425 124 425 124 l 671 617 q 706 740 694 667 l 817 740 z "},"Ā":{"ha":926,"x_min":58,"x_max":908,"o":"m 464 1107 l 479 1200 l 885 1200 l 869 1107 l 464 1107 m 58 0 l 585 1017 l 719 1017 l 908 0 l 778 0 l 728 268 l 338 268 l 199 0 l 58 0 m 399 389 l 708 389 l 629 843 l 399 389 z "},"ā":{"ha":750,"x_min":103,"x_max":786,"o":"m 294 838 l 310 931 l 715 931 l 700 838 l 294 838 m 286 707 q 306 719 286 707 q 358 739 326 731 q 422 751 390 747 q 499 754 454 754 q 640 733 544 754 q 786 665 736 713 l 689 0 l 594 0 l 575 82 q 465 20 536 50 q 335 -10 394 -10 q 240 1 276 -10 q 170 38 203 11 q 122 111 138 65 q 103 243 103 172 q 118 397 103 314 q 160 545 133 481 q 217 647 188 610 q 286 707 246 683 m 283 515 q 278 501 283 515 q 261 447 272 488 q 241 350 250 407 q 232 245 232 293 q 244 167 232 197 q 341 110 268 110 q 464 126 414 110 q 585 178 514 142 l 651 615 q 513 640 563 640 q 440 635 464 640 q 402 627 415 631 q 369 615 389 624 q 338 595 350 607 q 310 563 325 583 q 283 515 294 543 z "},"Ă":{"ha":926,"x_min":58,"x_max":908,"o":"m 603 1265 q 601 1244 601 1257 q 608 1214 601 1232 q 679 1175 626 1175 q 782 1265 768 1175 l 850 1265 q 675 1107 829 1107 q 574 1147 614 1107 q 533 1247 533 1188 q 533 1265 533 1256 l 603 1265 m 58 0 l 585 1017 l 719 1017 l 908 0 l 778 0 l 728 268 l 338 268 l 199 0 l 58 0 m 399 389 l 708 389 l 629 843 l 399 389 z "},"ă":{"ha":750,"x_min":103,"x_max":786,"o":"m 454 996 q 453 968 453 988 q 472 927 453 949 q 528 906 492 906 q 532 906 531 906 q 633 996 621 906 l 703 996 q 528 838 682 838 q 426 878 467 838 q 386 978 386 918 q 386 996 386 986 l 454 996 m 286 707 q 306 719 286 707 q 358 739 326 731 q 422 751 390 747 q 499 754 454 754 q 640 733 544 754 q 786 665 736 713 l 689 0 l 594 0 l 575 82 q 465 20 536 50 q 335 -10 394 -10 q 240 1 276 -10 q 170 38 203 11 q 122 111 138 65 q 103 243 103 172 q 118 397 103 314 q 160 545 133 481 q 217 647 188 610 q 286 707 246 683 m 283 515 q 278 501 283 515 q 261 447 272 488 q 241 350 250 407 q 232 245 232 293 q 244 167 232 197 q 341 110 268 110 q 464 126 414 110 q 585 178 514 142 l 651 615 q 513 640 563 640 q 440 635 464 640 q 402 627 415 631 q 369 615 389 624 q 338 595 350 607 q 310 563 325 583 q 283 515 294 543 z "},"Ą":{"ha":1042,"x_min":178,"x_max":1029,"o":"m 804 -151 q 938 0 804 -56 l 999 0 q 901 -121 901 -69 q 967 -164 901 -164 q 979 -164 972 -164 l 964 -253 q 931 -256 947 -256 q 840 -224 875 -256 q 804 -151 804 -192 m 179 0 l 706 1017 l 840 1017 l 1029 0 l 899 0 l 849 268 l 458 268 l 319 0 l 179 0 m 519 389 l 829 389 l 750 843 l 519 389 z "},"ą":{"ha":686,"x_min":76,"x_max":760,"o":"m 453 -151 q 586 0 453 -56 l 647 0 q 549 -121 549 -69 q 614 -164 549 -164 q 626 -164 621 -164 l 613 -253 q 579 -256 594 -256 q 488 -224 522 -256 q 453 -151 453 -192 m 260 707 q 280 719 260 707 q 332 739 300 731 q 396 751 364 747 q 474 754 428 754 q 615 733 519 754 q 760 665 710 713 l 663 0 l 568 0 l 549 82 q 439 20 510 50 q 309 -10 368 -10 q 213 1 250 -10 q 144 38 176 11 q 97 111 111 65 q 76 243 76 172 q 92 397 76 314 q 135 545 108 481 q 190 647 161 610 q 260 707 219 683 m 277 556 q 269 542 277 556 q 244 477 261 528 q 217 360 228 426 q 206 245 206 293 q 218 167 206 197 q 315 110 242 110 q 438 126 388 110 q 558 178 488 142 l 625 615 q 487 640 536 640 q 409 635 438 640 q 363 624 381 629 q 319 601 344 618 q 277 556 293 583 z "},"Ć":{"ha":800,"x_min":139,"x_max":913,"o":"m 568 1111 l 739 1297 l 882 1297 l 672 1111 l 568 1111 m 575 1028 q 911 983 718 1028 l 896 883 q 600 904 738 904 q 578 904 586 904 q 559 904 569 904 q 539 903 549 904 q 510 901 529 903 q 479 892 492 899 q 448 877 467 886 q 415 853 429 868 q 385 817 401 838 q 355 767 368 797 q 328 700 342 738 q 284 526 301 629 q 267 356 267 422 q 439 115 267 126 q 533 114 464 114 q 779 126 601 114 l 765 25 q 432 -8 647 -8 q 199 104 265 -8 q 140 356 140 201 q 185 668 140 492 q 281 894 222 818 q 451 1013 350 986 q 575 1028 506 1028 z "},"ć":{"ha":686,"x_min":108,"x_max":751,"o":"m 436 831 l 608 1018 l 750 1018 l 540 831 l 436 831 m 317 734 q 332 739 317 734 q 369 745 346 743 q 436 747 393 747 q 574 735 479 747 q 740 707 668 724 l 728 619 q 475 631 551 631 q 381 628 399 631 q 342 611 364 625 q 307 568 321 597 q 249 364 274 503 q 236 235 236 282 q 250 160 236 188 q 339 108 275 108 q 608 119 460 108 l 658 122 l 644 33 q 335 -8 504 -8 q 317 -8 325 -8 q 144 85 200 -7 q 110 222 110 143 q 122 374 110 301 q 151 503 135 447 q 184 599 167 560 q 224 665 201 638 q 268 709 247 693 q 317 734 289 725 z "},"Ĉ":{"ha":800,"x_min":139,"x_max":913,"o":"m 413 1111 l 600 1294 l 711 1294 l 824 1111 l 724 1111 l 650 1219 l 532 1111 l 413 1111 m 575 1028 q 911 983 718 1028 l 896 883 q 600 904 738 904 q 578 904 586 904 q 559 904 569 904 q 539 903 549 904 q 510 901 529 903 q 479 892 492 899 q 448 877 467 886 q 415 853 429 868 q 385 817 401 838 q 355 767 368 797 q 328 700 342 738 q 284 526 301 629 q 267 356 267 422 q 439 115 267 126 q 533 114 464 114 q 779 126 601 114 l 765 25 q 432 -8 647 -8 q 199 104 265 -8 q 140 356 140 201 q 185 668 140 492 q 281 894 222 818 q 451 1013 350 986 q 575 1028 506 1028 z "},"ĉ":{"ha":686,"x_min":106,"x_max":739,"o":"m 296 831 l 483 1014 l 594 1014 l 707 831 l 607 831 l 533 939 l 415 831 l 296 831 m 315 734 q 329 739 315 734 q 367 745 343 743 q 433 747 390 747 q 572 735 476 747 q 739 707 667 724 l 725 619 q 473 631 550 631 q 379 628 396 631 q 341 611 363 625 q 306 568 319 597 q 246 364 271 503 q 232 261 232 296 q 269 129 232 161 q 347 108 294 108 q 606 119 457 108 l 656 122 l 642 33 q 332 -8 501 -8 q 314 -8 322 -8 q 142 85 199 -7 q 107 222 107 143 q 119 374 107 301 q 148 503 132 447 q 182 599 164 560 q 222 665 200 638 q 266 709 244 693 q 315 734 288 725 z "},"Ċ":{"ha":800,"x_min":139,"x_max":913,"o":"m 582 1261 l 660 1261 q 686 1226 692 1261 l 672 1143 q 636 1111 668 1111 l 558 1111 q 536 1120 544 1111 q 529 1143 528 1129 l 543 1226 q 582 1261 547 1261 m 575 1028 q 911 983 718 1028 l 896 883 q 600 904 738 904 q 578 904 586 904 q 559 904 569 904 q 539 903 549 904 q 510 901 529 903 q 479 892 492 899 q 448 877 467 886 q 415 853 429 868 q 385 817 401 838 q 355 767 368 797 q 328 700 342 738 q 284 526 301 629 q 267 356 267 422 q 439 115 267 126 q 533 114 464 114 q 779 126 601 114 l 765 25 q 432 -8 647 -8 q 199 104 265 -8 q 140 356 140 201 q 185 668 140 492 q 281 894 222 818 q 451 1013 350 986 q 575 1028 506 1028 z "},"ċ":{"ha":686,"x_min":106,"x_max":739,"o":"m 490 981 l 568 981 q 594 946 600 981 l 581 863 q 544 831 576 831 l 467 831 q 444 840 451 831 q 438 863 436 849 l 451 946 q 490 981 456 981 m 315 734 q 329 739 315 734 q 367 745 343 743 q 433 747 390 747 q 572 735 476 747 q 739 707 667 724 l 725 619 q 473 631 550 631 q 379 628 396 631 q 341 611 363 625 q 306 568 319 597 q 246 364 271 503 q 232 261 232 296 q 269 129 232 161 q 347 108 294 108 q 606 119 457 108 l 656 122 l 642 33 q 332 -8 501 -8 q 314 -8 322 -8 q 142 85 199 -7 q 107 222 107 143 q 119 374 107 301 q 148 503 132 447 q 182 599 164 560 q 222 665 200 638 q 266 709 244 693 q 315 734 288 725 z "},"Č":{"ha":800,"x_min":139,"x_max":913,"o":"m 454 1294 l 554 1294 l 629 1185 l 746 1294 l 867 1294 l 678 1111 l 568 1111 l 454 1294 m 575 1028 q 911 983 718 1028 l 896 883 q 600 904 738 904 q 578 904 586 904 q 559 904 569 904 q 539 903 549 904 q 510 901 529 903 q 479 892 492 899 q 448 877 467 886 q 415 853 429 868 q 385 817 401 838 q 355 767 368 797 q 328 700 342 738 q 284 526 301 629 q 267 356 267 422 q 439 115 267 126 q 533 114 464 114 q 779 126 601 114 l 765 25 q 432 -8 647 -8 q 199 104 265 -8 q 140 356 140 201 q 185 668 140 492 q 281 894 222 818 q 451 1013 350 986 q 575 1028 506 1028 z "},"č":{"ha":686,"x_min":106,"x_max":746,"o":"m 333 1014 l 433 1014 l 508 904 l 626 1014 l 746 1014 l 557 831 l 447 831 l 333 1014 m 315 734 q 329 739 315 734 q 367 745 343 743 q 433 747 390 747 q 572 735 476 747 q 739 707 667 724 l 725 619 q 473 631 550 631 q 379 628 396 631 q 341 611 363 625 q 306 568 319 597 q 246 364 271 503 q 232 261 232 296 q 269 129 232 161 q 347 108 294 108 q 606 119 457 108 l 656 122 l 642 33 q 332 -8 501 -8 q 314 -8 322 -8 q 142 85 199 -7 q 107 222 107 143 q 119 374 107 301 q 148 503 132 447 q 182 599 164 560 q 222 665 200 638 q 266 709 244 693 q 315 734 288 725 z "},"Ď":{"ha":922,"x_min":122,"x_max":965,"o":"m 463 1283 l 563 1283 l 636 1175 l 754 1283 l 874 1283 l 686 1101 l 575 1101 l 463 1283 m 672 1017 q 889 924 821 1017 q 963 717 954 833 q 964 653 964 681 q 951 497 964 574 q 806 128 911 256 q 514 0 701 0 l 122 0 l 283 1015 q 672 1017 283 1017 m 526 125 q 669 179 607 125 q 824 506 788 278 q 838 671 838 593 q 647 894 838 894 l 392 894 l 269 125 l 526 125 z "},"ď":{"ha":929,"x_min":108,"x_max":1072,"o":"m 331 735 q 351 742 331 735 q 423 749 372 749 q 547 734 474 749 q 674 696 619 719 l 738 1090 l 863 1090 l 689 0 l 592 0 l 575 81 q 456 22 533 51 q 314 -8 379 -8 q 201 24 249 -8 q 135 111 154 57 q 110 252 110 185 q 119 373 110 319 q 140 471 129 426 q 167 560 150 515 q 206 638 183 606 q 259 697 229 671 q 331 735 289 722 m 238 261 q 338 111 238 111 q 590 171 451 111 l 658 599 q 418 632 543 632 q 347 613 376 632 q 247 368 281 567 q 238 261 238 308 m 931 804 l 946 990 l 960 1083 l 1072 1083 l 1057 990 l 1013 804 l 931 804 z "},"Đ":{"ha":921,"x_min":118,"x_max":976,"o":"m 683 1017 q 900 924 833 1017 q 974 715 967 832 q 976 651 976 679 q 964 497 976 572 q 817 128 922 257 q 526 0 713 0 l 133 0 l 210 478 l 119 478 l 132 558 l 222 558 l 294 1015 q 683 1017 294 1017 m 539 125 q 681 179 618 125 q 835 506 797 278 q 849 672 849 593 q 660 894 849 894 l 403 894 l 350 558 l 533 558 l 519 478 l 338 478 l 281 125 l 539 125 z "},"đ":{"ha":767,"x_min":108,"x_max":936,"o":"m 235 676 q 251 692 235 676 q 315 728 267 708 q 418 749 363 749 q 547 734 474 749 q 674 696 619 719 l 699 851 l 535 851 l 547 931 l 711 931 l 738 1090 l 863 1090 l 838 931 l 935 931 l 922 851 l 825 851 l 689 0 l 592 0 l 575 81 q 456 22 533 51 q 314 -8 379 -8 q 201 24 249 -8 q 135 111 154 57 q 110 252 110 185 q 120 379 110 319 q 144 490 131 439 q 181 592 157 542 q 235 676 204 643 m 238 261 q 338 111 238 111 q 590 171 451 111 l 658 599 q 418 632 543 632 q 347 613 376 632 q 247 368 281 567 q 238 261 238 308 z "},"Ē":{"ha":785,"x_min":125,"x_max":885,"o":"m 386 1100 l 400 1194 l 806 1194 l 792 1100 l 386 1100 m 435 1017 q 651 1007 442 1017 q 883 994 860 997 l 868 892 l 442 892 q 364 843 381 892 q 357 814 360 831 l 318 569 l 757 556 l 740 453 l 299 439 l 258 193 q 279 129 251 140 q 335 121 300 121 l 747 121 l 729 19 l 301 -4 q 276 -4 294 -4 q 228 4 258 -4 q 126 142 126 32 q 129 181 126 161 l 232 831 q 435 1017 263 1017 z "},"ē":{"ha":729,"x_min":101,"x_max":763,"o":"m 299 833 l 314 926 l 719 926 l 704 833 l 299 833 m 393 289 q 236 308 282 289 q 228 213 228 253 q 239 149 228 172 q 335 104 261 106 q 441 103 367 103 q 669 125 515 103 l 654 31 q 329 -10 510 -10 q 297 -10 314 -10 q 124 90 165 -8 q 101 220 101 143 q 117 377 101 297 q 144 500 132 457 q 174 587 156 543 q 219 658 193 631 q 282 708 244 686 q 489 751 353 751 l 490 751 q 763 572 763 751 q 728 434 763 489 q 650 353 693 379 q 393 289 549 289 m 249 397 q 326 393 286 393 q 396 395 367 393 q 468 406 425 397 q 543 428 511 414 q 600 469 575 442 q 633 553 633 506 q 603 617 633 600 q 482 635 572 635 q 321 583 367 635 q 278 514 288 547 q 257 439 264 474 q 249 397 250 404 z "},"Ė":{"ha":785,"x_min":125,"x_max":885,"o":"m 594 1257 l 672 1257 q 699 1222 704 1257 l 685 1139 q 649 1107 681 1107 l 571 1107 q 549 1116 557 1107 q 542 1139 540 1125 l 556 1222 q 594 1257 561 1257 m 435 1017 q 651 1007 442 1017 q 883 994 860 997 l 868 892 l 442 892 q 364 843 381 892 q 357 814 360 831 l 318 569 l 757 556 l 740 453 l 299 439 l 258 193 q 279 129 251 140 q 335 121 300 121 l 747 121 l 729 19 l 301 -4 q 276 -4 294 -4 q 228 4 258 -4 q 126 142 126 32 q 129 181 126 161 l 232 831 q 435 1017 263 1017 z "},"ė":{"ha":729,"x_min":101,"x_max":763,"o":"m 489 985 l 567 985 q 593 950 597 985 l 579 867 q 543 835 575 835 l 465 835 q 442 844 450 835 q 436 867 433 853 l 450 950 q 489 985 454 985 m 393 289 q 236 308 282 289 q 228 213 228 253 q 239 149 228 172 q 335 104 261 106 q 441 103 367 103 q 669 125 515 103 l 654 31 q 329 -10 510 -10 q 297 -10 314 -10 q 124 90 165 -8 q 101 220 101 143 q 117 377 101 297 q 144 500 132 457 q 174 587 156 543 q 219 658 193 631 q 282 708 244 686 q 489 751 353 751 l 490 751 q 763 572 763 751 q 728 434 763 489 q 650 353 693 379 q 393 289 549 289 m 249 397 q 326 393 286 393 q 396 395 367 393 q 468 406 425 397 q 543 428 511 414 q 600 469 575 442 q 633 553 633 506 q 603 617 633 600 q 482 635 572 635 q 321 583 367 635 q 278 514 288 547 q 257 439 264 474 q 249 397 250 404 z "},"Ę":{"ha":778,"x_min":131,"x_max":890,"o":"m 540 -132 q 675 19 540 -36 l 735 19 q 638 -101 638 -50 q 703 -144 638 -144 q 715 -144 710 -144 l 701 -233 q 667 -237 683 -237 q 576 -205 611 -237 q 540 -132 540 -172 m 442 1017 q 657 1007 449 1017 q 890 994 865 997 l 874 892 l 449 892 q 369 843 386 892 q 364 814 367 831 l 325 569 l 763 556 l 746 453 l 304 439 l 265 193 q 285 129 257 140 q 342 121 306 121 l 753 121 l 736 19 l 307 -4 q 282 -4 300 -4 q 235 4 264 -4 q 132 142 132 32 q 135 181 132 161 l 238 831 q 442 1017 268 1017 z "},"ę":{"ha":729,"x_min":103,"x_max":765,"o":"m 463 -121 q 597 31 463 -25 l 657 31 q 560 -90 560 -39 q 625 -133 560 -133 q 638 -133 631 -133 l 622 -222 q 589 -226 606 -226 q 498 -194 533 -226 q 463 -121 463 -161 m 765 572 q 722 419 765 478 q 622 335 678 360 q 408 289 518 289 q 303 295 353 289 q 239 308 254 301 q 229 213 229 253 q 242 149 229 172 q 338 104 263 106 q 443 103 369 103 q 671 125 517 103 l 657 31 q 332 -10 513 -10 q 300 -10 315 -10 q 126 90 168 -8 q 104 220 104 143 q 119 377 104 297 q 146 500 135 457 q 176 587 157 543 q 222 658 196 631 q 285 708 247 686 q 492 751 354 751 l 492 751 q 765 572 765 751 m 251 397 q 328 393 288 393 q 399 395 369 393 q 470 406 428 397 q 545 428 513 414 q 603 469 578 442 q 636 553 636 506 q 606 617 636 600 q 485 635 575 635 q 322 583 369 635 q 279 514 290 547 q 260 444 267 474 q 254 411 254 414 q 251 397 253 403 z "},"Ě":{"ha":785,"x_min":125,"x_max":885,"o":"m 446 1289 l 546 1289 l 619 1181 l 738 1289 l 857 1289 l 669 1107 l 558 1107 l 446 1289 m 435 1017 q 651 1007 442 1017 q 883 994 860 997 l 868 892 l 442 892 q 364 843 381 892 q 357 814 360 831 l 318 569 l 757 556 l 740 453 l 299 439 l 258 193 q 279 129 251 140 q 335 121 300 121 l 747 121 l 729 19 l 301 -4 q 276 -4 294 -4 q 228 4 258 -4 q 126 142 126 32 q 129 181 126 161 l 232 831 q 435 1017 263 1017 z "},"ě":{"ha":729,"x_min":101,"x_max":763,"o":"m 338 1017 l 438 1017 l 513 908 l 629 1017 l 750 1017 l 561 835 l 451 835 l 338 1017 m 393 289 q 236 308 282 289 q 228 213 228 253 q 239 149 228 172 q 335 104 261 106 q 441 103 367 103 q 669 125 515 103 l 654 31 q 329 -10 510 -10 q 297 -10 314 -10 q 124 90 165 -8 q 101 220 101 143 q 117 377 101 297 q 144 500 132 457 q 174 587 156 543 q 219 658 193 631 q 282 708 244 686 q 489 751 353 751 l 490 751 q 763 572 763 751 q 728 434 763 489 q 650 353 693 379 q 393 289 549 289 m 249 397 q 326 393 286 393 q 396 395 367 393 q 468 406 425 397 q 543 428 511 414 q 600 469 575 442 q 633 553 633 506 q 603 617 633 600 q 482 635 572 635 q 321 583 367 635 q 278 514 288 547 q 257 439 264 474 q 249 397 250 404 z "},"Ĝ":{"ha":847,"x_min":142,"x_max":913,"o":"m 396 1110 l 583 1293 l 694 1293 l 807 1110 l 707 1110 l 633 1218 l 515 1110 l 396 1110 m 586 1026 q 911 985 714 1026 l 897 883 q 574 906 774 903 q 442 874 486 906 q 354 760 388 832 q 294 541 311 661 q 276 374 276 421 q 278 304 276 326 q 325 167 283 218 q 440 115 367 115 q 553 133 501 115 q 672 182 638 164 l 688 190 l 731 432 l 521 432 l 535 517 q 783 550 650 550 q 876 547 826 550 l 789 0 l 693 0 l 672 78 q 564 18 636 43 q 415 -10 490 -10 q 285 22 340 -10 q 156 228 185 79 q 143 326 143 290 q 144 402 143 363 q 160 532 144 442 q 196 697 175 622 q 249 838 217 772 q 326 942 282 903 q 576 1026 419 1026 q 586 1026 582 1026 z "},"ĝ":{"ha":769,"x_min":44,"x_max":806,"o":"m 310 831 l 499 1013 l 610 1013 l 721 831 l 622 831 l 547 939 l 429 831 l 310 831 m 404 -260 q 495 -226 457 -260 q 543 -128 533 -192 l 569 43 q 350 -10 446 -10 q 203 21 254 -10 q 132 106 153 51 q 108 243 108 168 q 122 390 108 318 q 231 656 150 565 q 438 747 313 747 q 804 713 563 747 l 671 -133 q 578 -321 650 -262 q 421 -379 507 -379 q 392 -378 407 -379 l 44 -344 l 58 -260 l 404 -260 m 248 361 q 242 323 248 361 q 236 255 236 285 q 238 211 236 225 q 246 174 239 197 q 265 138 253 150 q 356 106 296 106 q 462 112 417 106 q 585 139 507 118 l 664 632 l 439 632 q 367 611 400 632 q 315 562 335 590 q 282 494 296 533 q 248 361 260 438 z "},"Ğ":{"ha":847,"x_min":142,"x_max":913,"o":"m 536 1268 q 535 1241 535 1260 q 554 1200 535 1222 q 610 1178 574 1178 q 614 1178 611 1178 q 715 1268 701 1178 l 783 1268 q 610 1110 764 1110 q 507 1150 547 1110 q 467 1251 467 1190 q 468 1268 467 1260 l 536 1268 m 586 1026 q 911 985 714 1026 l 897 883 q 574 906 774 903 q 442 874 486 906 q 354 760 388 832 q 294 541 311 661 q 276 374 276 421 q 278 304 276 326 q 325 167 283 218 q 440 115 367 115 q 553 133 501 115 q 672 182 638 164 l 688 190 l 731 432 l 521 432 l 535 517 q 783 550 650 550 q 876 547 826 550 l 789 0 l 693 0 l 672 78 q 564 18 636 43 q 415 -10 490 -10 q 285 22 340 -10 q 156 228 185 79 q 143 326 143 290 q 144 402 143 363 q 160 532 144 442 q 196 697 175 622 q 249 838 217 772 q 326 942 282 903 q 576 1026 419 1026 q 586 1026 582 1026 z "},"ğ":{"ha":769,"x_min":44,"x_max":806,"o":"m 463 989 q 461 961 461 981 q 481 920 461 942 q 536 899 500 899 q 539 899 538 899 q 642 989 628 899 l 710 989 q 536 831 689 831 q 410 903 449 831 q 393 957 393 933 q 394 989 393 981 l 463 989 m 404 -260 q 495 -226 457 -260 q 543 -128 533 -192 l 569 43 q 350 -10 446 -10 q 203 21 254 -10 q 132 106 153 51 q 108 243 108 168 q 122 390 108 318 q 231 656 150 565 q 438 747 313 747 q 804 713 563 747 l 671 -133 q 578 -321 650 -262 q 421 -379 507 -379 q 392 -378 407 -379 l 44 -344 l 58 -260 l 404 -260 m 248 361 q 242 323 248 361 q 236 255 236 285 q 238 211 236 225 q 246 174 239 197 q 265 138 253 150 q 356 106 296 106 q 462 112 417 106 q 585 139 507 118 l 664 632 l 439 632 q 367 611 400 632 q 315 562 335 590 q 282 494 296 533 q 248 361 260 438 z "},"Ġ":{"ha":847,"x_min":142,"x_max":913,"o":"m 594 1261 l 672 1261 q 699 1226 703 1261 l 685 1143 q 649 1111 681 1111 l 571 1111 q 547 1120 556 1111 q 542 1143 539 1129 l 556 1226 q 594 1261 560 1261 m 586 1026 q 911 985 714 1026 l 897 883 q 574 906 774 903 q 442 874 486 906 q 354 760 388 832 q 294 541 311 661 q 276 374 276 421 q 278 304 276 326 q 325 167 283 218 q 440 115 367 115 q 553 133 501 115 q 672 182 638 164 l 688 190 l 731 432 l 521 432 l 535 517 q 783 550 650 550 q 876 547 826 550 l 789 0 l 693 0 l 672 78 q 564 18 636 43 q 415 -10 490 -10 q 285 22 340 -10 q 156 228 185 79 q 143 326 143 290 q 144 402 143 363 q 160 532 144 442 q 196 697 175 622 q 249 838 217 772 q 326 942 282 903 q 576 1026 419 1026 q 586 1026 582 1026 z "},"ġ":{"ha":769,"x_min":44,"x_max":806,"o":"m 524 981 l 601 981 q 628 946 632 981 l 614 863 q 578 831 610 831 l 500 831 q 476 840 485 831 q 471 863 468 849 l 485 946 q 524 981 489 981 m 404 -260 q 495 -226 457 -260 q 543 -128 533 -192 l 569 43 q 350 -10 446 -10 q 203 21 254 -10 q 132 106 153 51 q 108 243 108 168 q 122 390 108 318 q 231 656 150 565 q 438 747 313 747 q 804 713 563 747 l 671 -133 q 578 -321 650 -262 q 421 -379 507 -379 q 392 -378 407 -379 l 44 -344 l 58 -260 l 404 -260 m 248 361 q 242 323 248 361 q 236 255 236 285 q 238 211 236 225 q 246 174 239 197 q 265 138 253 150 q 356 106 296 106 q 462 112 417 106 q 585 139 507 118 l 664 632 l 439 632 q 367 611 400 632 q 315 562 335 590 q 282 494 296 533 q 248 361 260 438 z "},"Ģ":{"ha":847,"x_min":142,"x_max":913,"o":"m 408 -244 q 387 -236 394 -244 q 382 -214 379 -228 l 394 -135 q 431 -100 400 -100 l 506 -100 q 531 -126 531 -100 q 531 -135 531 -129 l 511 -258 q 489 -315 506 -293 q 392 -357 457 -357 q 365 -354 385 -357 l 374 -308 q 407 -299 400 -310 q 418 -272 415 -285 l 422 -244 l 408 -244 m 586 1026 q 911 985 714 1026 l 897 883 q 574 906 774 903 q 442 874 486 906 q 354 760 388 832 q 294 541 311 661 q 276 374 276 421 q 278 304 276 326 q 325 167 283 218 q 440 115 367 115 q 553 133 501 115 q 672 182 638 164 l 688 190 l 731 432 l 521 432 l 535 517 q 783 550 650 550 q 876 547 826 550 l 789 0 l 693 0 l 672 78 q 564 18 636 43 q 415 -10 490 -10 q 285 22 340 -10 q 156 228 185 79 q 143 326 143 290 q 144 402 143 363 q 160 532 144 442 q 196 697 175 622 q 249 838 217 772 q 326 942 282 903 q 576 1026 419 1026 q 586 1026 582 1026 z "},"ģ":{"ha":778,"x_min":50,"x_max":811,"o":"m 410 -260 q 501 -226 463 -260 q 549 -128 539 -192 l 576 43 q 357 -10 453 -10 q 210 21 261 -10 q 139 106 158 51 q 115 243 115 168 q 128 390 115 318 q 238 656 157 565 q 444 747 318 747 q 811 713 569 747 l 676 -133 q 585 -321 656 -262 q 426 -379 514 -379 q 397 -378 413 -379 l 50 -344 l 64 -260 l 410 -260 m 253 361 q 248 323 253 361 q 242 255 242 285 q 244 211 242 225 q 252 174 246 197 q 271 138 258 150 q 363 106 301 106 q 468 112 424 106 q 590 139 513 118 l 669 632 l 444 632 q 373 611 406 632 q 322 562 340 590 q 288 494 303 533 q 253 361 265 438 m 583 969 q 610 939 614 969 l 599 860 q 561 826 593 826 l 486 826 q 463 851 463 826 q 463 860 463 856 l 481 983 q 547 1074 492 1050 q 626 1081 582 1089 l 619 1035 q 592 1028 601 1035 q 579 1015 582 1021 q 575 997 576 1008 l 569 969 l 583 969 z "},"Ĥ":{"ha":886,"x_min":110,"x_max":975,"o":"m 432 1107 l 619 1289 l 731 1289 l 843 1107 l 743 1107 l 669 1215 l 551 1107 l 432 1107 m 110 0 l 271 1017 l 399 1017 l 324 553 l 772 553 l 847 1017 l 975 1017 l 814 0 l 686 0 l 756 431 l 307 431 l 238 0 l 110 0 z "},"ĥ":{"ha":757,"x_min":94,"x_max":796,"o":"m 129 1172 l 318 1354 l 429 1354 l 542 1172 l 442 1172 l 368 1281 l 249 1172 l 129 1172 m 604 750 q 761 681 714 750 q 796 558 796 628 q 792 508 796 535 l 710 0 l 582 0 l 664 508 q 667 552 667 525 q 644 606 667 579 q 561 633 622 633 q 450 617 500 633 q 311 558 400 600 l 222 0 l 94 0 l 267 1089 l 394 1089 l 326 653 q 351 667 331 656 q 378 682 372 679 q 402 695 383 685 q 428 708 421 706 q 454 719 436 711 q 483 731 472 728 q 510 738 493 733 q 540 744 528 743 q 604 750 579 750 z "},"Ħ":{"ha":896,"x_min":110,"x_max":1024,"o":"m 110 0 l 224 718 l 139 718 l 150 799 l 236 799 l 271 1017 l 399 1017 l 364 799 l 813 799 l 847 1017 l 975 1017 l 940 799 l 1024 799 l 1011 718 l 928 718 l 814 0 l 686 0 l 757 431 l 308 431 l 238 0 l 110 0 m 325 556 l 774 556 l 800 718 l 351 718 l 325 556 z "},"ħ":{"ha":754,"x_min":83,"x_max":776,"o":"m 775 558 q 771 508 775 535 l 690 0 l 563 0 l 643 508 q 646 552 646 525 q 624 606 646 579 q 553 633 601 633 q 303 558 457 633 l 215 0 l 83 0 l 218 844 l 114 844 l 126 925 l 229 925 l 256 1089 l 386 1089 l 361 925 l 539 925 l 526 844 l 349 844 l 318 653 q 354 674 324 657 q 394 694 385 690 q 429 711 403 699 q 469 728 456 724 q 504 739 482 732 q 585 750 542 750 q 740 681 693 750 q 775 558 775 628 z "},"Ĩ":{"ha":324,"x_min":115,"x_max":607,"o":"m 312 1259 q 328 1259 312 1259 q 387 1236 344 1258 q 438 1213 429 1214 q 460 1213 447 1213 q 523 1232 474 1213 q 585 1261 572 1251 l 606 1196 q 573 1172 596 1189 q 537 1147 550 1156 q 504 1128 524 1139 q 351 1132 429 1086 q 289 1156 313 1156 q 226 1145 250 1156 q 181 1123 203 1135 q 150 1107 158 1111 l 128 1169 q 240 1243 201 1226 q 312 1259 279 1260 m 115 0 l 276 1017 l 404 1017 l 243 0 l 115 0 z "},"ĩ":{"ha":282,"x_min":26,"x_max":506,"o":"m 210 981 q 227 980 210 981 q 285 957 243 979 q 337 935 328 935 q 359 935 346 935 q 422 953 372 935 q 485 983 471 972 l 504 918 q 472 894 494 911 q 435 869 449 878 q 403 850 422 861 q 250 854 328 807 q 188 876 211 876 q 125 866 149 876 q 79 844 101 856 q 49 828 57 832 l 26 890 q 139 965 100 947 q 210 981 178 982 m 75 0 l 192 738 l 319 738 l 203 0 l 75 0 z "},"Ī":{"ha":324,"x_min":58,"x_max":503,"o":"m 82 1101 l 97 1194 l 503 1194 l 488 1101 l 82 1101 m 58 0 l 219 1017 l 347 1017 l 186 0 l 58 0 z "},"ī":{"ha":282,"x_min":64,"x_max":485,"o":"m 64 828 l 79 922 l 485 922 l 469 828 l 64 828 m 75 0 l 192 738 l 319 738 l 203 0 l 75 0 z "},"Į":{"ha":324,"x_min":19,"x_max":406,"o":"m 19 -151 q 154 0 19 -56 l 214 0 q 117 -121 117 -69 q 182 -164 117 -164 q 194 -164 188 -164 l 179 -253 q 146 -256 163 -256 q 55 -224 90 -256 q 19 -151 19 -192 m 115 0 l 276 1017 l 404 1017 l 243 0 l 115 0 z "},"į":{"ha":282,"x_min":-54,"x_max":368,"o":"m -53 -144 q 81 8 -53 -49 l 142 8 q 44 -112 44 -62 q 110 -157 44 -157 q 122 -156 115 -157 l 107 -246 q 74 -249 90 -249 q -17 -217 18 -249 q -53 -144 -53 -185 m 76 0 l 204 0 l 321 738 l 193 738 l 76 0 m 250 976 l 340 976 q 368 950 368 976 q 367 942 368 946 l 354 853 q 317 821 349 821 l 226 821 q 203 830 211 821 q 199 853 196 839 l 211 942 q 250 976 217 976 z "},"İ":{"ha":324,"x_min":115,"x_max":446,"o":"m 418 1257 q 446 1229 446 1257 q 444 1222 446 1226 l 432 1139 q 396 1107 428 1107 l 318 1107 q 294 1116 303 1107 q 289 1139 286 1125 l 301 1222 q 340 1257 307 1257 l 418 1257 m 115 0 l 276 1017 l 404 1017 l 243 0 l 115 0 z "},"ı":{"ha":282,"x_min":75,"x_max":319,"o":"m 75 0 l 192 738 l 319 738 l 203 0 l 75 0 z "},"Ĵ":{"ha":499,"x_min":49,"x_max":738,"o":"m 325 1107 l 514 1289 l 625 1289 l 738 1107 l 638 1107 l 564 1215 l 446 1107 l 325 1107 m 69 126 q 174 110 149 110 q 213 112 200 110 q 250 122 226 114 q 288 147 274 131 q 332 253 322 186 l 453 1017 l 581 1017 l 456 229 q 399 65 439 117 q 206 -8 339 -8 q 50 31 103 -8 l 69 126 z "},"ĵ":{"ha":301,"x_min":31,"x_max":478,"o":"m 31 -375 l 207 738 l 340 738 l 222 -6 q 124 -375 189 -229 l 31 -375 m 65 829 l 253 1015 l 364 1015 l 478 829 l 374 829 l 303 933 l 189 829 l 65 829 z "},"Ķ":{"ha":813,"x_min":103,"x_max":951,"o":"m 364 -237 q 342 -229 350 -237 q 338 -206 335 -221 l 350 -128 q 388 -94 356 -94 l 463 -94 q 486 -119 486 -94 q 486 -128 486 -122 l 467 -251 q 444 -308 461 -286 q 347 -350 413 -350 q 322 -347 340 -350 l 329 -301 q 357 -296 346 -303 q 374 -265 369 -286 l 378 -237 l 364 -237 m 104 0 l 265 1017 l 390 1017 l 319 569 l 429 569 l 794 1017 l 951 1017 l 539 500 l 790 0 l 639 0 l 419 447 l 301 447 l 231 0 l 104 0 z "},"ķ":{"ha":696,"x_min":78,"x_max":751,"o":"m 319 -237 q 298 -229 306 -237 q 293 -206 290 -221 l 306 -128 q 343 -94 311 -94 l 418 -94 q 442 -119 442 -94 q 442 -128 442 -122 l 422 -251 q 400 -308 417 -286 q 303 -350 368 -350 q 278 -347 296 -350 l 285 -301 q 313 -296 301 -303 q 329 -265 325 -286 l 333 -237 l 319 -237 m 78 -3 l 250 1083 l 378 1083 l 276 444 q 481 565 371 474 q 610 735 592 657 l 750 735 q 622 532 719 628 q 442 397 525 436 l 706 -3 l 556 -3 l 317 360 l 264 358 l 206 -3 l 78 -3 z "},"ĸ":{"ha":747,"x_min":78,"x_max":840,"o":"m 78 0 l 194 738 l 322 738 l 274 422 l 389 422 l 679 738 l 839 738 l 507 361 l 718 0 l 569 0 l 386 308 l 256 308 l 206 0 l 78 0 z "},"Ĺ":{"ha":740,"x_min":46,"x_max":661,"o":"m 208 1100 l 381 1286 l 524 1286 l 313 1100 l 208 1100 m 256 124 l 660 124 l 642 0 l 215 0 q 90 39 133 0 q 46 140 46 78 q 50 181 46 160 l 185 1017 l 311 1017 l 179 196 q 200 132 172 143 q 256 124 219 124 z "},"ĺ":{"ha":408,"x_min":78,"x_max":557,"o":"m 242 1171 l 414 1358 l 556 1358 l 346 1171 l 242 1171 m 249 0 q 79 182 79 0 q 86 263 79 219 l 217 1088 l 344 1088 l 215 271 q 222 138 197 163 q 300 107 236 124 q 367 90 364 90 l 351 0 l 249 0 z "},"Ļ":{"ha":740,"x_min":126,"x_max":742,"o":"m 363 -237 q 341 -229 349 -237 q 336 -206 333 -221 l 347 -128 q 385 -94 353 -94 l 460 -94 q 485 -119 485 -94 q 483 -128 485 -122 l 464 -251 q 442 -308 458 -286 q 346 -350 411 -350 q 319 -347 339 -350 l 326 -301 q 360 -292 353 -303 q 371 -265 369 -278 l 376 -237 l 363 -237 m 338 124 l 742 124 l 722 0 l 297 0 q 172 39 215 0 q 128 140 128 78 q 131 181 128 160 l 265 1017 l 393 1017 l 261 196 q 281 132 253 143 q 338 124 301 124 z "},"ļ":{"ha":408,"x_min":110,"x_max":399,"o":"m 163 -237 q 141 -229 149 -237 q 136 -206 133 -221 l 147 -128 q 185 -94 153 -94 l 260 -94 q 285 -119 285 -94 q 285 -128 285 -122 l 265 -251 q 242 -308 260 -286 q 146 -350 211 -350 q 119 -347 139 -350 l 126 -301 q 154 -296 144 -303 q 171 -265 168 -286 l 176 -237 l 163 -237 m 281 0 q 111 182 111 0 q 118 263 111 219 l 249 1088 l 376 1088 l 247 271 q 254 138 229 163 q 332 107 268 124 q 397 90 396 90 l 383 0 l 281 0 z "},"Ľ":{"ha":740,"x_min":126,"x_max":742,"o":"m 338 124 l 742 124 l 722 0 l 297 0 q 172 39 215 0 q 128 140 128 78 q 131 181 128 160 l 265 1017 l 393 1017 l 261 196 q 281 132 253 143 q 338 124 301 124 m 467 793 l 481 979 l 496 1072 l 607 1072 l 592 979 l 549 793 l 467 793 z "},"ľ":{"ha":438,"x_min":110,"x_max":589,"o":"m 279 0 q 111 181 111 0 q 118 263 111 218 l 249 1088 l 376 1088 l 247 271 q 254 138 229 163 q 332 107 268 124 q 399 90 396 90 l 383 0 l 279 0 m 449 806 l 463 992 l 478 1085 l 589 1085 l 574 992 l 531 806 l 449 806 z "},"Ł":{"ha":740,"x_min":56,"x_max":740,"o":"m 335 124 l 739 124 l 719 0 l 296 0 q 169 39 213 0 q 125 140 125 78 q 129 181 125 160 l 178 489 l 56 439 l 71 528 l 193 576 l 263 1017 l 389 1017 l 328 632 l 524 711 l 508 622 l 315 544 l 260 196 q 269 139 253 151 q 277 132 274 135 q 288 128 281 129 q 298 126 294 126 q 310 124 301 125 q 335 124 321 124 z "},"ł":{"ha":497,"x_min":121,"x_max":592,"o":"m 318 271 q 308 191 308 219 q 317 148 308 163 q 338 127 326 133 q 408 106 349 121 q 469 90 467 90 l 456 0 l 353 0 q 182 182 182 0 q 189 263 182 218 l 235 551 l 122 506 l 136 594 l 249 639 l 321 1088 l 451 1088 l 389 697 l 590 778 l 575 689 l 376 608 l 318 271 z "},"Ń":{"ha":919,"x_min":103,"x_max":1003,"o":"m 596 1107 l 768 1294 l 910 1294 l 700 1107 l 596 1107 m 104 0 l 265 1017 l 390 1017 l 751 236 l 875 1017 l 1003 1017 l 842 0 l 718 0 l 356 778 l 233 0 l 104 0 z "},"ń":{"ha":757,"x_min":78,"x_max":781,"o":"m 465 833 l 638 1019 l 781 1019 l 569 833 l 465 833 m 588 750 q 743 681 696 750 q 778 558 778 628 q 774 508 778 535 l 693 0 l 565 0 l 646 508 q 649 552 649 525 q 626 606 649 579 q 543 633 604 633 q 432 617 482 633 q 294 558 382 600 l 206 0 l 78 0 l 194 738 l 290 738 l 308 653 q 334 668 314 657 q 360 682 354 679 q 385 695 367 685 q 413 708 404 706 q 438 719 421 711 q 466 730 456 726 q 493 738 476 733 q 524 744 510 743 q 588 750 561 750 z "},"Ņ":{"ha":919,"x_min":103,"x_max":1003,"o":"m 424 -237 q 402 -229 410 -237 q 397 -206 394 -221 l 410 -128 q 447 -94 415 -94 l 522 -94 q 546 -119 546 -94 q 546 -128 546 -122 l 526 -251 q 504 -308 521 -286 q 407 -350 472 -350 q 382 -347 400 -350 l 389 -301 q 417 -296 406 -303 q 433 -265 429 -286 l 438 -237 l 424 -237 m 104 0 l 265 1017 l 390 1017 l 751 236 l 875 1017 l 1003 1017 l 842 0 l 718 0 l 356 778 l 233 0 l 104 0 z "},"ņ":{"ha":757,"x_min":78,"x_max":779,"o":"m 324 -237 q 303 -229 310 -237 q 299 -206 296 -221 l 310 -128 q 347 -94 315 -94 l 422 -94 q 447 -119 447 -94 q 446 -128 447 -122 l 426 -251 q 404 -308 421 -286 q 308 -350 374 -350 q 282 -347 300 -350 l 289 -301 q 322 -292 315 -303 q 333 -265 331 -278 l 338 -237 l 324 -237 m 588 750 q 743 681 696 750 q 778 558 778 628 q 774 508 778 535 l 693 0 l 565 0 l 646 508 q 649 552 649 525 q 626 606 649 579 q 543 633 604 633 q 432 617 482 633 q 294 558 382 600 l 206 0 l 78 0 l 194 738 l 290 738 l 308 653 q 334 668 314 657 q 360 682 354 679 q 385 695 367 685 q 413 708 404 706 q 438 719 421 711 q 466 730 456 726 q 493 738 476 733 q 524 744 510 743 q 588 750 561 750 z "},"Ň":{"ha":919,"x_min":103,"x_max":1003,"o":"m 471 1289 l 571 1289 l 646 1181 l 763 1289 l 883 1289 l 694 1107 l 585 1107 l 471 1289 m 104 0 l 265 1017 l 390 1017 l 751 236 l 875 1017 l 1003 1017 l 842 0 l 718 0 l 356 778 l 233 0 l 104 0 z "},"ň":{"ha":757,"x_min":78,"x_max":779,"o":"m 347 1017 l 447 1017 l 521 907 l 639 1017 l 758 1017 l 571 833 l 460 833 l 347 1017 m 588 750 q 743 681 696 750 q 778 558 778 628 q 774 508 778 535 l 693 0 l 565 0 l 646 508 q 649 552 649 525 q 626 606 649 579 q 543 633 604 633 q 432 617 482 633 q 294 558 382 600 l 206 0 l 78 0 l 194 738 l 290 738 l 308 653 q 334 668 314 657 q 360 682 354 679 q 385 695 367 685 q 413 708 404 706 q 438 719 421 711 q 466 730 456 726 q 493 738 476 733 q 524 744 510 743 q 588 750 561 750 z "},"Ŋ":{"ha":919,"x_min":103,"x_max":1003,"o":"m 574 -354 q 509 -357 535 -357 q 472 -357 483 -357 l 488 -261 q 524 -254 500 -258 q 562 -247 547 -250 q 597 -236 576 -243 q 632 -219 618 -229 q 660 -192 646 -208 q 699 -94 688 -161 l 715 7 l 356 778 l 233 0 l 104 0 l 265 1017 l 390 1017 l 751 238 l 875 1017 l 1003 1017 l 824 -112 q 574 -354 789 -333 z "},"ŋ":{"ha":771,"x_min":78,"x_max":779,"o":"m 588 750 q 743 681 696 750 q 778 558 778 628 q 774 508 778 535 l 674 -117 q 576 -293 649 -235 q 439 -361 517 -340 q 394 -372 422 -365 l 361 -306 q 384 -295 364 -304 q 409 -283 404 -286 q 433 -271 414 -281 q 459 -255 451 -261 q 481 -237 467 -249 q 503 -215 496 -225 q 521 -189 511 -204 q 546 -122 539 -164 l 646 508 q 649 552 649 525 q 626 606 649 579 q 543 633 604 633 q 432 617 482 633 q 294 558 382 600 l 206 0 l 78 0 l 194 738 l 290 738 l 308 654 q 338 669 319 658 q 367 685 357 679 q 395 699 378 690 q 425 713 413 708 q 454 725 438 718 q 485 735 471 732 q 517 743 500 739 q 588 750 549 750 z "},"Ō":{"ha":925,"x_min":138,"x_max":968,"o":"m 443 1101 l 458 1194 l 864 1194 l 849 1101 l 443 1101 m 460 1010 q 481 1014 460 1010 q 538 1021 501 1018 q 623 1024 574 1024 q 710 1020 672 1024 q 787 1006 749 1017 q 852 978 825 996 q 904 933 879 961 q 963 774 947 885 q 967 706 967 738 q 951 506 967 610 q 915 327 935 401 q 870 200 894 253 q 813 110 846 147 q 747 51 781 74 q 669 15 714 28 q 389 -1 551 -18 q 235 50 289 8 q 147 203 167 104 q 139 288 139 251 q 140 367 139 325 q 155 502 140 410 q 187 665 169 594 q 226 788 204 736 q 272 879 249 840 q 328 944 296 918 q 389 985 360 969 q 460 1010 418 1001 m 325 693 q 319 674 325 693 q 302 608 313 656 q 279 480 292 560 q 266 363 267 400 q 265 294 265 326 q 276 220 265 261 q 318 156 288 179 q 388 126 349 133 q 490 118 428 118 q 593 126 551 118 q 673 159 635 135 q 738 225 711 183 q 822 501 793 315 q 840 682 840 617 q 833 777 840 747 q 817 827 825 807 q 790 861 808 847 q 757 883 772 875 q 715 894 742 890 q 631 900 676 900 q 566 899 585 900 q 521 896 547 899 q 478 888 494 893 q 441 872 463 882 q 406 847 419 863 q 376 810 393 832 q 349 760 360 789 q 325 693 338 731 z "},"ō":{"ha":781,"x_min":108,"x_max":788,"o":"m 315 828 l 331 922 l 736 922 l 721 828 l 315 828 m 239 667 q 263 689 239 667 q 348 728 286 711 q 517 744 410 744 q 778 572 738 744 q 788 476 788 531 q 775 353 788 422 q 663 69 742 146 q 403 -7 585 -7 q 154 79 221 -7 q 110 249 110 138 q 124 389 110 300 q 165 551 138 478 q 239 667 192 624 m 331 583 q 315 569 331 583 q 281 502 300 556 q 249 373 263 449 q 236 263 236 297 q 239 206 236 228 q 253 167 242 185 q 277 138 264 149 q 313 121 290 126 q 401 110 347 110 q 482 115 454 111 q 539 131 510 118 q 586 172 568 144 q 620 244 604 199 q 647 358 636 290 q 660 477 660 432 q 652 552 660 522 q 621 599 644 582 q 506 628 582 628 q 396 619 431 628 q 331 583 361 611 z "},"Ő":{"ha":925,"x_min":138,"x_max":999,"o":"m 488 1107 l 660 1294 l 801 1294 l 592 1107 l 488 1107 m 683 1107 l 856 1294 l 997 1294 l 788 1107 l 683 1107 m 460 1010 q 481 1014 460 1010 q 538 1021 501 1018 q 623 1024 574 1024 q 710 1020 672 1024 q 787 1006 749 1017 q 852 978 825 996 q 904 933 879 961 q 963 774 947 885 q 967 706 967 738 q 951 506 967 610 q 915 327 935 401 q 870 200 894 253 q 813 110 846 147 q 747 51 781 74 q 669 15 714 28 q 389 -1 551 -18 q 235 50 289 8 q 147 203 167 104 q 139 288 139 251 q 140 367 139 325 q 155 502 140 410 q 187 665 169 594 q 226 788 204 736 q 272 879 249 840 q 328 944 296 918 q 389 985 360 969 q 460 1010 418 1001 m 325 693 q 319 674 325 693 q 302 608 313 656 q 279 480 292 560 q 266 363 267 400 q 265 294 265 326 q 276 220 265 261 q 318 156 288 179 q 388 126 349 133 q 490 118 428 118 q 593 126 551 118 q 673 159 635 135 q 738 225 711 183 q 822 501 793 315 q 840 682 840 617 q 833 777 840 747 q 817 827 825 807 q 790 861 808 847 q 757 883 772 875 q 715 894 742 890 q 631 900 676 900 q 566 899 585 900 q 521 896 547 899 q 478 888 494 893 q 441 872 463 882 q 406 847 419 863 q 376 810 393 832 q 349 760 360 789 q 325 693 338 731 z "},"ő":{"ha":781,"x_min":108,"x_max":879,"o":"m 368 828 l 540 1015 l 683 1015 l 472 828 l 368 828 m 564 828 l 736 1015 l 878 1015 l 668 828 l 564 828 m 239 667 q 263 689 239 667 q 348 728 286 711 q 517 744 410 744 q 778 572 738 744 q 788 476 788 531 q 775 353 788 422 q 663 69 742 146 q 403 -7 585 -7 q 154 79 221 -7 q 110 249 110 138 q 124 389 110 300 q 165 551 138 478 q 239 667 192 624 m 331 583 q 315 569 331 583 q 281 502 300 556 q 249 373 263 449 q 236 263 236 297 q 239 206 236 228 q 253 167 242 185 q 277 138 264 149 q 313 121 290 126 q 401 110 347 110 q 482 115 454 111 q 539 131 510 118 q 586 172 568 144 q 620 244 604 199 q 647 358 636 290 q 660 477 660 432 q 652 552 660 522 q 621 599 644 582 q 506 628 582 628 q 396 619 431 628 q 331 583 361 611 z "},"Œ":{"ha":1479,"x_min":121,"x_max":1513,"o":"m 635 1024 q 892 919 822 1024 q 961 997 918 978 q 1060 1017 1004 1017 q 1278 1007 1068 1017 q 1511 994 1488 997 l 1496 892 l 1069 892 q 992 843 1008 892 q 985 814 988 831 l 947 569 l 1385 556 l 1369 453 l 926 439 l 886 193 q 907 129 879 140 q 963 121 928 121 l 1375 121 l 1357 19 l 931 -4 q 917 -4 924 -4 q 829 17 871 -4 q 769 85 788 38 q 585 1 699 15 q 474 -6 535 -6 q 372 -1 413 -6 q 289 15 332 3 q 218 50 246 28 q 131 203 149 104 q 121 288 121 251 q 122 367 121 325 q 137 502 122 410 q 169 665 151 594 q 210 788 188 736 q 256 879 232 840 q 310 944 279 918 q 372 985 342 969 q 442 1010 401 1001 q 635 1024 511 1024 m 285 607 q 247 310 247 428 q 321 143 247 179 q 460 118 372 118 q 598 132 549 118 q 689 188 647 146 q 804 501 767 263 q 822 682 822 617 q 815 777 822 747 q 799 827 807 807 q 772 861 790 847 q 740 883 754 875 q 699 894 725 890 q 613 900 660 900 q 548 899 567 900 q 503 896 529 899 q 460 888 476 893 q 424 872 444 882 q 390 847 403 863 q 360 810 376 832 q 331 760 343 789 q 285 607 300 681 z "},"œ":{"ha":1268,"x_min":99,"x_max":1292,"o":"m 922 289 q 765 308 811 289 q 756 212 756 253 q 768 149 756 171 q 864 104 789 104 q 1199 125 1058 104 l 1183 31 q 858 -10 1039 -10 q 826 -10 843 -10 q 661 82 703 -8 q 555 14 619 35 q 392 -7 490 -7 q 144 81 210 -7 q 99 251 99 140 q 111 381 99 304 q 144 522 124 458 q 194 630 165 586 q 268 699 224 674 q 494 744 349 744 q 736 639 676 744 q 1018 751 817 751 l 1018 751 q 1292 572 1292 751 q 1257 434 1292 489 q 1179 353 1222 379 q 922 289 1078 289 m 225 236 q 253 150 225 188 q 397 111 282 111 q 521 128 483 111 q 576 172 558 144 q 609 244 593 199 q 638 358 625 290 q 650 477 650 432 q 642 552 650 522 q 611 599 633 582 q 481 628 571 628 q 319 583 361 628 q 252 441 279 542 q 225 236 225 340 m 778 397 q 855 393 814 393 q 925 395 896 393 q 997 406 954 397 q 1072 428 1040 414 q 1129 469 1104 442 q 1163 560 1163 506 q 1136 614 1163 601 q 1013 635 1097 635 q 849 583 896 635 q 806 514 817 547 q 786 439 793 474 q 778 397 779 404 z "},"Ŕ":{"ha":844,"x_min":94,"x_max":892,"o":"m 525 1106 l 697 1293 l 840 1293 l 629 1106 l 525 1106 m 689 1017 q 849 943 793 1017 q 890 779 890 886 q 838 532 890 629 q 693 418 788 436 q 668 414 683 417 l 815 0 l 674 0 l 540 403 l 290 421 l 224 0 l 96 0 l 257 1017 l 689 1017 m 600 526 q 706 569 663 526 q 760 767 760 622 q 724 882 760 863 q 664 894 703 894 l 365 894 l 308 526 l 600 526 z "},"ŕ":{"ha":589,"x_min":171,"x_max":807,"o":"m 492 829 l 664 1017 l 806 1017 l 596 829 l 492 829 m 535 716 q 553 724 535 716 q 605 739 571 732 q 694 746 639 746 q 771 735 750 746 l 750 610 q 645 617 715 617 q 519 599 575 617 q 383 536 464 582 l 299 0 l 171 0 l 288 738 l 385 738 l 400 644 q 430 662 406 647 q 476 688 454 676 q 535 716 499 700 z "},"Ŗ":{"ha":844,"x_min":97,"x_max":893,"o":"m 388 -237 q 366 -229 374 -237 q 361 -206 358 -221 l 374 -128 q 411 -94 379 -94 l 486 -94 q 510 -119 510 -94 q 510 -128 510 -122 l 490 -251 q 468 -308 485 -286 q 371 -350 436 -350 q 346 -347 364 -350 l 353 -301 q 381 -296 369 -303 q 397 -265 393 -286 l 401 -237 l 388 -237 m 692 1017 q 851 943 796 1017 q 893 779 893 886 q 840 532 893 629 q 696 418 790 436 q 671 414 685 417 l 817 0 l 675 0 l 543 403 l 292 421 l 225 0 l 97 0 l 258 1017 l 692 1017 m 603 526 q 763 767 763 526 q 726 882 763 863 q 667 894 706 894 l 368 894 l 310 526 l 603 526 z "},"ŗ":{"ha":589,"x_min":78,"x_max":732,"o":"m 121 -237 q 100 -229 107 -237 q 94 -206 93 -221 l 107 -128 q 144 -94 113 -94 l 219 -94 q 244 -119 244 -94 q 243 -128 244 -122 l 224 -251 q 201 -308 218 -286 q 106 -350 169 -350 q 79 -347 97 -350 l 86 -301 q 114 -296 103 -303 q 131 -265 126 -286 l 135 -237 l 121 -237 m 458 699 q 473 707 458 699 q 538 731 488 715 q 649 746 588 746 q 731 735 710 746 l 711 610 q 606 617 676 617 q 480 599 535 617 q 344 536 425 582 l 260 0 l 132 0 l 249 738 l 346 738 l 361 644 q 398 665 367 647 q 458 699 429 683 z "},"Ř":{"ha":844,"x_min":97,"x_max":893,"o":"m 411 1289 l 510 1289 l 585 1181 l 703 1289 l 822 1289 l 633 1107 l 524 1107 l 411 1289 m 692 1017 q 851 943 796 1017 q 893 779 893 886 q 840 532 893 629 q 696 418 790 436 q 671 414 685 417 l 817 0 l 675 0 l 543 403 l 292 421 l 225 0 l 97 0 l 258 1017 l 692 1017 m 603 526 q 763 767 763 526 q 726 882 763 863 q 667 894 706 894 l 368 894 l 310 526 l 603 526 z "},"ř":{"ha":589,"x_min":78,"x_max":686,"o":"m 274 1013 l 374 1013 l 449 904 l 565 1013 l 686 1013 l 497 829 l 388 829 l 274 1013 m 405 699 q 420 707 405 699 q 485 731 435 715 q 596 746 535 746 q 678 735 657 746 l 657 610 q 551 617 622 617 q 426 599 481 617 q 290 536 371 582 l 206 0 l 78 0 l 194 738 l 292 738 l 307 644 q 344 665 313 647 q 405 699 375 683 z "},"Ś":{"ha":796,"x_min":92,"x_max":844,"o":"m 511 1108 l 683 1296 l 825 1296 l 615 1108 l 511 1108 m 829 889 l 489 901 q 467 901 476 901 q 359 878 399 901 q 306 769 319 854 l 294 689 q 291 621 286 639 q 299 594 296 603 q 313 579 303 585 q 329 570 322 574 q 350 565 336 567 q 388 564 369 564 q 408 564 406 564 l 589 564 q 694 541 651 564 q 754 482 738 518 q 781 385 781 428 q 775 317 781 342 l 761 222 q 727 115 753 160 q 670 46 701 69 q 594 8 639 22 q 249 0 483 -25 q 93 25 142 13 l 108 126 q 451 113 213 113 q 633 228 617 113 l 647 311 q 651 361 651 336 q 642 406 651 386 q 557 436 625 436 l 379 436 q 160 622 160 436 q 164 683 160 651 l 179 779 q 293 985 203 935 q 474 1025 367 1025 q 667 1013 549 1025 q 844 990 785 1001 l 829 889 z "},"ś":{"ha":706,"x_min":107,"x_max":754,"o":"m 439 835 l 611 1021 l 753 1021 l 543 835 l 439 835 m 493 106 q 574 174 563 106 l 583 238 q 586 263 586 249 q 575 292 586 278 q 525 307 564 307 l 331 307 q 182 351 228 307 q 147 449 147 385 q 151 497 147 471 l 163 567 q 229 705 178 660 q 383 750 281 750 q 608 740 496 750 q 751 724 721 731 l 736 633 l 382 633 q 296 583 313 633 q 290 560 292 574 l 281 499 q 292 435 271 446 q 326 427 307 426 q 349 428 346 428 l 547 428 q 682 375 639 428 q 715 278 715 335 q 713 242 715 260 l 700 154 q 653 43 689 81 q 585 -1 617 7 q 478 -12 535 -12 q 282 -2 421 -12 q 107 17 143 8 l 121 106 l 493 106 z "},"Ŝ":{"ha":796,"x_min":106,"x_max":860,"o":"m 363 1108 l 551 1292 l 663 1292 l 775 1108 l 675 1108 l 601 1218 l 482 1108 l 363 1108 m 843 889 l 503 901 q 481 901 490 901 q 373 878 413 901 q 321 769 333 854 l 308 689 q 305 621 300 639 q 314 594 310 603 q 327 579 318 585 q 343 570 336 574 q 364 565 350 567 q 402 564 385 564 q 422 564 419 564 l 603 564 q 708 541 665 564 q 768 482 751 518 q 794 385 794 428 q 789 317 794 342 l 776 222 q 741 115 767 160 q 684 46 715 69 q 608 8 653 22 q 263 0 497 -25 q 107 25 156 13 l 122 126 q 465 113 228 113 q 647 228 631 113 l 661 311 q 665 361 665 336 q 656 406 665 386 q 571 436 639 436 l 393 436 q 174 622 174 436 q 179 683 174 651 l 193 779 q 307 985 217 935 q 488 1025 381 1025 q 681 1013 563 1025 q 858 990 799 1001 l 843 889 z "},"ŝ":{"ha":706,"x_min":85,"x_max":731,"o":"m 275 835 l 463 1017 l 574 1017 l 686 835 l 586 835 l 513 943 l 394 835 l 275 835 m 472 106 q 551 174 540 106 l 563 238 q 565 263 565 249 q 554 292 565 278 q 504 307 543 307 l 310 307 q 160 351 207 307 q 126 449 126 385 q 131 497 126 471 l 142 567 q 208 705 157 660 q 363 750 258 750 q 587 740 475 750 q 731 724 699 731 l 715 633 l 361 633 q 274 583 292 633 q 268 560 271 574 l 258 499 q 271 435 250 446 q 305 427 286 426 q 328 428 324 428 l 526 428 q 661 375 618 428 q 694 278 694 335 q 692 242 694 260 l 679 154 q 632 43 668 81 q 563 -1 596 7 q 456 -12 514 -12 q 260 -2 399 -12 q 86 17 121 8 l 100 106 l 472 106 z "},"Ş":{"ha":796,"x_min":106,"x_max":860,"o":"m 314 -253 l 242 -253 l 251 -193 l 324 -172 q 375 -111 361 -157 q 386 -62 381 -93 l 489 -62 q 435 -212 472 -171 q 314 -253 399 -253 m 843 889 l 503 901 q 481 901 490 901 q 373 878 413 901 q 321 769 333 854 l 308 689 q 305 621 300 639 q 314 594 310 603 q 327 579 318 585 q 343 570 336 574 q 364 565 350 567 q 402 564 385 564 q 422 564 419 564 l 603 564 q 708 541 665 564 q 768 482 751 518 q 794 385 794 428 q 789 317 794 342 l 776 222 q 741 115 767 160 q 684 46 715 69 q 608 8 653 22 q 263 0 497 -25 q 107 25 156 13 l 122 126 q 465 113 228 113 q 647 228 631 113 l 661 311 q 665 361 665 336 q 656 406 665 386 q 571 436 639 436 l 393 436 q 174 622 174 436 q 179 683 174 651 l 193 779 q 307 985 217 935 q 488 1025 381 1025 q 681 1013 563 1025 q 858 990 799 1001 l 843 889 z "},"ş":{"ha":706,"x_min":85,"x_max":731,"o":"m 251 -244 l 179 -244 l 189 -185 l 261 -164 q 303 -126 290 -153 q 324 -54 317 -100 l 426 -54 q 374 -203 410 -161 q 251 -244 336 -244 m 472 106 q 551 174 540 106 l 563 238 q 565 263 565 249 q 554 292 565 278 q 504 307 543 307 l 310 307 q 160 351 207 307 q 126 449 126 385 q 131 497 126 471 l 142 567 q 208 705 157 660 q 363 750 258 750 q 587 740 475 750 q 731 724 699 731 l 715 633 l 361 633 q 274 583 292 633 q 268 560 271 574 l 258 499 q 271 435 250 446 q 305 427 286 426 q 328 428 324 428 l 526 428 q 661 375 618 428 q 694 278 694 335 q 692 242 694 260 l 679 154 q 632 43 668 81 q 563 -1 596 7 q 456 -12 514 -12 q 260 -2 399 -12 q 86 17 121 8 l 100 106 l 472 106 z "},"Š":{"ha":796,"x_min":106,"x_max":860,"o":"m 410 1292 l 510 1292 l 583 1183 l 701 1292 l 821 1292 l 633 1108 l 522 1108 l 410 1292 m 843 889 l 503 901 q 481 901 490 901 q 373 878 413 901 q 321 769 333 854 l 308 689 q 305 621 300 639 q 314 594 310 603 q 327 579 318 585 q 343 570 336 574 q 364 565 350 567 q 402 564 385 564 q 422 564 419 564 l 603 564 q 708 541 665 564 q 768 482 751 518 q 794 385 794 428 q 789 317 794 342 l 776 222 q 741 115 767 160 q 684 46 715 69 q 608 8 653 22 q 263 0 497 -25 q 107 25 156 13 l 122 126 q 465 113 228 113 q 647 228 631 113 l 661 311 q 665 361 665 336 q 656 406 665 386 q 571 436 639 436 l 393 436 q 174 622 174 436 q 179 683 174 651 l 193 779 q 307 985 217 935 q 488 1025 381 1025 q 681 1013 563 1025 q 858 990 799 1001 l 843 889 z "},"š":{"ha":706,"x_min":85,"x_max":731,"o":"m 300 1017 l 400 1017 l 474 908 l 592 1017 l 711 1017 l 522 835 l 413 835 l 300 1017 m 472 106 q 551 174 540 106 l 563 238 q 565 263 565 249 q 554 292 565 278 q 504 307 543 307 l 310 307 q 160 351 207 307 q 126 449 126 385 q 131 497 126 471 l 142 567 q 208 705 157 660 q 363 750 258 750 q 587 740 475 750 q 731 724 699 731 l 715 633 l 361 633 q 274 583 292 633 q 268 560 271 574 l 258 499 q 271 435 250 446 q 305 427 286 426 q 328 428 324 428 l 526 428 q 661 375 618 428 q 694 278 694 335 q 692 242 694 260 l 679 154 q 632 43 668 81 q 563 -1 596 7 q 456 -12 514 -12 q 260 -2 399 -12 q 86 17 121 8 l 100 106 l 472 106 z "},"Ţ":{"ha":807,"x_min":157,"x_max":897,"o":"m 240 -256 l 167 -256 l 176 -196 l 250 -175 q 291 -137 278 -164 q 311 -65 304 -111 l 415 -65 q 361 -215 399 -174 q 240 -256 324 -256 m 158 893 l 178 1017 l 896 1017 l 876 893 l 576 893 l 436 0 l 308 0 l 449 893 l 158 893 z "},"ţ":{"ha":524,"x_min":89,"x_max":599,"o":"m 163 -258 l 89 -258 l 99 -199 l 172 -178 q 226 -106 213 -161 q 233 -68 231 -90 l 338 -68 q 307 -181 326 -140 q 253 -240 288 -221 q 163 -258 219 -258 m 354 0 q 186 182 186 0 q 193 263 186 219 l 250 624 l 117 624 l 131 710 l 268 739 l 328 944 l 428 944 l 396 739 l 597 739 l 579 624 l 378 624 l 322 271 q 329 138 306 163 q 407 106 343 124 q 472 89 471 89 l 460 0 l 354 0 z "},"Ť":{"ha":807,"x_min":186,"x_max":925,"o":"m 403 1289 l 503 1289 l 578 1181 l 694 1289 l 815 1289 l 626 1107 l 517 1107 l 403 1289 m 186 893 l 207 1017 l 925 1017 l 904 893 l 606 893 l 464 0 l 336 0 l 478 893 l 186 893 z "},"ť":{"ha":563,"x_min":90,"x_max":619,"o":"m 296 272 q 288 192 288 219 q 296 149 288 164 q 315 128 304 133 q 384 106 325 122 q 446 90 443 90 l 432 1 l 328 1 q 190 64 235 1 q 160 182 160 106 q 167 264 160 218 l 224 624 l 92 624 l 104 710 l 242 739 l 301 944 l 401 944 l 369 739 l 571 739 l 553 624 l 351 624 l 296 272 m 478 832 l 493 1018 l 507 1111 l 618 1111 l 604 1018 l 560 832 l 478 832 z "},"Ŧ":{"ha":811,"x_min":186,"x_max":925,"o":"m 186 893 l 207 1017 l 925 1017 l 904 893 l 606 893 l 561 613 l 719 613 l 707 533 l 549 533 l 464 0 l 336 0 l 421 533 l 263 533 l 275 613 l 433 613 l 478 893 l 186 893 z "},"ŧ":{"ha":513,"x_min":104,"x_max":603,"o":"m 358 1 q 221 64 265 1 q 190 182 190 106 q 199 264 190 218 l 214 368 l 106 368 l 118 447 l 228 447 l 254 624 l 122 624 l 136 710 l 274 739 l 332 944 l 433 944 l 401 739 l 603 739 l 583 624 l 382 624 l 356 447 l 492 447 l 479 368 l 342 368 l 326 272 q 333 139 310 164 q 379 117 347 125 q 478 90 475 90 l 464 1 l 358 1 z "},"Ũ":{"ha":910,"x_min":157,"x_max":994,"o":"m 599 1259 q 616 1259 599 1259 q 674 1236 632 1258 q 726 1213 717 1214 q 748 1213 735 1213 q 810 1232 761 1213 q 874 1261 860 1251 l 893 1196 q 860 1172 883 1189 q 825 1147 838 1156 q 792 1128 813 1139 q 639 1132 717 1086 q 576 1156 600 1156 q 506 1142 535 1156 q 463 1119 478 1128 q 438 1107 447 1111 l 417 1169 q 528 1243 489 1226 q 599 1259 567 1260 m 299 424 q 288 310 288 342 q 288 272 288 279 q 379 131 290 161 q 481 117 418 117 q 678 185 611 117 q 771 424 744 254 l 864 1017 l 993 1017 l 901 417 q 744 74 861 167 q 468 -7 644 -7 q 189 133 249 -7 q 157 283 157 206 q 169 429 157 360 l 263 1017 l 392 1017 l 299 424 z "},"ũ":{"ha":756,"x_min":97,"x_max":797,"o":"m 460 981 q 477 980 460 981 q 535 957 493 979 q 587 935 578 935 q 609 935 596 935 q 672 953 622 935 q 733 983 721 972 l 754 918 q 722 894 744 911 q 685 869 699 878 q 653 850 672 861 q 500 854 578 807 q 438 876 460 876 q 375 866 399 876 q 329 844 351 856 q 299 828 307 832 l 276 890 q 389 965 350 947 q 460 981 428 982 m 229 229 q 226 180 226 208 q 248 128 226 151 q 331 106 269 106 q 443 122 393 106 q 582 181 493 138 l 669 738 l 797 738 l 681 0 l 585 0 l 565 83 q 529 63 561 81 q 468 31 497 46 q 279 -12 381 -12 q 132 56 178 -12 q 97 175 97 104 q 101 231 97 201 l 182 738 l 310 738 l 229 229 z "},"Ū":{"ha":910,"x_min":157,"x_max":994,"o":"m 440 1107 l 456 1200 l 861 1200 l 846 1107 l 440 1107 m 299 424 q 288 310 288 342 q 288 272 288 279 q 379 131 290 161 q 481 117 418 117 q 678 185 611 117 q 771 424 744 254 l 864 1017 l 993 1017 l 901 417 q 744 74 861 167 q 468 -7 644 -7 q 189 133 249 -7 q 157 283 157 206 q 169 429 157 360 l 263 1017 l 392 1017 l 299 424 z "},"ū":{"ha":756,"x_min":97,"x_max":797,"o":"m 301 828 l 315 922 l 721 922 l 707 828 l 301 828 m 229 229 q 226 180 226 208 q 248 128 226 151 q 331 106 269 106 q 443 122 393 106 q 582 181 493 138 l 669 738 l 797 738 l 681 0 l 585 0 l 565 83 q 529 63 561 81 q 468 31 497 46 q 279 -12 381 -12 q 132 56 178 -12 q 97 175 97 104 q 101 231 97 201 l 182 738 l 310 738 l 229 229 z "},"Ŭ":{"ha":910,"x_min":157,"x_max":994,"o":"m 578 1265 q 578 1238 578 1257 q 597 1197 578 1218 q 651 1175 617 1175 q 656 1175 654 1175 q 758 1265 744 1175 l 826 1265 q 651 1107 806 1107 q 550 1147 590 1107 q 510 1247 510 1188 q 510 1265 510 1256 l 578 1265 m 299 424 q 288 310 288 342 q 288 272 288 279 q 379 131 290 161 q 481 117 418 117 q 678 185 611 117 q 771 424 744 254 l 864 1017 l 993 1017 l 901 417 q 744 74 861 167 q 468 -7 644 -7 q 189 133 249 -7 q 157 283 157 206 q 169 429 157 360 l 263 1017 l 392 1017 l 299 424 z "},"ŭ":{"ha":756,"x_min":97,"x_max":797,"o":"m 439 986 q 438 959 438 978 q 457 918 438 940 q 513 896 476 896 q 517 896 515 896 q 618 986 606 896 l 688 986 q 513 828 667 828 q 411 868 451 828 q 371 969 371 908 q 371 986 371 978 l 439 986 m 229 229 q 226 180 226 208 q 248 128 226 151 q 331 106 269 106 q 443 122 393 106 q 582 181 493 138 l 669 738 l 797 738 l 681 0 l 585 0 l 565 83 q 529 63 561 81 q 468 31 497 46 q 279 -12 381 -12 q 132 56 178 -12 q 97 175 97 104 q 101 231 97 201 l 182 738 l 310 738 l 229 229 z "},"Ů":{"ha":910,"x_min":157,"x_max":994,"o":"m 572 1346 q 595 1368 572 1346 q 678 1390 619 1390 q 772 1351 736 1390 q 807 1263 807 1313 q 760 1151 807 1194 q 654 1107 713 1107 q 560 1146 596 1107 q 524 1235 524 1185 q 572 1346 524 1301 m 719 1301 q 710 1311 719 1301 q 672 1321 701 1321 q 618 1298 643 1321 q 593 1246 593 1275 q 612 1197 593 1217 q 660 1178 631 1178 q 711 1199 689 1178 q 738 1251 738 1221 q 719 1301 738 1281 m 299 424 q 288 310 288 342 q 288 272 288 279 q 379 131 290 161 q 481 117 418 117 q 678 185 611 117 q 771 424 744 254 l 864 1017 l 993 1017 l 901 417 q 744 74 861 167 q 468 -7 644 -7 q 189 133 249 -7 q 157 283 157 206 q 169 429 157 360 l 263 1017 l 392 1017 l 299 424 z "},"ů":{"ha":756,"x_min":97,"x_max":797,"o":"m 433 1068 q 457 1090 433 1068 q 539 1113 481 1113 q 633 1073 597 1113 q 668 983 668 1033 q 644 901 668 938 q 515 828 596 828 q 420 867 456 828 q 385 956 385 906 q 433 1068 385 1024 m 580 1022 q 571 1032 580 1022 q 533 1042 563 1042 q 478 1019 503 1042 q 454 967 454 996 q 472 918 454 938 q 520 899 490 899 q 572 919 550 899 q 597 972 597 943 q 580 1022 597 1001 m 229 229 q 226 180 226 208 q 248 128 226 151 q 331 106 269 106 q 443 122 393 106 q 582 181 493 138 l 669 738 l 797 738 l 681 0 l 585 0 l 565 83 q 529 63 561 81 q 468 31 497 46 q 279 -12 381 -12 q 132 56 178 -12 q 97 175 97 104 q 101 231 97 201 l 182 738 l 310 738 l 229 229 z "},"Ű":{"ha":910,"x_min":157,"x_max":1004,"o":"m 493 1107 l 665 1294 l 807 1294 l 597 1107 l 493 1107 m 689 1107 l 861 1294 l 1003 1294 l 793 1107 l 689 1107 m 299 424 q 288 310 288 342 q 288 272 288 279 q 379 131 290 161 q 481 117 418 117 q 678 185 611 117 q 771 424 744 254 l 864 1017 l 993 1017 l 901 417 q 744 74 861 167 q 468 -7 644 -7 q 189 133 249 -7 q 157 283 157 206 q 169 429 157 360 l 263 1017 l 392 1017 l 299 424 z "},"ű":{"ha":756,"x_min":97,"x_max":864,"o":"m 354 828 l 526 1015 l 668 1015 l 458 828 l 354 828 m 550 828 l 721 1015 l 864 1015 l 654 828 l 550 828 m 229 229 q 226 180 226 208 q 248 128 226 151 q 331 106 269 106 q 443 122 393 106 q 582 181 493 138 l 669 738 l 797 738 l 681 0 l 585 0 l 565 83 q 529 63 561 81 q 468 31 497 46 q 279 -12 381 -12 q 132 56 178 -12 q 97 175 97 104 q 101 231 97 201 l 182 738 l 310 738 l 229 229 z "},"Ų":{"ha":910,"x_min":157,"x_max":994,"o":"m 307 -150 q 442 1 307 -54 l 501 1 q 404 -119 404 -68 q 469 -162 404 -162 q 482 -162 475 -162 l 467 -253 q 433 -256 450 -256 q 342 -223 378 -256 q 307 -150 307 -190 m 299 424 l 392 1017 l 263 1017 l 169 429 q 157 283 157 360 q 189 133 157 206 q 468 -7 249 -7 q 744 74 644 -7 q 901 417 861 167 l 993 1017 l 864 1017 l 771 424 q 678 185 744 254 q 481 117 611 117 q 379 131 418 117 q 288 272 290 161 q 288 310 288 279 q 299 424 288 342 z "},"ų":{"ha":806,"x_min":97,"x_max":797,"o":"m 469 -153 q 604 0 469 -57 l 664 0 q 567 -121 567 -71 q 632 -165 567 -165 q 644 -164 638 -165 l 629 -254 q 596 -257 613 -257 q 505 -225 540 -257 q 469 -153 469 -193 m 229 229 q 226 180 226 208 q 248 128 226 151 q 331 106 269 106 q 443 122 393 106 q 582 181 493 138 l 669 738 l 797 738 l 681 0 l 585 0 l 565 83 q 529 63 561 81 q 468 31 497 46 q 279 -12 381 -12 q 132 56 178 -12 q 97 175 97 104 q 101 231 97 201 l 182 738 l 310 738 l 229 229 z "},"Ŵ":{"ha":1394,"x_min":204,"x_max":1510,"o":"m 656 1107 l 844 1289 l 956 1289 l 1068 1107 l 968 1107 l 894 1215 l 776 1107 l 656 1107 m 204 1017 l 335 1017 l 482 194 l 899 1017 l 1040 1017 l 874 686 l 953 188 l 1371 1017 l 1508 1017 l 993 0 l 858 0 l 779 492 l 528 0 l 389 0 l 204 1017 z "},"ŵ":{"ha":1119,"x_min":126,"x_max":1179,"o":"m 457 828 l 646 1011 l 757 1011 l 869 828 l 769 828 l 696 936 l 578 828 l 457 828 m 758 735 q 767 671 767 706 q 749 594 767 636 l 713 515 l 782 164 l 1028 615 q 1065 738 1057 676 l 1169 738 q 1178 669 1178 707 q 1154 586 1178 631 l 828 0 l 696 0 l 622 360 l 436 0 l 292 0 l 126 738 l 257 738 l 381 157 l 617 611 q 656 735 647 672 l 758 735 z "},"Ŷ":{"ha":885,"x_min":204,"x_max":999,"o":"m 410 1107 l 599 1289 l 710 1289 l 822 1107 l 722 1107 l 649 1215 l 529 1107 l 410 1107 m 204 1017 l 340 1017 l 501 500 l 849 1017 l 999 1017 l 546 349 l 490 0 l 363 0 l 418 349 l 204 1017 z "},"ŷ":{"ha":767,"x_min":126,"x_max":825,"o":"m 283 828 l 471 1011 l 582 1011 l 694 828 l 594 828 l 521 936 l 403 828 l 283 828 m 817 740 q 824 675 824 714 q 799 583 824 636 l 510 1 q 331 -270 421 -181 q 133 -381 242 -360 l 133 -290 q 264 -170 211 -242 q 368 0 317 -99 q 275 29 319 0 q 206 163 219 65 l 126 738 l 260 738 l 336 178 q 390 125 343 135 q 415 123 404 122 q 425 124 425 124 l 671 617 q 706 740 694 667 l 817 740 z "},"Ÿ":{"ha":885,"x_min":153,"x_max":949,"o":"m 349 1221 q 358 1228 349 1221 q 381 1242 367 1236 q 419 1247 396 1247 q 458 1228 442 1247 q 474 1196 474 1210 q 446 1125 474 1149 q 393 1101 418 1101 q 353 1111 368 1101 q 326 1175 319 1132 q 349 1221 331 1206 m 679 1169 q 682 1187 679 1169 q 710 1226 685 1206 q 765 1247 735 1247 q 812 1228 796 1247 q 828 1196 828 1210 q 800 1125 828 1149 q 747 1101 772 1101 q 707 1111 722 1101 q 679 1169 674 1132 m 153 1017 l 289 1017 l 450 500 l 799 1017 l 947 1017 l 494 349 l 440 0 l 313 0 l 367 349 l 153 1017 z "},"Ź":{"ha":781,"x_min":168,"x_max":1019,"o":"m 635 1101 l 807 1288 l 949 1288 l 739 1101 l 635 1101 m 168 0 l 189 124 l 836 893 l 310 893 l 329 1017 l 1018 1017 l 999 893 l 356 124 l 878 124 l 857 0 l 168 0 z "},"ź":{"ha":639,"x_min":115,"x_max":774,"o":"m 454 822 l 625 1010 l 768 1010 l 558 822 l 454 822 m 115 1 l 131 121 l 586 618 l 194 618 l 211 738 l 774 738 l 757 618 l 311 121 l 675 121 l 657 1 l 115 1 z "},"Ż":{"ha":781,"x_min":44,"x_max":896,"o":"m 551 1257 l 629 1257 q 656 1222 661 1257 l 642 1139 q 606 1107 638 1107 l 528 1107 q 506 1116 514 1107 q 499 1139 497 1125 l 513 1222 q 551 1257 517 1257 m 46 0 l 65 124 l 713 893 l 186 893 l 207 1017 l 896 1017 l 875 893 l 232 124 l 754 124 l 735 0 l 46 0 z "},"ż":{"ha":639,"x_min":60,"x_max":719,"o":"m 438 978 l 515 978 q 542 943 546 978 l 528 860 q 492 828 524 828 l 414 828 q 391 837 399 828 q 385 860 383 846 l 399 943 q 438 978 403 978 m 60 1 l 75 121 l 531 618 l 139 618 l 156 738 l 718 738 l 701 618 l 256 121 l 619 121 l 601 1 l 60 1 z "},"Ž":{"ha":781,"x_min":44,"x_max":896,"o":"m 389 1289 l 489 1289 l 563 1181 l 681 1289 l 800 1289 l 613 1107 l 501 1107 l 389 1289 m 46 0 l 65 124 l 713 893 l 186 893 l 207 1017 l 896 1017 l 875 893 l 232 124 l 754 124 l 735 0 l 46 0 z "},"ž":{"ha":639,"x_min":60,"x_max":719,"o":"m 275 1011 l 375 1011 l 449 903 l 567 1011 l 686 1011 l 499 828 l 388 828 l 275 1011 m 60 1 l 75 121 l 531 618 l 139 618 l 156 738 l 718 738 l 701 618 l 256 121 l 619 121 l 601 1 l 60 1 z "},"ƒ":{"ha":644,"x_min":-14,"x_max":790,"o":"m 118 -167 q 256 40 213 -167 q 271 122 263 75 l 344 543 l 208 543 l 233 660 l 369 660 l 375 703 q 464 989 410 896 q 651 1111 538 1111 q 781 1081 714 1111 q 789 1076 788 1076 l 774 994 l 661 994 q 583 947 613 994 q 539 847 553 897 q 507 703 522 779 l 500 658 l 686 658 l 663 543 l 476 543 l 401 122 q 293 -204 357 -122 q 126 -283 231 -283 q 44 -270 88 -283 q -12 -249 0 -257 l 3 -167 l 118 -167 z "},"ˆ":{"ha":454,"x_min":85,"x_max":499,"o":"m 86 738 l 274 919 l 385 919 l 497 738 l 397 738 l 324 846 l 206 738 l 86 738 z "},"ˇ":{"ha":522,"x_min":39,"x_max":453,"o":"m 40 919 l 140 919 l 214 811 l 332 919 l 451 919 l 264 738 l 153 738 l 40 919 z "},"˘":{"ha":351,"x_min":79,"x_max":397,"o":"m 149 894 q 149 874 149 886 q 156 843 149 861 q 222 804 174 804 q 226 804 225 804 q 329 894 315 804 l 397 894 q 222 736 376 736 q 121 776 161 736 q 81 878 81 817 q 81 894 81 886 l 149 894 z "},"˙":{"ha":182,"x_min":142,"x_max":300,"o":"m 274 886 q 300 858 300 886 q 300 851 300 856 l 286 768 q 250 736 282 736 l 172 736 q 149 745 157 736 q 143 768 140 754 l 157 851 q 196 886 161 886 l 274 886 z "},"˚":{"ha":406,"x_min":190,"x_max":475,"o":"m 238 976 q 262 999 238 976 q 344 1021 286 1021 q 438 981 403 1021 q 474 892 474 942 q 426 780 474 824 q 321 736 379 736 q 226 775 263 736 q 190 864 190 814 q 238 976 190 932 m 299 813 q 334 807 313 807 q 378 828 356 807 q 404 881 404 851 q 386 930 404 910 q 339 950 368 950 q 285 927 310 950 q 260 867 260 904 q 299 813 260 829 z "},"˛":{"ha":318,"x_min":201,"x_max":397,"o":"m 203 -151 q 336 0 203 -56 l 397 0 q 300 -121 300 -69 q 365 -164 300 -164 q 378 -164 371 -164 l 363 -253 q 329 -257 344 -257 q 238 -224 272 -257 q 203 -151 203 -192 z "},"˜":{"ha":607,"x_min":181,"x_max":660,"o":"m 369 890 q 384 889 369 890 q 440 867 399 889 q 492 844 482 844 q 514 843 501 843 q 576 863 526 843 q 639 892 625 882 l 660 826 q 626 803 650 819 q 590 778 603 786 q 558 758 578 769 q 404 763 483 717 q 342 786 365 786 q 280 776 304 786 q 233 753 256 765 q 203 738 211 742 l 182 800 q 305 880 271 869 q 369 890 339 890 z "},"˝":{"ha":639,"x_min":210,"x_max":719,"o":"m 210 738 l 382 925 l 524 925 l 314 738 l 210 738 m 406 738 l 578 925 l 719 925 l 510 738 l 406 738 z "},"̸":{"ha":886,"x_min":121,"x_max":926,"o":"m 494 1017 l 722 1017 q 828 996 783 1017 q 893 942 874 975 q 926 826 926 888 q 921 781 926 804 l 833 228 q 747 53 814 107 q 561 0 679 0 l 333 0 q 167 58 225 0 q 122 182 122 103 q 126 236 122 207 l 214 788 q 494 1017 250 1017 m 260 265 q 254 223 254 236 q 256 204 254 210 l 726 889 q 692 893 707 893 l 486 893 q 342 778 358 893 l 260 265 m 365 124 l 567 124 q 707 239 688 124 l 789 756 q 793 797 793 778 q 786 829 793 817 l 306 128 q 365 124 324 124 z "},"Ω":{"ha":1074,"x_min":92,"x_max":1078,"o":"m 290 128 q 157 411 157 232 q 206 681 157 542 q 269 808 228 743 q 367 920 311 874 q 508 997 422 967 q 693 1026 594 1026 q 864 999 792 1026 q 979 926 936 972 q 1078 656 1078 818 q 1068 530 1078 597 q 1046 415 1058 463 q 1010 313 1033 368 q 842 125 963 206 l 1010 111 l 992 0 l 667 0 l 688 128 q 897 351 851 228 q 938 506 924 421 q 951 640 951 592 q 681 903 951 903 q 521 872 592 903 q 406 786 450 840 q 296 528 319 681 q 281 381 281 443 q 314 259 281 318 q 428 128 347 200 l 407 0 l 93 0 l 111 114 l 290 128 z "},"π":{"ha":889,"x_min":122,"x_max":914,"o":"m 669 239 q 664 192 664 211 q 669 154 664 174 q 744 111 681 113 l 881 111 l 868 36 q 706 -7 797 -7 q 568 50 615 -7 q 535 165 535 90 q 540 236 535 197 l 600 614 l 365 614 l 269 0 l 142 0 l 238 614 l 122 614 l 143 738 l 913 738 l 893 614 l 728 614 l 669 239 z "},"Ḃ":{"ha":829,"x_min":103,"x_max":896,"o":"m 568 1257 l 646 1257 q 672 1222 676 1257 l 658 1139 q 622 1107 654 1107 l 544 1107 q 521 1116 529 1107 q 515 1139 513 1125 l 529 1222 q 568 1257 533 1257 m 664 1017 q 838 957 782 1017 q 894 800 894 893 q 893 743 894 772 q 836 597 881 650 q 725 528 792 544 q 801 458 767 521 q 831 329 831 408 q 826 278 831 304 q 733 71 810 142 q 503 0 657 0 l 104 0 l 265 1017 l 664 1017 m 521 122 q 699 292 671 122 q 703 339 703 317 q 696 391 703 361 q 658 447 689 421 q 576 474 628 474 l 308 474 l 253 122 l 521 122 m 593 593 q 764 746 739 593 q 768 792 768 771 q 740 868 768 842 q 643 894 711 894 l 375 894 l 328 593 l 593 593 z "},"ḃ":{"ha":769,"x_min":75,"x_max":776,"o":"m 310 1335 l 388 1335 q 414 1300 419 1335 l 400 1217 q 364 1185 396 1185 l 286 1185 q 264 1193 272 1185 q 257 1217 256 1201 l 271 1300 q 310 1335 275 1335 m 572 749 q 775 500 775 749 q 739 246 775 389 q 651 61 708 122 q 478 -8 586 -8 q 325 23 406 -8 q 215 81 244 54 l 174 0 l 76 0 l 249 1090 l 374 1090 l 311 694 q 449 734 375 719 q 572 749 522 749 m 647 515 q 547 632 647 632 q 299 599 424 632 l 229 171 q 465 111 353 111 q 575 174 535 111 q 631 347 615 236 q 647 515 647 458 z "},"Ḋ":{"ha":922,"x_min":103,"x_max":947,"o":"m 572 1254 l 650 1254 q 676 1219 681 1254 l 663 1136 q 626 1104 658 1104 l 549 1104 q 525 1113 533 1104 q 519 1136 517 1121 l 533 1219 q 572 1254 538 1254 m 653 1017 q 903 872 831 1017 q 946 644 946 783 q 932 497 946 575 q 787 128 892 256 q 496 0 682 0 l 104 0 l 265 1015 q 653 1017 265 1017 m 508 125 q 651 179 588 125 q 806 506 768 278 q 819 671 819 593 q 628 894 819 894 l 374 894 l 251 125 l 508 125 z "},"ḋ":{"ha":765,"x_min":108,"x_max":904,"o":"m 876 1325 q 903 1297 903 1325 q 903 1290 903 1294 l 889 1207 q 853 1175 885 1175 l 775 1175 q 751 1183 760 1175 q 746 1207 743 1192 l 760 1290 q 799 1325 764 1325 l 876 1325 m 292 718 q 305 726 292 718 q 351 741 318 733 q 420 749 385 749 q 499 743 456 749 q 674 694 599 729 l 738 1090 l 863 1090 l 689 0 l 592 0 l 575 81 q 456 22 533 51 q 314 -8 379 -8 q 201 26 249 -8 q 135 115 154 60 q 110 258 110 190 q 118 369 110 325 q 133 447 126 414 q 151 516 140 481 q 175 580 161 551 q 206 635 189 608 q 244 683 222 663 q 292 718 265 703 m 238 263 q 338 111 238 111 q 590 171 451 111 l 658 599 q 418 632 543 632 q 347 613 376 632 q 247 367 281 567 q 238 263 238 308 z "},"Ḟ":{"ha":786,"x_min":103,"x_max":886,"o":"m 586 1257 l 664 1257 q 690 1222 696 1257 l 676 1139 q 640 1107 672 1107 l 563 1107 q 540 1116 549 1107 q 533 1139 532 1125 l 547 1222 q 586 1257 551 1257 m 438 1017 q 653 1007 444 1017 q 886 994 861 997 l 869 892 l 444 892 q 365 843 382 892 q 360 814 361 831 l 321 569 l 758 556 l 743 451 l 300 438 l 231 0 l 103 0 l 233 825 q 438 1017 264 1017 z "},"ḟ":{"ha":560,"x_min":124,"x_max":701,"o":"m 531 1324 l 608 1324 q 635 1289 639 1324 l 621 1206 q 585 1174 617 1174 l 507 1174 q 483 1183 492 1174 q 478 1206 475 1192 l 492 1289 q 531 1324 496 1324 m 535 1090 q 624 1079 574 1090 q 701 1057 674 1068 l 689 976 l 542 976 q 453 940 475 976 q 413 788 431 904 l 404 738 l 619 738 l 601 622 l 385 622 l 282 0 l 154 0 l 256 622 l 124 622 l 139 711 l 276 738 l 288 800 q 365 1026 313 963 q 535 1090 417 1090 z "},"Ṁ":{"ha":1124,"x_min":90,"x_max":1157,"o":"m 740 1257 l 818 1257 q 844 1222 850 1257 l 831 1139 q 794 1107 826 1107 l 717 1107 q 694 1116 703 1107 q 688 1139 686 1125 l 701 1222 q 740 1257 707 1257 m 90 0 l 325 1017 l 494 1017 l 614 213 l 981 1017 l 1157 1017 l 1078 0 l 951 0 l 1017 790 l 654 0 l 517 0 l 400 789 l 218 0 l 90 0 z "},"ṁ":{"ha":1238,"x_min":78,"x_max":1258,"o":"m 750 979 l 828 979 q 854 944 860 979 l 840 861 q 804 829 836 829 l 726 829 q 704 838 713 829 q 697 861 696 847 l 711 944 q 750 979 717 979 m 585 746 q 613 746 585 746 q 690 714 640 746 q 754 632 739 682 q 1067 746 915 746 q 1218 678 1164 746 q 1258 553 1258 626 q 1254 503 1258 529 l 1174 0 l 1046 0 l 1126 504 q 1086 614 1138 581 q 1022 629 1064 629 q 938 622 979 629 q 774 557 860 610 q 769 528 774 556 q 765 500 765 501 l 686 0 l 558 0 l 638 504 q 640 534 640 517 q 631 576 640 551 q 597 615 621 600 q 534 629 574 629 q 452 619 494 629 q 384 598 410 610 q 293 556 358 586 l 206 0 l 78 0 l 194 738 l 290 738 l 308 651 q 350 674 318 656 q 393 698 382 692 q 432 717 404 704 q 478 733 460 729 q 585 746 531 746 z "},"Ṗ":{"ha":826,"x_min":97,"x_max":896,"o":"m 563 1257 l 640 1257 q 667 1222 672 1257 l 653 1139 q 617 1107 649 1107 l 539 1107 q 517 1116 525 1107 q 510 1139 508 1125 l 524 1222 q 563 1257 529 1257 m 683 1017 q 783 997 744 1017 q 843 953 822 976 q 896 789 896 890 q 889 703 896 753 q 869 607 882 653 q 840 530 856 561 q 803 475 824 499 q 763 439 783 451 q 719 417 742 426 q 674 407 696 408 q 629 403 651 406 q 577 403 607 401 q 424 415 547 404 q 294 428 300 425 l 225 0 l 97 0 l 258 1017 l 683 1017 m 600 525 q 736 617 699 525 q 761 717 751 656 q 767 795 767 772 q 758 837 767 818 q 740 867 749 856 q 715 885 731 879 q 660 894 690 894 l 367 894 l 308 525 l 600 525 z "},"ṗ":{"ha":775,"x_min":18,"x_max":781,"o":"m 485 981 l 563 981 q 589 946 594 981 l 575 863 q 539 831 571 831 l 461 831 q 439 839 447 831 q 433 863 431 847 l 446 946 q 485 981 451 981 m 561 742 q 781 464 781 742 q 707 135 781 268 q 465 -11 626 -11 q 337 2 410 -11 q 213 40 264 15 l 144 -375 l 18 -375 l 201 719 q 561 742 357 742 m 399 103 q 438 103 399 103 q 509 117 476 103 q 567 157 542 132 q 644 368 618 208 q 654 471 654 426 q 542 626 654 626 l 311 626 l 229 138 q 399 103 322 103 z "},"Ṡ":{"ha":796,"x_min":106,"x_max":860,"o":"m 556 1271 l 633 1271 q 660 1236 665 1271 l 646 1153 q 610 1121 642 1121 l 532 1121 q 510 1129 518 1121 q 503 1153 501 1138 l 517 1236 q 556 1271 522 1271 m 843 889 l 503 901 q 481 901 490 901 q 373 878 413 901 q 321 769 333 854 l 308 689 q 305 621 300 639 q 314 594 310 603 q 327 579 318 585 q 343 570 336 574 q 364 565 350 567 q 402 564 385 564 q 422 564 419 564 l 603 564 q 708 541 665 564 q 768 482 751 518 q 794 385 794 428 q 789 317 794 342 l 776 222 q 741 115 767 160 q 684 46 715 69 q 608 8 653 22 q 263 0 497 -25 q 107 25 156 13 l 122 126 q 465 113 228 113 q 647 228 631 113 l 661 311 q 665 361 665 336 q 656 406 665 386 q 571 436 639 436 l 393 436 q 174 622 174 436 q 179 683 174 651 l 193 779 q 307 985 217 935 q 488 1025 381 1025 q 681 1013 563 1025 q 858 990 799 1001 l 843 889 z "},"ṡ":{"ha":706,"x_min":85,"x_max":731,"o":"m 451 983 l 529 983 q 556 949 561 983 l 542 865 q 506 833 538 833 l 428 833 q 406 842 414 833 q 399 865 397 851 l 413 949 q 451 983 418 983 m 472 106 q 551 174 540 106 l 563 238 q 565 263 565 249 q 554 292 565 278 q 504 307 543 307 l 310 307 q 160 351 207 307 q 126 449 126 385 q 131 497 126 471 l 142 567 q 208 705 157 660 q 363 750 258 750 q 587 740 475 750 q 731 724 699 731 l 715 633 l 361 633 q 274 583 292 633 q 268 560 271 574 l 258 499 q 271 435 250 446 q 305 427 286 426 q 328 428 324 428 l 526 428 q 661 375 618 428 q 694 278 694 335 q 692 242 694 260 l 679 154 q 632 43 668 81 q 563 -1 596 7 q 456 -12 514 -12 q 260 -2 399 -12 q 86 17 121 8 l 100 106 l 472 106 z "},"Ṫ":{"ha":807,"x_min":186,"x_max":925,"o":"m 565 1257 l 643 1257 q 669 1222 675 1257 l 657 1139 q 621 1107 653 1107 l 543 1107 q 519 1116 528 1107 q 514 1139 511 1125 l 526 1222 q 565 1257 532 1257 m 186 893 l 207 1017 l 925 1017 l 904 893 l 606 893 l 464 0 l 336 0 l 478 893 l 186 893 z "},"ṫ":{"ha":524,"x_min":121,"x_max":603,"o":"m 385 1178 l 463 1178 q 489 1143 493 1178 l 475 1060 q 439 1028 471 1028 l 361 1028 q 338 1037 346 1028 q 332 1060 329 1046 l 346 1143 q 385 1178 350 1178 m 360 0 q 192 182 192 0 q 199 263 192 219 l 254 624 l 122 624 l 136 710 l 274 739 l 332 944 l 433 944 l 401 739 l 603 739 l 583 624 l 382 624 l 326 271 q 335 138 311 163 q 411 106 347 124 q 478 89 475 89 l 465 0 l 360 0 z "},"Ẁ":{"ha":1394,"x_min":204,"x_max":1510,"o":"m 654 1294 l 786 1294 l 924 1107 l 819 1107 l 654 1294 m 204 1017 l 335 1017 l 482 194 l 899 1017 l 1040 1017 l 874 686 l 953 188 l 1371 1017 l 1508 1017 l 993 0 l 858 0 l 779 492 l 528 0 l 389 0 l 204 1017 z "},"ẁ":{"ha":1119,"x_min":126,"x_max":1179,"o":"m 450 1014 l 582 1014 l 718 828 l 614 828 l 450 1014 m 758 735 q 767 671 767 706 q 749 594 767 636 l 713 515 l 782 164 l 1028 615 q 1065 738 1057 676 l 1169 738 q 1178 669 1178 707 q 1154 586 1178 631 l 828 0 l 696 0 l 622 360 l 436 0 l 292 0 l 126 738 l 257 738 l 381 157 l 617 611 q 656 735 647 672 l 758 735 z "},"Ẃ":{"ha":1394,"x_min":204,"x_max":1510,"o":"m 819 1107 l 990 1294 l 1133 1294 l 924 1107 l 819 1107 m 204 1017 l 335 1017 l 482 194 l 899 1017 l 1040 1017 l 874 686 l 953 188 l 1371 1017 l 1508 1017 l 993 0 l 858 0 l 779 492 l 528 0 l 389 0 l 204 1017 z "},"ẃ":{"ha":1119,"x_min":126,"x_max":1179,"o":"m 617 826 l 789 1014 l 931 1014 l 721 826 l 617 826 m 758 735 q 767 671 767 706 q 749 594 767 636 l 713 515 l 782 164 l 1028 615 q 1065 738 1057 676 l 1169 738 q 1178 669 1178 707 q 1154 586 1178 631 l 828 0 l 696 0 l 622 360 l 436 0 l 292 0 l 126 738 l 257 738 l 381 157 l 617 611 q 656 735 647 672 l 758 735 z "},"Ẅ":{"ha":1394,"x_min":204,"x_max":1510,"o":"m 661 1230 q 675 1241 661 1230 q 719 1253 689 1253 q 766 1234 750 1253 q 782 1201 782 1215 q 754 1131 782 1156 q 697 1107 726 1107 q 650 1126 667 1107 q 633 1161 633 1146 q 661 1230 633 1207 m 1004 1218 q 1010 1226 1004 1218 q 1035 1244 1017 1235 q 1079 1253 1054 1253 q 1120 1234 1104 1253 q 1136 1201 1136 1215 q 1108 1131 1136 1156 q 1051 1107 1081 1107 q 1004 1126 1021 1107 q 988 1160 988 1146 q 990 1188 988 1175 q 1004 1218 992 1201 m 204 1017 l 335 1017 l 482 194 l 899 1017 l 1040 1017 l 874 686 l 953 188 l 1371 1017 l 1508 1017 l 993 0 l 858 0 l 779 492 l 528 0 l 389 0 l 204 1017 z "},"ẅ":{"ha":1119,"x_min":126,"x_max":1179,"o":"m 456 951 q 469 963 456 951 q 514 975 483 975 q 560 956 544 975 q 576 922 576 936 q 549 852 576 876 q 492 828 522 828 q 444 847 461 828 q 428 882 428 867 q 456 951 428 928 m 810 951 q 824 963 810 951 q 868 975 838 975 q 915 956 899 975 q 931 922 931 936 q 903 852 931 876 q 846 828 876 828 q 799 847 815 828 q 782 882 782 867 q 810 951 782 928 m 758 735 q 767 671 767 706 q 749 594 767 636 l 713 515 l 782 164 l 1028 615 q 1065 738 1057 676 l 1169 738 q 1178 669 1178 707 q 1154 586 1178 631 l 828 0 l 696 0 l 622 360 l 436 0 l 292 0 l 126 738 l 257 738 l 381 157 l 617 611 q 656 735 647 672 l 758 735 z "},"Ỳ":{"ha":885,"x_min":204,"x_max":999,"o":"m 399 1294 l 532 1294 l 668 1107 l 564 1107 l 399 1294 m 204 1017 l 340 1017 l 501 500 l 849 1017 l 999 1017 l 546 349 l 490 0 l 363 0 l 418 349 l 204 1017 z "},"ỳ":{"ha":767,"x_min":126,"x_max":825,"o":"m 286 1014 l 419 1014 l 556 828 l 451 828 l 286 1014 m 817 740 q 824 675 824 714 q 799 583 824 636 l 510 1 q 331 -270 421 -181 q 133 -381 242 -360 l 133 -290 q 264 -170 211 -242 q 368 0 317 -99 q 275 29 319 0 q 206 163 219 65 l 126 738 l 260 738 l 336 178 q 390 125 343 135 q 415 123 404 122 q 425 124 425 124 l 671 617 q 706 740 694 667 l 817 740 z "},"–":{"ha":633,"x_min":82,"x_max":760,"o":"m 83 339 l 103 460 l 760 460 l 740 339 l 83 339 z "},"—":{"ha":1022,"x_min":82,"x_max":1069,"o":"m 83 342 l 103 463 l 1069 463 l 1050 342 l 83 342 z "},"‘":{"ha":369,"x_min":222,"x_max":424,"o":"m 274 967 q 284 981 274 967 q 319 1004 294 994 q 363 1017 344 1014 q 391 1019 382 1019 q 407 1018 400 1019 l 422 1017 l 413 960 q 411 960 413 960 q 358 913 367 960 l 353 876 l 369 876 q 401 849 401 876 q 401 840 401 844 l 386 746 q 342 706 381 706 l 253 706 q 222 733 222 706 q 224 746 222 739 l 246 897 q 274 967 253 939 z "},"’":{"ha":369,"x_min":224,"x_max":426,"o":"m 276 846 q 246 885 239 846 l 261 978 q 304 1019 267 1019 l 394 1019 q 425 990 425 1019 q 424 978 425 985 l 400 828 q 372 758 393 786 q 328 721 351 731 q 267 704 288 704 q 240 706 246 704 l 225 707 l 235 765 q 268 774 256 764 q 283 791 281 783 q 288 811 286 799 l 293 846 l 276 846 z "},"‚":{"ha":369,"x_min":89,"x_max":290,"o":"m 140 -1 q 116 8 125 -1 q 110 38 107 18 l 125 131 q 169 172 131 172 l 258 172 q 289 143 289 172 q 288 131 289 138 l 264 -19 q 185 -131 251 -100 q 131 -143 157 -143 q 89 -140 104 -143 l 99 -83 q 151 -36 143 -85 l 157 -1 l 140 -1 z "},"“":{"ha":578,"x_min":213,"x_max":642,"o":"m 265 967 q 275 981 265 967 q 309 1003 285 994 q 353 1015 333 1013 q 381 1018 372 1018 q 396 1018 390 1018 l 413 1015 l 404 960 q 401 960 403 960 q 349 913 357 960 l 344 876 l 361 876 q 393 849 393 876 q 392 839 393 844 l 378 746 q 332 706 371 706 l 243 706 q 213 733 213 706 q 214 746 213 739 l 238 896 q 265 967 244 939 m 493 967 q 503 981 493 967 q 538 1003 514 994 q 581 1015 563 1013 q 610 1018 600 1018 q 625 1018 619 1018 l 640 1015 l 632 960 q 631 960 632 960 q 578 913 586 960 l 572 876 l 589 876 q 621 849 621 876 q 621 839 621 844 l 607 746 q 561 706 600 706 l 472 706 q 442 733 442 706 q 443 746 442 739 l 467 896 q 493 967 472 939 z "},"”":{"ha":579,"x_min":214,"x_max":644,"o":"m 267 846 q 235 885 229 846 l 250 978 q 294 1019 257 1019 l 383 1019 q 415 990 415 1019 q 414 978 415 985 l 389 828 q 362 758 382 786 q 317 719 342 729 q 257 704 278 704 q 231 704 236 704 l 215 707 l 224 764 q 257 773 244 764 q 272 790 269 782 q 278 811 275 799 l 283 846 l 267 846 m 494 846 q 470 856 479 846 q 464 885 461 865 l 479 978 q 524 1018 485 1018 l 613 1018 q 643 990 643 1018 q 642 978 643 985 l 618 828 q 591 758 611 786 q 546 719 571 729 q 485 704 506 704 q 458 704 465 704 l 443 707 l 453 764 q 506 811 499 764 l 511 846 l 494 846 z "},"„":{"ha":578,"x_min":78,"x_max":508,"o":"m 131 0 q 105 10 114 0 q 99 39 96 19 l 115 132 q 158 172 121 172 l 247 172 q 279 144 279 172 q 278 132 279 139 l 254 -18 q 226 -89 247 -61 q 182 -126 206 -117 q 121 -142 142 -142 q 94 -142 100 -142 l 79 -139 l 88 -83 q 142 -35 133 -83 l 147 0 l 131 0 m 360 0 q 334 10 343 0 q 328 39 325 19 l 343 132 q 388 172 350 172 l 476 172 q 508 144 508 172 q 507 132 508 139 l 482 -18 q 455 -89 475 -61 q 410 -126 435 -117 q 350 -142 371 -142 q 324 -142 329 -142 l 307 -139 l 317 -83 q 371 -35 363 -83 l 376 0 l 360 0 z "},"†":{"ha":665,"x_min":153,"x_max":672,"o":"m 154 665 l 169 767 l 357 781 l 415 1069 l 525 1069 l 492 781 l 672 767 l 657 665 l 471 650 l 338 -100 l 228 -100 l 336 650 l 154 665 z "},"‡":{"ha":624,"x_min":131,"x_max":718,"o":"m 131 231 l 146 332 l 336 347 l 382 650 l 200 665 l 215 767 l 403 781 l 461 1069 l 571 1069 l 538 781 l 718 767 l 703 665 l 517 650 l 464 347 l 649 332 l 633 231 l 439 215 l 385 -100 l 274 -100 l 318 215 l 131 231 z "},"•":{"ha":429,"x_min":183,"x_max":417,"o":"m 222 422 q 183 457 183 422 q 185 467 183 461 l 203 592 q 220 627 206 614 q 257 640 235 640 l 375 640 q 415 603 415 640 q 415 592 415 599 l 396 467 q 339 422 389 422 l 222 422 z "},"…":{"ha":1068,"x_min":197,"x_max":1124,"o":"m 251 158 l 338 158 q 367 132 367 158 q 365 124 367 128 l 351 32 q 313 0 346 0 l 226 0 q 203 9 211 0 q 197 32 196 18 l 211 124 q 251 158 218 158 m 589 124 q 629 158 596 158 l 715 158 q 744 132 744 158 q 743 124 744 128 l 729 32 q 690 0 724 0 l 604 0 q 581 9 589 0 q 575 32 574 18 l 589 124 m 1007 158 l 1093 158 q 1122 132 1122 158 q 1121 124 1122 128 l 1107 32 q 1068 0 1101 0 l 982 0 q 959 9 967 0 q 953 32 951 18 l 967 124 q 1007 158 974 158 z "},"‰":{"ha":1864,"x_min":108,"x_max":1886,"o":"m 350 1017 l 490 1017 q 619 974 582 1017 q 644 886 644 943 q 640 838 644 864 l 613 657 q 553 522 597 560 q 404 485 510 485 l 264 485 q 145 526 181 485 q 110 624 110 567 q 113 664 110 643 l 140 844 q 199 977 156 938 q 350 1017 242 1017 m 217 667 q 213 639 213 651 q 217 614 213 626 q 285 588 226 588 l 415 588 q 485 603 467 588 q 511 667 503 619 l 538 835 q 540 873 540 856 q 531 902 540 890 q 469 914 522 914 l 339 914 q 268 898 286 914 q 243 835 250 882 l 217 667 m 261 0 l 1033 1017 l 1143 1017 l 372 0 l 261 0 m 1004 532 l 1144 532 q 1292 456 1267 532 q 1300 407 1300 433 q 1296 354 1300 381 l 1267 174 q 1235 71 1256 107 q 1057 0 1193 0 l 917 0 q 799 41 833 0 q 764 139 764 82 q 767 179 764 158 l 796 360 q 853 492 810 453 q 1004 532 896 532 m 871 182 q 867 155 867 167 q 871 129 867 143 q 939 103 879 103 l 1068 103 q 1139 119 1121 103 q 1165 182 1157 135 l 1192 350 q 1194 388 1194 371 q 1185 417 1194 406 q 1122 429 1175 429 l 993 429 q 922 413 940 429 q 897 350 904 397 l 871 182 m 1590 532 l 1731 532 q 1878 456 1853 532 q 1885 407 1885 433 q 1881 354 1885 381 l 1853 174 q 1794 38 1838 75 q 1643 0 1750 0 l 1503 0 q 1385 41 1419 0 q 1350 139 1350 82 q 1353 179 1350 158 l 1381 360 q 1439 492 1396 453 q 1590 532 1482 532 m 1457 182 q 1453 155 1453 167 q 1457 129 1453 143 q 1525 103 1465 103 l 1654 103 q 1738 135 1721 103 q 1751 182 1746 150 l 1778 350 q 1781 388 1781 371 q 1771 417 1781 406 q 1708 429 1761 429 l 1579 429 q 1496 399 1513 429 q 1483 350 1488 383 l 1457 182 z "},"‹":{"ha":413,"x_min":46,"x_max":449,"o":"m 46 492 l 376 774 l 447 690 l 206 483 l 379 279 l 293 203 l 46 492 z "},"›":{"ha":499,"x_min":142,"x_max":546,"o":"m 143 288 l 385 494 l 211 699 l 299 774 l 544 486 l 214 203 l 143 288 z "},"⁄":{"ha":357,"x_min":-118,"x_max":638,"o":"m -117 0 l 532 1025 l 636 1025 l -12 0 l -117 0 z "},"⁰":{"ha":619,"x_min":113,"x_max":665,"o":"m 360 1156 l 524 1156 q 635 1119 604 1156 q 665 1033 665 1082 q 663 999 665 1017 l 607 650 q 549 526 593 558 q 424 493 506 493 l 261 493 q 157 522 203 493 q 113 617 113 550 q 115 650 113 632 l 171 997 q 360 1156 194 1156 m 221 663 q 219 631 219 647 q 230 603 219 614 q 288 593 240 593 l 422 593 q 482 609 464 593 q 506 663 500 625 l 558 986 q 561 1012 561 1003 q 561 1031 561 1021 q 497 1054 558 1054 l 361 1054 q 298 1038 317 1054 q 274 986 279 1021 l 221 663 z "},"⁴":{"ha":650,"x_min":154,"x_max":711,"o":"m 156 694 l 504 1156 l 622 1156 l 326 757 l 532 757 l 557 918 l 606 986 l 671 986 l 633 757 l 711 757 l 697 672 l 617 653 l 593 494 l 489 494 l 515 653 l 181 653 l 156 694 z "},"⁵":{"ha":569,"x_min":107,"x_max":649,"o":"m 279 882 q 406 910 313 910 q 445 908 421 910 q 475 907 469 907 q 574 863 544 906 q 604 769 604 821 q 601 736 604 754 l 588 644 q 528 522 574 556 q 410 488 483 488 q 401 488 407 488 q 360 488 394 488 q 316 489 326 489 q 279 490 306 489 q 238 492 253 490 q 200 494 224 493 q 108 508 163 499 l 121 589 l 407 589 q 486 661 476 589 l 497 729 q 499 763 497 746 q 488 794 501 781 q 443 808 474 808 l 306 808 q 238 746 249 808 l 146 746 l 232 1156 l 647 1156 l 632 1054 l 317 1054 l 279 882 z "},"⁶":{"ha":563,"x_min":129,"x_max":653,"o":"m 249 869 q 473 889 392 889 q 583 847 554 889 q 613 764 613 806 q 611 740 613 751 l 596 639 q 540 528 583 563 q 418 494 497 494 l 272 494 q 156 567 199 494 q 129 687 129 613 q 143 851 129 761 q 180 1008 157 942 q 232 1106 203 1074 q 347 1163 283 1161 q 458 1164 376 1164 q 651 1146 540 1164 l 639 1064 l 365 1064 q 301 1028 324 1064 q 267 957 275 989 q 249 869 256 913 m 229 703 q 292 594 229 594 l 424 594 q 483 622 467 594 q 496 660 492 636 l 508 736 q 510 760 510 746 q 456 792 510 792 l 236 792 q 229 703 229 740 z "},"⁷":{"ha":575,"x_min":167,"x_max":658,"o":"m 167 1057 l 183 1158 l 638 1158 l 658 1108 l 307 494 l 192 494 l 515 1057 l 167 1057 z "},"⁸":{"ha":569,"x_min":164,"x_max":703,"o":"m 276 817 q 213 924 213 850 q 215 946 213 935 l 225 1003 q 288 1128 239 1093 q 415 1163 336 1163 l 574 1163 q 693 1086 663 1163 q 703 1038 703 1061 q 700 997 703 1015 l 692 944 q 659 875 686 903 q 601 842 632 847 q 657 740 657 822 q 656 717 657 728 l 643 638 q 587 520 629 549 q 467 492 544 492 l 308 492 q 194 531 224 492 q 164 617 164 571 q 167 642 164 629 l 179 718 q 276 817 192 794 m 272 650 q 271 627 271 640 q 281 603 271 614 q 336 592 292 592 l 469 592 q 542 650 533 592 l 550 714 q 551 732 551 724 q 501 779 551 779 l 357 779 q 306 765 324 779 q 282 714 288 750 l 272 650 m 318 929 q 372 878 318 878 l 511 878 q 567 897 551 878 q 588 947 582 917 l 594 989 q 597 1022 597 1006 q 587 1051 597 1039 q 539 1064 576 1064 l 411 1064 q 351 1048 369 1064 q 326 989 332 1032 l 319 947 q 318 929 318 938 z "},"⁹":{"ha":631,"x_min":160,"x_max":686,"o":"m 565 788 q 341 768 422 768 q 231 810 260 768 q 201 896 201 853 q 203 919 201 907 l 218 1017 q 272 1129 229 1094 q 393 1164 315 1164 q 394 1164 393 1164 l 543 1164 q 658 1090 617 1164 q 685 969 685 1043 q 671 803 685 894 q 634 646 657 711 q 582 549 611 581 q 465 493 531 494 q 392 492 426 492 q 161 510 244 492 l 174 592 l 447 592 q 513 628 489 592 q 546 700 538 667 q 565 788 557 744 m 307 924 q 306 900 306 914 q 358 867 306 867 l 578 867 q 586 956 586 918 q 522 1064 586 1064 l 390 1064 q 340 1049 357 1064 q 318 999 324 1033 l 307 924 z "},"₀":{"ha":635,"x_min":139,"x_max":692,"o":"m 386 383 l 550 383 q 661 347 631 383 q 692 261 692 310 q 689 226 692 244 l 633 -122 q 576 -247 619 -214 q 450 -279 532 -279 l 288 -279 q 182 -250 229 -279 q 139 -156 139 -222 q 142 -122 139 -140 l 196 225 q 386 383 221 383 m 247 -110 q 246 -142 246 -125 q 256 -169 246 -158 q 314 -179 267 -179 l 447 -179 q 508 -163 490 -179 q 532 -110 526 -147 l 585 214 q 588 240 588 231 q 586 258 588 249 q 524 282 583 282 l 388 282 q 324 265 343 282 q 300 214 306 249 l 247 -110 z "},"₁":{"ha":397,"x_min":54,"x_max":360,"o":"m 56 226 l 67 297 q 156 319 108 297 q 258 388 229 354 l 358 388 l 253 -278 l 150 -278 l 238 269 q 167 240 215 253 q 56 226 118 226 z "},"₂":{"ha":600,"x_min":57,"x_max":579,"o":"m 396 69 q 411 85 396 69 q 444 133 426 101 q 466 188 463 165 q 469 232 469 210 q 453 274 469 254 q 378 293 436 293 l 144 293 q 153 353 142 293 l 157 372 q 418 394 324 394 q 518 358 478 394 q 579 226 579 306 q 526 72 579 149 q 428 -46 474 -6 q 326 -128 382 -86 q 264 -178 271 -171 l 515 -178 l 499 -278 l 58 -278 l 72 -183 q 124 -149 82 -176 q 193 -102 167 -121 q 263 -51 219 -83 q 335 9 306 -18 q 396 69 365 36 z "},"₃":{"ha":539,"x_min":1,"x_max":524,"o":"m 263 -283 l 211 -283 q 194 -283 200 -283 q 166 -283 189 -283 q 135 -283 143 -283 q 108 -281 126 -282 q 79 -277 89 -279 q 54 -272 69 -275 q 1 -258 29 -268 l 14 -185 l 254 -183 q 364 -106 351 -183 l 369 -78 q 371 -58 371 -68 q 289 8 371 6 l 100 15 l 114 97 l 306 104 q 413 185 401 108 l 417 213 q 418 241 418 224 q 402 273 418 258 q 335 288 386 288 l 83 288 l 94 361 q 299 388 172 388 q 375 388 335 388 q 488 342 453 386 q 522 249 522 299 q 521 221 522 235 l 513 174 q 481 90 504 125 q 425 46 457 56 q 474 -54 474 17 q 472 -83 474 -68 l 467 -119 q 408 -242 454 -201 q 267 -283 361 -283 q 263 -283 265 -283 z "},"₄":{"ha":596,"x_min":3,"x_max":560,"o":"m 3 -78 l 351 383 l 469 383 l 175 -15 l 379 -15 l 406 146 l 454 214 l 518 214 l 482 -15 l 558 -15 l 546 -100 l 465 -119 l 440 -278 l 338 -278 l 364 -119 l 29 -119 l 3 -78 z "},"₅":{"ha":568,"x_min":7,"x_max":549,"o":"m 179 110 q 306 138 213 138 q 345 136 321 138 q 375 135 369 135 q 474 91 444 133 q 504 -3 504 49 q 501 -36 504 -18 l 488 -128 q 428 -251 474 -217 q 310 -285 383 -285 q 301 -285 307 -285 q 260 -284 294 -285 q 216 -283 226 -283 q 179 -283 206 -283 q 138 -281 153 -282 q 100 -278 124 -279 q 8 -264 63 -274 l 21 -183 l 307 -183 q 386 -111 376 -183 l 397 -43 q 399 -9 397 -26 q 388 22 401 8 q 343 36 374 36 l 206 36 q 138 -26 149 36 l 46 -26 l 132 383 l 547 383 l 532 282 l 217 282 l 179 110 z "},"₆":{"ha":561,"x_min":29,"x_max":553,"o":"m 149 97 q 373 117 292 117 q 483 75 454 117 q 513 -8 513 33 q 511 -32 513 -21 l 496 -133 q 440 -244 483 -210 q 318 -278 397 -278 l 172 -278 q 56 -206 99 -278 q 29 -85 29 -160 q 43 79 29 -11 q 80 235 57 169 q 132 333 103 301 q 247 390 183 389 q 366 392 281 392 q 551 374 451 392 l 539 292 l 265 292 q 189 238 215 292 q 160 156 167 193 q 149 97 153 119 m 129 -69 q 192 -178 129 -178 l 324 -178 q 373 -162 356 -178 q 396 -112 390 -147 l 408 -36 q 408 -18 408 -25 q 408 -4 408 -11 q 400 10 407 3 q 356 19 386 19 l 136 19 q 129 -69 129 -32 z "},"₇":{"ha":574,"x_min":67,"x_max":558,"o":"m 67 285 l 83 386 l 538 386 l 558 336 l 207 -278 l 92 -278 l 415 285 l 67 285 z "},"₈":{"ha":571,"x_min":64,"x_max":604,"o":"m 176 44 q 113 151 113 78 q 115 174 113 163 l 125 231 q 156 320 135 294 q 192 358 176 346 q 228 376 208 371 q 315 390 267 390 l 474 390 q 570 351 538 390 q 603 261 603 313 q 600 225 603 244 l 592 172 q 559 103 586 131 q 501 69 532 75 q 557 -32 557 50 q 556 -56 557 -44 l 543 -135 q 487 -252 529 -224 q 367 -281 444 -281 l 208 -281 q 94 -241 124 -281 q 64 -156 64 -201 q 67 -131 64 -143 l 79 -54 q 176 44 92 22 m 172 -122 q 171 -145 171 -132 q 181 -169 171 -158 q 236 -181 192 -181 l 369 -181 q 442 -122 433 -181 l 450 -58 q 451 -40 451 -49 q 401 7 451 7 l 257 7 q 206 -8 224 7 q 182 -58 188 -22 l 172 -122 m 218 157 q 272 106 218 106 l 411 106 q 467 125 451 106 q 488 175 482 144 l 494 217 q 497 250 497 233 q 487 279 497 267 q 439 292 476 292 l 311 292 q 251 276 269 292 q 226 217 232 260 l 219 175 q 218 157 218 165 z "},"₉":{"ha":629,"x_min":60,"x_max":586,"o":"m 465 15 q 241 -4 322 -4 q 131 38 160 -4 q 101 124 101 81 q 103 147 101 135 l 118 244 q 172 357 129 322 q 293 392 215 392 q 294 392 293 392 l 443 392 q 558 318 517 392 q 585 197 585 271 q 571 31 585 122 q 534 -126 557 -61 q 482 -224 511 -192 q 365 -279 431 -278 q 286 -281 324 -281 q 61 -262 136 -281 l 74 -181 l 347 -181 q 413 -144 389 -181 q 446 -72 438 -106 q 465 15 457 -28 m 207 151 q 206 128 206 142 q 258 94 206 94 l 478 94 q 486 183 486 146 q 422 292 486 292 l 290 292 q 240 276 257 292 q 218 226 224 261 l 207 151 z "},"€":{"ha":992,"x_min":92,"x_max":986,"o":"m 426 974 q 445 985 426 974 q 521 1012 464 996 q 640 1028 578 1028 q 808 1014 701 1028 q 986 983 914 1000 l 971 886 q 667 906 753 906 q 538 892 581 906 q 469 857 494 878 q 428 799 444 836 q 386 656 403 747 l 710 644 l 699 572 l 372 564 l 351 436 l 674 425 l 663 353 q 382 344 469 349 l 336 342 q 329 281 329 304 q 333 231 329 258 q 349 178 336 204 q 389 138 363 153 q 504 111 436 111 q 800 131 631 111 l 857 136 l 842 42 q 482 -8 675 -8 q 336 19 394 -8 q 246 93 271 51 q 201 222 201 164 q 208 342 201 281 l 92 353 l 103 425 l 224 436 l 244 564 l 128 575 l 139 642 l 258 656 q 261 676 258 657 q 268 715 264 694 q 285 778 272 736 q 313 850 297 821 q 359 915 329 879 q 426 974 389 951 z "},"ℓ":{"ha":564,"x_min":93,"x_max":617,"o":"m 329 0 q 157 190 157 0 q 161 260 157 222 l 168 317 q 119 289 149 304 l 93 347 q 185 425 133 376 l 254 861 q 319 984 267 942 q 447 1026 372 1026 q 586 965 542 1026 q 615 861 615 922 q 522 615 615 739 q 308 400 429 490 l 292 275 q 285 183 285 199 q 294 151 285 167 q 318 127 304 135 q 395 105 332 119 q 461 90 458 90 l 446 0 l 329 0 m 494 847 q 492 871 494 860 q 465 906 490 893 q 440 911 453 911 q 414 904 428 911 q 382 856 388 892 l 333 558 q 494 847 494 736 z "},"№":{"ha":1490,"x_min":93,"x_max":1569,"o":"m 1213 846 q 1201 733 1201 771 q 1204 676 1201 694 q 1219 646 1207 657 q 1242 633 1231 635 q 1274 631 1253 631 l 1340 631 q 1407 647 1386 631 q 1464 819 1456 685 q 1460 879 1467 865 q 1447 899 1453 893 q 1431 908 1442 906 q 1142 917 1406 917 q 1036 885 1075 917 q 986 783 997 854 l 881 119 q 829 31 871 64 q 737 -6 785 -6 q 648 23 689 -6 q 596 108 607 51 l 404 889 q 380 900 401 904 q 356 879 358 896 l 217 0 l 93 0 l 232 893 q 269 972 239 939 q 396 1025 317 1025 q 483 997 450 1025 q 524 926 515 968 l 715 138 q 738 122 719 119 q 758 142 756 125 q 860 789 826 579 q 1129 1021 896 1019 l 1414 1019 q 1547 958 1513 1019 q 1568 869 1568 921 q 1561 771 1568 817 q 1548 697 1554 725 q 1531 640 1542 669 q 1504 592 1519 610 q 1465 558 1489 574 q 1338 529 1424 529 l 1254 529 q 1172 544 1204 529 q 1097 701 1097 581 q 1110 846 1097 761 l 1213 846 z "},"™":{"ha":881,"x_min":61,"x_max":951,"o":"m 61 922 l 76 1017 l 444 1017 l 429 922 l 296 922 l 235 532 l 135 532 l 197 922 l 61 922 m 414 532 l 532 1017 l 626 1017 l 693 697 l 843 1017 l 950 1017 l 921 532 l 822 532 l 842 806 l 715 532 l 632 532 l 578 807 l 514 532 l 414 532 z "},"℮":{"ha":983,"x_min":122,"x_max":960,"o":"m 540 0 q 235 105 349 0 q 122 368 122 210 q 239 636 122 526 q 370 715 299 689 q 522 740 442 740 q 653 731 603 740 q 829 649 749 711 q 958 358 950 556 l 293 358 q 289 358 293 358 q 283 358 285 358 q 276 343 276 357 l 276 158 q 349 79 276 126 q 433 44 382 58 q 538 29 485 29 q 643 44 592 29 q 806 146 743 75 l 883 146 q 725 31 803 61 q 540 0 647 0 m 797 381 q 803 392 803 381 l 803 576 q 715 667 803 621 q 539 714 628 714 q 435 699 486 714 q 351 662 385 683 q 297 619 318 640 q 276 585 276 597 l 276 394 q 280 384 276 386 q 289 382 283 382 l 785 382 l 797 381 z "},"∂":{"ha":883,"x_min":118,"x_max":881,"o":"m 526 646 q 744 567 665 646 q 750 664 750 624 q 717 828 750 783 q 645 888 685 872 q 546 904 606 904 q 285 833 411 904 l 267 919 q 367 977 335 960 q 455 1011 399 994 q 569 1028 511 1028 q 822 890 742 1028 q 879 656 879 794 q 829 356 879 514 q 563 19 746 94 q 422 -7 497 -7 q 190 88 278 -7 q 118 274 118 167 q 121 319 118 296 q 251 561 146 476 q 526 646 357 646 m 329 467 q 246 271 246 396 q 266 201 246 242 q 331 139 286 161 q 433 117 376 117 q 536 144 489 117 q 615 213 583 172 q 671 306 646 254 q 728 472 714 393 q 520 522 646 522 q 329 467 394 522 z "},"∆":{"ha":1006,"x_min":25,"x_max":982,"o":"m 26 0 l 619 1017 l 726 1017 l 981 0 l 26 0 m 242 122 l 829 122 l 654 840 l 242 122 z "},"∏":{"ha":897,"x_min":140,"x_max":1033,"o":"m 142 0 l 282 893 l 167 893 l 188 1017 l 1032 1017 l 1013 893 l 896 893 l 754 0 l 626 0 l 768 893 l 410 893 l 269 0 l 142 0 z "},"∑":{"ha":808,"x_min":7,"x_max":944,"o":"m 7 -278 l 28 -150 l 407 375 l 193 893 l 213 1017 l 943 1017 l 924 893 l 347 893 l 563 357 l 201 -150 l 758 -150 l 738 -278 l 7 -278 z "},"−":{"ha":618,"x_min":97,"x_max":682,"o":"m 99 435 l 103 554 l 681 554 l 676 435 l 99 435 z "},"√":{"ha":883,"x_min":83,"x_max":1033,"o":"m 85 378 l 104 501 l 294 501 l 406 176 l 901 1111 l 1033 1111 l 456 0 l 335 0 l 199 378 l 85 378 z "},"∞":{"ha":942,"x_min":69,"x_max":1028,"o":"m 351 714 q 510 644 443 714 q 563 572 540 614 q 819 714 675 714 q 996 638 951 714 q 1028 513 1028 583 q 944 297 1028 375 q 743 235 876 235 q 531 381 594 235 q 275 235 436 235 q 92 343 139 235 q 71 447 71 390 q 144 644 71 574 q 351 714 217 714 m 186 447 q 297 347 186 347 q 408 389 360 347 q 492 474 447 419 q 426 565 465 528 q 336 601 386 601 q 226 567 260 601 q 186 447 186 525 m 758 347 q 910 474 889 347 q 913 519 913 493 q 897 568 913 544 q 799 601 876 601 q 604 474 706 601 q 703 357 653 376 q 758 347 728 347 z "},"∫":{"ha":614,"x_min":-14,"x_max":758,"o":"m 115 -167 q 207 -93 174 -167 q 244 26 233 -32 q 261 122 256 85 l 353 703 q 513 1079 400 1001 q 603 1111 558 1111 q 675 1107 649 1111 q 713 1098 701 1103 q 739 1085 724 1093 q 758 1076 754 1078 l 744 994 l 633 994 q 496 786 540 994 q 481 703 489 751 l 389 122 q 283 -207 351 -117 q 129 -283 224 -283 q -12 -249 35 -283 l 0 -167 l 115 -167 z "},"≈":{"ha":729,"x_min":119,"x_max":765,"o":"m 186 399 q 198 407 186 399 q 253 433 210 415 q 339 450 297 450 q 438 424 381 450 q 528 399 496 399 q 583 403 561 399 q 619 415 604 408 q 660 433 633 421 q 704 453 686 444 l 725 386 q 695 365 714 379 q 663 342 676 351 q 631 322 650 333 q 596 303 611 310 q 518 286 557 286 q 420 313 479 286 q 324 339 361 339 q 260 331 288 339 q 199 308 233 322 q 139 286 164 293 l 119 351 q 186 399 163 383 m 225 647 q 237 655 225 647 q 293 680 249 663 q 378 697 338 697 q 477 672 419 697 q 567 646 535 646 q 622 651 600 646 q 658 662 643 656 q 699 680 672 668 q 743 700 725 692 l 764 633 q 721 603 757 629 q 668 567 685 576 q 565 533 611 533 q 460 560 518 533 q 365 586 401 586 q 300 578 328 586 q 238 555 272 569 q 178 533 203 540 l 158 599 q 225 647 201 631 z "},"≠":{"ha":736,"x_min":171,"x_max":831,"o":"m 171 283 l 192 410 l 397 410 l 519 571 l 217 571 l 236 696 l 614 696 l 692 796 l 781 796 l 703 696 l 829 696 l 808 571 l 608 571 l 486 410 l 785 410 l 764 283 l 390 283 l 301 168 l 213 168 l 301 283 l 171 283 z "},"≤":{"ha":758,"x_min":133,"x_max":776,"o":"m 135 136 l 153 251 l 675 251 l 656 136 l 135 136 m 199 551 l 219 681 l 775 896 l 754 765 l 350 610 l 706 444 l 685 322 l 199 551 z "},"≥":{"ha":617,"x_min":85,"x_max":692,"o":"m 86 136 l 104 251 l 626 251 l 608 136 l 86 136 m 114 317 l 135 449 l 547 614 l 183 774 l 204 890 l 692 676 l 669 547 l 114 317 z "},"◊":{"ha":721,"x_min":107,"x_max":778,"o":"m 108 518 l 475 1017 l 578 1017 l 778 518 l 417 0 l 314 0 l 108 518 m 253 513 l 382 171 l 639 532 l 506 856 l 253 513 z "},"ﬀ":{"ha":1101,"x_min":124,"x_max":1243,"o":"m 536 1078 q 700 1046 606 1078 l 686 964 l 531 965 q 443 918 463 965 q 425 850 433 894 l 408 738 l 818 738 l 839 875 q 892 1017 856 972 q 974 1079 932 1067 q 1057 1092 1017 1092 q 1243 1060 1150 1092 l 1229 979 l 1071 979 q 990 946 1010 979 q 965 863 974 919 l 946 738 l 1139 738 l 1119 622 l 925 622 l 826 0 l 699 0 l 797 622 l 386 622 l 289 0 l 161 0 l 258 622 l 124 622 l 139 714 l 281 738 l 300 861 q 369 1025 318 972 q 536 1078 422 1078 z "},"ﬁ":{"ha":811,"x_min":78,"x_max":849,"o":"m 564 1092 q 592 1092 565 1092 q 704 1078 619 1092 q 836 1047 789 1064 l 824 965 l 582 979 q 559 979 575 979 q 515 973 543 979 q 454 949 486 967 q 367 804 383 910 l 356 738 l 849 724 l 735 0 l 606 0 l 704 622 l 335 622 l 238 0 l 110 0 l 207 622 l 78 622 l 93 714 l 228 738 l 240 813 q 346 1018 261 944 q 564 1092 431 1092 z "},"ﬂ":{"ha":958,"x_min":124,"x_max":993,"o":"m 876 0 q 706 182 706 0 q 713 263 706 218 l 826 976 l 589 976 q 507 961 540 976 q 413 788 433 926 l 404 738 l 619 738 l 601 622 l 385 622 l 282 0 l 154 0 l 256 622 l 124 622 l 139 711 l 276 738 l 286 790 q 501 1079 325 1039 q 593 1089 543 1089 l 971 1089 l 842 271 q 849 138 825 163 q 926 107 863 124 q 993 90 990 90 l 979 0 l 876 0 z "},"ﬃ":{"ha":1363,"x_min":124,"x_max":1400,"o":"m 536 1078 q 700 1046 606 1078 l 686 964 l 531 965 q 451 931 471 965 q 425 850 436 904 l 406 738 l 781 738 l 792 806 q 900 1014 811 938 q 1121 1092 989 1092 q 1388 1060 1294 1092 l 1375 979 l 1135 979 q 918 804 946 979 l 908 738 l 1400 724 l 1286 0 l 1157 0 l 1254 622 l 888 622 l 789 0 l 661 0 l 760 622 l 386 622 l 289 0 l 161 0 l 258 622 l 124 622 l 139 714 l 281 738 l 300 861 q 369 1025 318 972 q 536 1078 422 1078 z "},"ﬄ":{"ha":1503,"x_min":124,"x_max":1493,"o":"m 536 1078 q 700 1046 606 1078 l 686 964 l 531 965 q 451 932 471 965 q 425 850 436 904 l 406 738 l 782 738 l 793 808 q 1076 1092 836 1085 l 1461 1092 l 1332 271 q 1325 195 1325 222 q 1329 156 1325 168 q 1381 115 1339 128 q 1492 86 1482 86 l 1479 0 l 1353 0 q 1217 60 1253 0 q 1194 151 1194 96 q 1203 263 1194 207 l 1314 979 l 1086 979 q 943 894 979 979 q 921 808 928 860 l 910 738 l 1103 738 l 1083 622 l 889 622 l 790 0 l 663 0 l 761 622 l 386 622 l 289 0 l 161 0 l 258 622 l 124 622 l 139 714 l 281 738 l 300 861 q 369 1025 318 972 q 536 1078 422 1078 z "},"ﬆ":{"ha":1231,"x_min":85,"x_max":1315,"o":"m 472 104 q 551 172 540 104 l 563 232 q 565 258 565 243 q 554 287 565 272 q 504 301 543 301 l 310 301 q 161 346 207 301 q 126 443 126 379 q 131 492 126 465 l 142 557 q 208 694 157 649 q 364 739 260 739 l 985 739 l 1044 944 l 1144 944 l 1113 739 l 1315 739 l 1296 626 l 1094 626 l 1039 272 q 1031 188 1031 213 q 1038 149 1031 164 q 1056 128 1044 133 q 1127 106 1067 122 q 1190 90 1188 90 l 1175 1 l 1058 1 q 924 61 960 1 q 901 153 901 97 q 910 264 901 208 l 967 624 l 361 624 q 286 596 306 624 q 268 549 272 575 l 258 492 q 271 429 250 440 q 305 421 286 419 q 328 422 324 422 l 526 422 q 661 369 618 422 q 694 271 694 329 q 690 235 694 254 l 679 153 q 632 42 668 79 q 563 -3 596 6 q 460 -14 514 -14 q 263 -3 406 -14 q 86 17 121 7 l 100 104 l 472 104 z "}}}
